<?xml version="1.0" standalone="no"?>
<!DOCTYPE svg PUBLIC "-//W3C//DTD SVG 1.1//EN" "http://www.w3.org/Graphics/SVG/1.1/DTD/svg11.dtd" >
<svg xmlns="http://www.w3.org/2000/svg" xmlns:xlink="http://www.w3.org/1999/xlink" version="1.1">
<metadata>
Created by FontForge 20170910 at Wed Mar 21 14:59:38 2018
 By Jimmy Wärting
Copyright c 2018 Swiss Typefaces Sarl. All rights reserved.
</metadata>
<defs>
<font id="EuclidFlex-Regular" horiz-adv-x="0" >
  <font-face 
    font-family="Euclid Flex"
    font-weight="400"
    font-stretch="normal"
    units-per-em="1000"
    panose-1="2 11 5 4 0 0 0 0 0 0"
    ascent="806"
    descent="-194"
    x-height="500"
    cap-height="710"
    bbox="-350 -1767 1586 940"
    underline-thickness="73"
    underline-position="-90"
    stemh="81"
    stemv="91"
    unicode-range="U+000D-FEFF"
  />
<missing-glyph horiz-adv-x="500" 
d="M0 0v710h500v-710h-500zM34 691l216 -320l216 320h-432zM19 682v-654l221 327zM261 355l220 -327v654zM34 19h432l-216 320z" />
    <glyph glyph-name="uni0407_uni0407" unicode="&#x407;&#x407;" horiz-adv-x="556" 
d="M38 785c-32 0 -61 24 -61 60c0 33 27 59 61 59c33 0 59 -26 59 -59c0 -35 -27 -60 -59 -60zM279 785c-32 0 -61 24 -61 60c0 33 27 59 61 59c33 0 59 -26 59 -59c0 -35 -27 -60 -59 -60zM520 785c-32 0 -61 24 -61 60c0 33 27 59 61 59c33 0 59 -26 59 -59
c0 -35 -27 -60 -59 -60zM95 0v710h91v-710h-91zM370 0v710h91v-710h-91z" />
    <glyph glyph-name="uni0457_uni0457" unicode="&#x457;&#x457;" horiz-adv-x="476" 
d="M22 571c-32 0 -61 24 -61 60c0 33 27 59 61 59c33 0 59 -26 59 -59c0 -35 -27 -60 -59 -60zM239 571c-32 0 -61 24 -61 60c0 33 27 59 61 59c33 0 59 -26 59 -59c0 -35 -27 -60 -59 -60zM456 571c-32 0 -61 24 -61 60c0 33 27 59 61 59c33 0 59 -26 59 -59
c0 -35 -27 -60 -59 -60zM75 0v500h86v-500h-86zM315 0v500h86v-500h-86z" />
    <glyph glyph-name="uni0457_uni0458" unicode="&#x457;&#x458;" horiz-adv-x="476" 
d="M22 571c-32 0 -61 24 -61 60c0 33 27 59 61 59c33 0 59 -26 59 -59c0 -35 -27 -60 -59 -60zM239 571c-32 0 -61 24 -61 60c0 33 27 59 61 59c33 0 59 -26 59 -59c0 -35 -27 -60 -59 -60zM456 571c-32 0 -61 24 -61 60c0 33 27 59 61 59c33 0 59 -26 59 -59
c0 -35 -27 -60 -59 -60zM75 0v500h86v-500h-86zM211 -184v78h30c55 0 74 29 74 80v526h86v-539c0 -95 -55 -145 -151 -145h-39z" />
    <glyph glyph-name=".notdef" horiz-adv-x="500" 
d="M0 0v710h500v-710h-500zM34 691l216 -320l216 320h-432zM19 682v-654l221 327zM261 355l220 -327v654zM34 19h432l-216 320z" />
    <glyph glyph-name=".null" 
 />
    <glyph glyph-name="CR" unicode="&#xd;" horiz-adv-x="250" 
 />
    <glyph glyph-name="space" unicode=" " horiz-adv-x="250" 
 />
    <glyph glyph-name="exclam" unicode="!" horiz-adv-x="267" 
d="M106 220l-16 197v293h87v-293l-16 -197h-55zM132 -8c-40 0 -73 33 -73 74c0 26 13 49 34 62h80c20 -13 34 -36 34 -62c0 -41 -33 -74 -75 -74z" />
    <glyph glyph-name="quotedbl" unicode="&#x22;" horiz-adv-x="416" 
d="M68 465v245h78v-245h-78zM270 465v245h78v-245h-78z" />
    <glyph glyph-name="numbersign" unicode="#" horiz-adv-x="737" 
d="M166 0h-79l63 200h-116v73h138l54 171h-119v73h142l60 193h79l-60 -193h181l60 193h79l-60 -193h116v-73h-139l-54 -171h121v-73h-143l-63 -200h-79l63 200h-181zM251 273h181l54 171h-181z" />
    <glyph glyph-name="dollar" unicode="$" horiz-adv-x="521" 
d="M223 -88v83c-93 10 -158 59 -191 107l63 53c33 -45 92 -84 164 -84c86 0 138 46 138 108c0 64 -46 93 -120 130l-65 32c-106 52 -152 110 -152 199c0 84 62 158 163 174v84h83v-84c78 -10 121 -48 155 -87l-59 -55c-36 43 -77 67 -138 67c-69 0 -120 -42 -120 -98
c0 -55 35 -85 109 -121l65 -32c94 -46 165 -99 165 -199c0 -93 -56 -176 -177 -193v-84h-83z" />
    <glyph glyph-name="percent" unicode="%" horiz-adv-x="427" 
d="M211 437c-78 0 -142 61 -142 140s64 140 142 140c80 0 145 -61 145 -140s-65 -140 -145 -140zM211 502c45 0 74 34 74 75s-29 74 -74 74c-42 0 -72 -33 -72 -74s30 -75 72 -75zM71 317v73h290v-73h-290zM211 -7c-78 0 -142 61 -142 140s64 140 142 140
c80 0 145 -61 145 -140s-65 -140 -145 -140zM211 58c45 0 74 34 74 75s-29 75 -74 75c-42 0 -72 -34 -72 -75s30 -75 72 -75z" />
    <glyph glyph-name="ampersand" unicode="&#x26;" horiz-adv-x="608" 
d="M251 -8c-130 0 -225 99 -225 223c0 123 95 223 225 223c15 0 27 -1 42 -4l-143 276h359v-78h-228l330 -632h-94l-67 126c-39 -92 -111 -134 -199 -134zM251 71c80 0 140 60 140 144s-60 144 -140 144s-140 -60 -140 -144s60 -144 140 -144z" />
    <glyph glyph-name="quotesingle" unicode="'" horiz-adv-x="214" 
d="M68 465v245h78v-245h-78z" />
    <glyph glyph-name="parenleft" unicode="(" horiz-adv-x="261" 
d="M158 -142c-72 146 -108 265 -108 443s36 297 108 443l68 -29c-67 -141 -99 -265 -99 -414s32 -273 99 -414z" />
    <glyph glyph-name="parenright" unicode=")" horiz-adv-x="261" 
d="M103 -142l-68 29c67 141 99 265 99 414s-32 273 -99 414l68 29c72 -146 108 -265 108 -443s-36 -297 -108 -443z" />
    <glyph glyph-name="asterisk" unicode="*" horiz-adv-x="437" 
d="M141 376l-55 38l78 105l-125 42l20 64l126 -42v127h66v-127l127 42l20 -64l-126 -41l78 -106l-53 -39l-79 106z" />
    <glyph glyph-name="plus" unicode="+" horiz-adv-x="590" 
d="M77 240v70h183v178h71v-178h183v-70h-183v-182h-71v182h-183z" />
    <glyph glyph-name="comma" unicode="," horiz-adv-x="258" 
d="M76 -142l43 142h-51v123h122v-124l-57 -141h-57z" />
    <glyph glyph-name="hyphen" unicode="-" horiz-adv-x="375" 
d="M66 229v89h243v-89h-243z" />
    <glyph glyph-name="period" unicode="." horiz-adv-x="250" 
d="M125 -8c-40 0 -74 33 -74 74c0 42 35 74 74 74s74 -32 74 -74c0 -41 -34 -74 -74 -74z" />
    <glyph glyph-name="slash" unicode="/" horiz-adv-x="472" 
d="M24 0l344 710h81l-344 -710h-81z" />
    <glyph glyph-name="zero" unicode="0" horiz-adv-x="824" 
d="M412 -8c-203 0 -364 159 -364 363s161 363 364 363s364 -159 364 -363s-161 -363 -364 -363zM412 71c160 0 277 124 277 284s-117 284 -277 284s-276 -124 -276 -284s116 -284 276 -284z" />
    <glyph glyph-name="one" unicode="1" horiz-adv-x="272" 
d="M91 0v632l86 86v-718h-86z" />
    <glyph glyph-name="two" unicode="2" horiz-adv-x="550" 
d="M27 0l275 299c-18 -3 -25 -3 -33 -3c-121 3 -206 96 -206 209c0 120 94 213 215 213s216 -93 216 -213c0 -84 -37 -150 -123 -243l-164 -182h287v-80h-467zM278 371c76 0 131 57 131 134c0 76 -55 134 -131 134c-77 0 -130 -58 -130 -134c0 -77 53 -134 130 -134z" />
    <glyph glyph-name="three" unicode="3" horiz-adv-x="525" 
d="M236 -8c-83 0 -163 43 -204 109l66 51c24 -45 75 -81 137 -81c88 0 154 61 154 154c0 92 -62 158 -159 158h-63l143 247h-249v80h382l-148 -257c122 -27 182 -126 182 -228c0 -130 -97 -233 -241 -233z" />
    <glyph glyph-name="four" unicode="4" horiz-adv-x="630" 
d="M411 0v196h-401l486 522v-442h93v-80h-93v-196h-85zM185 276h226v243z" />
    <glyph glyph-name="five" unicode="5" horiz-adv-x="528" 
d="M253 -8c-85 0 -167 43 -207 109l67 52c23 -45 76 -82 138 -82c88 0 152 64 152 152c0 89 -61 156 -156 156c-54 0 -90 -30 -111 -55l-59 25v361h358v-80h-272v-192c32 13 62 19 87 19c150 0 240 -105 240 -234c0 -128 -96 -231 -237 -231z" />
    <glyph glyph-name="six" unicode="6" horiz-adv-x="544" 
d="M278 -8c-132 0 -235 103 -235 231c0 49 18 93 41 132l212 355h99l-158 -262c18 5 30 6 46 6c125 0 231 -104 231 -231c0 -128 -104 -231 -236 -231zM278 71c88 0 148 68 148 152s-60 152 -148 152c-87 0 -148 -68 -148 -152s61 -152 148 -152z" />
    <glyph glyph-name="seven" unicode="7" horiz-adv-x="499" 
d="M66 0l302 630h-336v80h465l-340 -710h-91z" />
    <glyph glyph-name="eight" unicode="8" horiz-adv-x="550" 
d="M275 -8c-126 0 -228 97 -228 228c0 84 42 154 106 194c-33 31 -54 76 -54 128c0 102 79 176 176 176s176 -74 176 -176c0 -52 -21 -97 -54 -128c63 -40 106 -110 106 -194c0 -131 -102 -228 -228 -228zM275 637c-50 0 -91 -40 -91 -95s41 -95 91 -95s91 40 91 95
s-41 95 -91 95zM275 73c78 0 139 64 139 147s-61 147 -139 147s-139 -64 -139 -147s61 -147 139 -147z" />
    <glyph glyph-name="nine" unicode="9" horiz-adv-x="544" 
d="M149 -1l158 262c-18 -5 -30 -6 -46 -6c-125 0 -231 104 -231 231c0 128 104 232 236 232s235 -104 235 -232c0 -49 -19 -93 -42 -132l-212 -355h-98zM266 334c87 0 148 68 148 152s-61 153 -148 153c-88 0 -148 -69 -148 -153s60 -152 148 -152z" />
    <glyph glyph-name="colon" unicode=":" horiz-adv-x="280" 
d="M140 360c-40 0 -74 33 -74 74c0 42 35 74 74 74s74 -32 74 -74c0 -41 -34 -74 -74 -74zM140 -8c-40 0 -74 33 -74 74c0 42 35 74 74 74s74 -32 74 -74c0 -41 -34 -74 -74 -74z" />
    <glyph glyph-name="semicolon" unicode=";" horiz-adv-x="282" 
d="M144 360c-40 0 -74 33 -74 74c0 42 35 74 74 74s74 -32 74 -74c0 -41 -34 -74 -74 -74zM85 -142l43 142h-51v123h122v-124l-57 -141h-57z" />
    <glyph glyph-name="less" unicode="&#x3c;" horiz-adv-x="590" 
d="M410 -8l-289 277l289 276l50 -52l-237 -224l237 -226z" />
    <glyph glyph-name="equal" unicode="=" horiz-adv-x="590" 
d="M73 350v70h444v-70h-444zM73 131v70h444v-70h-444z" />
    <glyph glyph-name="greater" unicode="&#x3e;" horiz-adv-x="590" 
d="M181 -8l-51 51l237 226l-237 224l51 52l289 -276z" />
    <glyph glyph-name="question" unicode="?" horiz-adv-x="515" 
d="M188 292v79h60c76 0 131 58 131 134s-55 134 -131 134c-77 0 -130 -58 -130 -134h-85c0 120 94 213 215 213s216 -93 216 -213s-95 -213 -216 -213h-60zM251 -8c-40 0 -73 33 -73 74c0 26 13 49 34 62h80c20 -13 34 -36 34 -62c0 -41 -33 -74 -75 -74z" />
    <glyph glyph-name="at" unicode="@" horiz-adv-x="804" 
d="M393 -8c-216 0 -349 152 -349 345c0 228 184 381 387 381c194 0 342 -121 342 -312c0 -174 -90 -243 -182 -243c-39 0 -78 19 -98 53c-32 -30 -76 -51 -133 -51c-96 0 -158 78 -158 172c0 121 92 219 217 219c48 0 84 -14 110 -38l6 28h72l-51 -239c-9 -44 4 -79 47 -79
c53 0 102 63 102 180c0 156 -119 247 -275 247c-171 0 -316 -125 -316 -318c0 -158 103 -279 279 -279c60 0 130 13 184 41l25 -63c-62 -28 -144 -44 -209 -44zM279 344c0 -71 40 -113 98 -113c37 0 80 16 103 58c0 3 1 7 2 11l31 144c-22 32 -62 46 -98 46
c-72 0 -136 -61 -136 -146z" />
    <glyph glyph-name="A" unicode="A" horiz-adv-x="678" 
d="M-7 0l346 718l346 -718h-98l-88 186h-320l-88 -186h-98zM219 270h240l-120 254z" />
    <glyph glyph-name="B" unicode="B" horiz-adv-x="632" 
d="M95 0v710h237c137 0 209 -85 209 -185c0 -72 -28 -117 -74 -148c70 -27 121 -81 121 -177c0 -129 -99 -200 -245 -200h-248zM186 404h144c75 0 120 48 120 111c0 60 -45 111 -120 111h-144v-222zM186 84h168c96 0 142 51 142 120s-46 122 -142 122h-168v-242z" />
    <glyph glyph-name="C" unicode="C" horiz-adv-x="722" 
d="M409 -8c-203 0 -363 157 -363 363s160 363 363 363c125 0 230 -61 284 -135l-65 -57c-47 63 -125 105 -219 105c-155 0 -270 -120 -270 -276s115 -276 270 -276c94 0 172 42 219 105l65 -57c-54 -74 -159 -135 -284 -135z" />
    <glyph glyph-name="D" unicode="D" horiz-adv-x="731" 
d="M95 0v710h211c219 0 379 -152 379 -355s-160 -355 -379 -355h-211zM186 85h120c172 0 286 115 286 270s-114 270 -286 270h-120v-540z" />
    <glyph glyph-name="E" unicode="E" horiz-adv-x="555" 
d="M95 0v710h410v-88h-319v-215h259v-88h-259v-231h319v-88h-410z" />
    <glyph glyph-name="F" unicode="F" horiz-adv-x="517" 
d="M95 0v710h398v-88h-307v-215h240v-88h-240v-319h-91z" />
    <glyph glyph-name="G" unicode="G" horiz-adv-x="742" 
d="M409 -8c-203 0 -363 157 -363 363s160 363 363 363c110 0 212 -49 268 -115l-65 -58c-48 52 -117 86 -203 86c-155 0 -270 -120 -270 -276s115 -276 270 -276c79 0 144 24 181 53v187h-218l39 88h270v-317c-43 -50 -149 -98 -272 -98z" />
    <glyph glyph-name="H" unicode="H" horiz-adv-x="764" 
d="M95 0v710h91v-303h392v303h91v-710h-91v319h-392v-319h-91z" />
    <glyph glyph-name="I" unicode="I" horiz-adv-x="281" 
d="M95 0v710h91v-710h-91z" />
    <glyph glyph-name="J" unicode="J" horiz-adv-x="523" 
d="M228 -8c-114 0 -207 73 -207 206h91c0 -81 52 -119 115 -119c67 0 117 38 117 119v512h91v-518c0 -133 -96 -200 -207 -200z" />
    <glyph glyph-name="K" unicode="K" horiz-adv-x="641" 
d="M95 0v710h91v-356l324 356h112l-328 -361l355 -349h-121l-342 337v-337h-91z" />
    <glyph glyph-name="L" unicode="L" horiz-adv-x="515" 
d="M95 0v710h91v-621h311v-89h-402z" />
    <glyph glyph-name="M" unicode="M" horiz-adv-x="882" 
d="M95 0v718l346 -381l346 381v-718h-91v494l-255 -285l-255 285v-494h-91z" />
    <glyph glyph-name="N" unicode="N" horiz-adv-x="787" 
d="M692 -8l-506 513v-505h-91v718l506 -513v505h91v-718z" />
    <glyph glyph-name="O" unicode="O" horiz-adv-x="818" 
d="M409 -8c-203 0 -363 157 -363 363s160 363 363 363s363 -157 363 -363s-160 -363 -363 -363zM409 79c155 0 270 120 270 276s-115 276 -270 276s-270 -120 -270 -276s115 -276 270 -276z" />
    <glyph glyph-name="P" unicode="P" horiz-adv-x="574" 
d="M95 0v710h201c149 0 246 -83 246 -217c0 -132 -97 -217 -246 -217h-110v-276h-91zM186 360h107c102 0 156 49 156 133c0 83 -54 133 -156 133h-107v-266z" />
    <glyph glyph-name="Q" unicode="Q" horiz-adv-x="835" 
d="M409 -8c-203 0 -363 157 -363 363s160 363 363 363s363 -157 363 -363c0 -82 -26 -157 -69 -217l91 -84l-58 -62l-91 84c-63 -53 -145 -84 -236 -84zM409 79c66 0 124 22 170 58l-93 86l58 62l91 -84c28 43 44 96 44 154c0 156 -115 276 -270 276s-270 -120 -270 -276
s115 -276 270 -276z" />
    <glyph glyph-name="R" unicode="R" horiz-adv-x="619" 
d="M95 0v710h211c139 0 228 -79 228 -200c0 -83 -45 -170 -169 -194l246 -316h-110l-237 310h-78v-310h-91zM186 391h114c93 0 140 44 140 117c0 74 -47 118 -140 118h-114v-235z" />
    <glyph glyph-name="S" unicode="S" horiz-adv-x="528" 
d="M263 -8c-103 0 -189 50 -231 110l69 60c34 -44 92 -83 161 -83c82 0 134 38 134 100c0 65 -40 99 -116 132l-65 28c-108 46 -155 112 -155 201c0 108 102 178 207 178c83 0 151 -33 199 -91l-64 -64c-37 44 -76 68 -138 68c-60 0 -113 -34 -113 -93
c0 -52 30 -87 105 -120l65 -28c96 -42 167 -101 167 -201c0 -116 -86 -197 -225 -197z" />
    <glyph glyph-name="T" unicode="T" horiz-adv-x="526" 
d="M217 0v622h-201v88h494v-88h-202v-622h-91z" />
    <glyph glyph-name="U" unicode="U" horiz-adv-x="738" 
d="M369 -8c-165 0 -283 104 -283 278v440h91v-444c0 -123 78 -187 192 -187s192 64 192 187v444h91v-440c0 -174 -117 -278 -283 -278z" />
    <glyph glyph-name="V" unicode="V" horiz-adv-x="656" 
d="M328 -8l-328 718h100l228 -509l227 509h100z" />
    <glyph glyph-name="W" unicode="W" horiz-adv-x="889" 
d="M252 -8l-244 718h94l157 -474l185 482l186 -482l157 474h94l-244 -718l-193 500z" />
    <glyph glyph-name="X" unicode="X" horiz-adv-x="639" 
d="M6 0l256 362l-243 348h105l195 -279l195 279h105l-241 -348l255 -362h-103l-210 295l-208 -295h-106z" />
    <glyph glyph-name="Y" unicode="Y" horiz-adv-x="628" 
d="M268 0v301l-260 409h106l200 -319l200 319h106l-260 -409v-301h-92z" />
    <glyph glyph-name="Z" unicode="Z" horiz-adv-x="593" 
d="M9 0l395 622h-352v88h508l-395 -622h397v-88h-553z" />
    <glyph glyph-name="bracketleft" unicode="[" horiz-adv-x="306" 
d="M89 -141v882h187v-71h-108v-740h108v-71h-187z" />
    <glyph glyph-name="backslash" unicode="\" horiz-adv-x="472" 
d="M367 0l-344 710h81l344 -710h-81z" />
    <glyph glyph-name="bracketright" unicode="]" horiz-adv-x="306" 
d="M217 -141h-187v71h108v740h-108v71h187v-882z" />
    <glyph glyph-name="asciicircum" unicode="^" horiz-adv-x="607" 
d="M32 317l271 395l272 -395h-86l-186 268l-186 -268h-85z" />
    <glyph glyph-name="underscore" unicode="_" horiz-adv-x="536" 
d="M56 -73v73h424v-73h-424z" />
    <glyph glyph-name="grave" unicode="`" 
d="M25 550l-123 160h109l85 -160h-71z" />
    <glyph glyph-name="a" unicode="a" horiz-adv-x="617" 
d="M456 0v50c-42 -38 -98 -58 -159 -58c-147 0 -255 113 -255 258s108 258 255 258c61 0 117 -20 159 -58v50h86v-500h-86zM299 73c72 0 128 34 157 81v192c-29 47 -85 81 -157 81c-98 0 -168 -78 -168 -177s70 -177 168 -177z" />
    <glyph glyph-name="b" unicode="b" horiz-adv-x="617" 
d="M75 0v710h86v-260c41 38 97 58 159 58c147 0 255 -113 255 -258s-108 -258 -255 -258c-62 0 -118 20 -159 58v-50h-86zM318 427c-72 0 -129 -34 -157 -81v-192c28 -47 85 -81 157 -81c98 0 168 78 168 177s-70 177 -168 177z" />
    <glyph glyph-name="c" unicode="c" horiz-adv-x="517" 
d="M298 -8c-148 0 -257 114 -257 258s109 258 257 258c83 0 147 -34 191 -79l-55 -60c-32 32 -77 58 -136 58c-98 0 -168 -78 -168 -177s70 -177 168 -177c59 0 104 26 136 58l55 -60c-44 -45 -108 -79 -191 -79z" />
    <glyph glyph-name="d" unicode="d" horiz-adv-x="617" 
d="M542 0h-86v50c-41 -38 -97 -58 -159 -58c-147 0 -255 113 -255 258s108 258 255 258c62 0 118 -20 159 -58v260h86v-710zM299 427c-98 0 -168 -78 -168 -177s70 -177 168 -177c72 0 129 34 157 81v192c-28 47 -85 81 -157 81z" />
    <glyph glyph-name="e" unicode="e" horiz-adv-x="569" 
d="M298 -8c-148 0 -257 114 -257 258c0 145 111 258 251 258c150 0 244 -115 244 -279h-406c9 -96 83 -156 168 -156c63 0 114 28 146 60l55 -60c-43 -45 -114 -81 -201 -81zM287 429c-62 0 -132 -37 -152 -125h304c-12 82 -76 126 -152 125z" />
    <glyph glyph-name="f" unicode="f" horiz-adv-x="352" 
d="M113 0v422h-86v78h84c-23 22 -37 54 -37 88c0 70 58 122 146 122h118v-78h-104c-43 0 -76 -20 -76 -63c0 -44 36 -67 69 -69h111v-78h-139v-422h-86z" />
    <glyph glyph-name="g" unicode="g" horiz-adv-x="611" 
d="M291 -194c-72 0 -153 20 -213 59l45 73c42 -31 105 -52 171 -52c87 0 168 32 168 126c0 17 -4 45 -13 63c-40 -39 -95 -60 -159 -60c-148 0 -247 107 -247 246c0 140 99 247 247 247c63 0 115 -21 156 -59v51h86v-398c13 -34 19 -69 19 -98c0 -144 -132 -198 -260 -198z
M292 95c71 0 127 35 154 82v169c-27 47 -83 81 -154 81c-95 0 -160 -71 -160 -166c0 -94 65 -166 160 -166z" />
    <glyph glyph-name="h" unicode="h" horiz-adv-x="578" 
d="M75 0v710h86v-267c38 48 97 65 155 65c113 0 193 -79 193 -203v-305h-86v300c0 73 -48 127 -126 127c-70 0 -118 -39 -136 -104v-323h-86z" />
    <glyph glyph-name="i" unicode="i" horiz-adv-x="236" 
d="M75 609c-12 11 -19 27 -19 46c0 35 27 63 62 63s62 -28 62 -63c0 -19 -7 -35 -19 -46h-86zM75 0v500h86v-500h-86z" />
    <glyph glyph-name="j" unicode="j" horiz-adv-x="244" 
d="M83 609c-12 11 -19 27 -19 46c0 35 27 63 62 63s62 -28 62 -63c0 -19 -7 -35 -19 -46h-86zM-21 -184v78h30c55 0 74 29 74 80v526h86v-539c0 -95 -55 -145 -151 -145h-39z" />
    <glyph glyph-name="k" unicode="k" horiz-adv-x="512" 
d="M75 0v710h86v-436l221 226h113l-232 -235l255 -265h-116l-241 250v-250h-86z" />
    <glyph glyph-name="l" unicode="l" horiz-adv-x="236" 
d="M75 0v710h86v-710h-86z" />
    <glyph glyph-name="m" unicode="m" horiz-adv-x="875" 
d="M398 0v300c0 73 -43 127 -115 127c-58 0 -102 -35 -122 -94v-333h-86v500h86v-55c37 46 91 63 141 63c74 0 122 -35 151 -82c39 55 102 82 167 82c114 0 186 -79 186 -203v-305h-86v300c0 73 -42 127 -114 127c-55 0 -100 -29 -123 -101c1 -7 1 -14 1 -21v-305h-86z" />
    <glyph glyph-name="n" unicode="n" horiz-adv-x="578" 
d="M75 0v500h86v-57c38 48 97 65 155 65c113 0 193 -79 193 -203v-305h-86v300c0 73 -48 127 -126 127c-70 0 -118 -39 -136 -104v-323h-86z" />
    <glyph glyph-name="o" unicode="o" horiz-adv-x="602" 
d="M301 -8c-151 0 -260 114 -260 258s109 258 260 258c150 0 259 -114 259 -258s-109 -258 -259 -258zM301 73c102 0 170 78 170 177s-68 177 -170 177s-171 -78 -171 -177s69 -177 171 -177z" />
    <glyph glyph-name="p" unicode="p" horiz-adv-x="617" 
d="M75 500h86v-50c41 38 97 58 159 58c147 0 255 -113 255 -258s-108 -258 -255 -258c-62 0 -118 20 -159 58v-234h-86v684zM318 73c98 0 168 78 168 177s-70 177 -168 177c-72 0 -129 -34 -157 -81v-192c28 -47 85 -81 157 -81z" />
    <glyph glyph-name="q" unicode="q" horiz-adv-x="617" 
d="M542 500v-684h-86v234c-41 -38 -97 -58 -159 -58c-147 0 -255 113 -255 258s108 258 255 258c62 0 118 -20 159 -58v50h86zM299 73c72 0 129 34 157 81v192c-28 47 -85 81 -157 81c-98 0 -168 -78 -168 -177s70 -177 168 -177z" />
    <glyph glyph-name="r" unicode="r" horiz-adv-x="351" 
d="M75 0v500h86v-59c34 43 82 64 138 64c12 0 24 -1 35 -3v-89c-14 4 -30 6 -48 6c-54 0 -103 -27 -125 -79v-340h-86z" />
    <glyph glyph-name="s" unicode="s" horiz-adv-x="420" 
d="M207 -8c-74 0 -137 33 -177 100l68 46c26 -44 58 -69 111 -69c49 0 89 25 89 63s-26 59 -85 80l-39 15c-88 33 -119 88 -119 148c0 75 65 133 156 133c64 0 119 -29 150 -90l-67 -39c-16 33 -44 52 -83 52c-38 0 -71 -20 -71 -55c0 -31 15 -55 73 -76l41 -15
c85 -31 130 -76 130 -150c0 -80 -68 -143 -177 -143z" />
    <glyph glyph-name="t" unicode="t" horiz-adv-x="364" 
d="M258 0c-96 0 -151 50 -151 145v277h-80l-19 78h99v107l86 43v-150h151l-19 -78h-132v-264c0 -51 19 -80 74 -80h67v-78h-76z" />
    <glyph glyph-name="u" unicode="u" horiz-adv-x="577" 
d="M416 0v56c-39 -48 -96 -64 -154 -64c-114 0 -193 79 -193 203v305h86v-300c0 -73 48 -127 125 -127c69 0 116 37 136 100v327h86v-500h-86z" />
    <glyph glyph-name="v" unicode="v" horiz-adv-x="520" 
d="M260 -8l-264 508h97l167 -338l168 338h97z" />
    <glyph glyph-name="w" unicode="w" horiz-adv-x="700" 
d="M169 0l-158 500h89l112 -364l138 372l138 -372l112 364h89l-158 -500h-69l-112 304l-111 -304h-70z" />
    <glyph glyph-name="x" unicode="x" horiz-adv-x="514" 
d="M10 0l195 254l-185 246h99l139 -184l137 184h99l-185 -246l195 -254h-100l-147 194l-147 -194h-100z" />
    <glyph glyph-name="y" unicode="y" horiz-adv-x="507" 
d="M107 -184l103 226l-204 458h93l156 -364l157 364h93l-307 -684h-91z" />
    <glyph glyph-name="z" unicode="z" horiz-adv-x="486" 
d="M16 0l292 422h-260v78h411l-291 -422h281v-78h-433z" />
    <glyph glyph-name="braceleft" unicode="{" horiz-adv-x="316" 
d="M233 -141c-95 0 -128 50 -128 144v190c0 46 -9 71 -58 71h-16v71h16c49 0 58 25 58 71v191c0 94 31 144 126 144h50v-71h-39c-49 0 -59 -23 -59 -73v-187c0 -61 -12 -91 -53 -110c41 -20 53 -50 53 -111v-186c0 -50 10 -73 59 -73h39v-71h-48z" />
    <glyph glyph-name="bar" unicode="|" horiz-adv-x="257" 
d="M89 -184v894h79v-894h-79z" />
    <glyph glyph-name="braceright" unicode="}" horiz-adv-x="316" 
d="M83 -141h-48v71h39c49 0 59 23 59 73v186c0 61 12 91 53 111c-41 19 -53 49 -53 110v187c0 50 -10 73 -59 73h-39v71h50c95 0 126 -50 126 -144v-191c0 -46 9 -71 58 -71h16v-71h-16c-49 0 -58 -25 -58 -71v-190c0 -94 -33 -144 -128 -144z" />
    <glyph glyph-name="asciitilde" unicode="~" horiz-adv-x="590" 
d="M87 206v86l108 73l198 -75l112 74v-82l-108 -75l-199 75z" />
    <glyph glyph-name="uni00A0" unicode="&#xa0;" horiz-adv-x="250" 
 />
    <glyph glyph-name="exclamdown" unicode="&#xa1;" horiz-adv-x="255" 
d="M126 508c42 0 75 -33 75 -74c0 -26 -14 -49 -34 -61h-80c-21 12 -34 35 -34 61c0 41 33 74 73 74zM100 281h55l16 -197v-268h-87v268z" />
    <glyph glyph-name="cent" unicode="&#xa2;" horiz-adv-x="531" 
d="M259 -88v84c-126 19 -215 125 -215 255s89 236 215 255v82h83v-82c63 -9 114 -39 150 -76l-55 -60c-32 32 -77 58 -136 58c-98 0 -168 -78 -168 -177s70 -177 168 -177c59 0 104 26 136 58l55 -60c-36 -37 -87 -67 -150 -76v-84h-83z" />
    <glyph glyph-name="sterling" unicode="&#xa3;" horiz-adv-x="580" 
d="M53 0v80h90v224h-90v74h91c-33 34 -53 82 -53 133c0 113 88 207 214 207c123 0 212 -95 213 -211h-87c0 73 -50 132 -126 132s-128 -55 -128 -128s52 -133 128 -133h82v-74h-157v-224h315v-80h-492z" />
    <glyph glyph-name="currency" unicode="&#xa4;" horiz-adv-x="647" 
d="M563 348c0 -47 -12 -95 -43 -136l68 -68l-55 -54l-68 68c-45 -33 -101 -47 -141 -47s-96 14 -141 47l-68 -68l-55 54l68 68c-31 41 -43 89 -43 136s12 95 43 136l-68 68l55 54l68 -68c45 33 101 47 141 47s96 -14 141 -47l68 68l55 -54l-68 -68c31 -41 43 -89 43 -136z
M478 348c0 92 -64 158 -154 158s-154 -66 -154 -158s64 -158 154 -158s154 66 154 158z" />
    <glyph glyph-name="yen" unicode="&#xa5;" horiz-adv-x="664" 
d="M131 124v74h155v73h-155v74h127l-232 365h106l200 -319l200 319h106l-232 -365h126v-74h-154v-73h154v-74h-154v-124h-92v124h-155z" />
    <glyph glyph-name="brokenbar" unicode="&#xa6;" horiz-adv-x="257" 
d="M89 327v383h79v-383h-79zM89 -184v384h79v-384h-79z" />
    <glyph glyph-name="section" unicode="&#xa7;" horiz-adv-x="455" 
d="M237 -194c-71 0 -130 37 -156 98l62 33c22 -40 54 -61 94 -61c47 0 86 28 85 79c-2 59 -47 94 -97 118l-62 30c-64 31 -112 88 -112 159c0 70 35 126 108 159c-62 34 -104 80 -104 155c0 83 61 141 155 141c73 0 130 -36 156 -99l-63 -31c-25 45 -54 60 -93 60
c-46 0 -76 -27 -76 -71c0 -54 47 -83 96 -107l60 -29c69 -33 115 -90 115 -161c0 -70 -35 -126 -107 -158c62 -38 101 -91 103 -167c1 -90 -71 -148 -164 -148zM212 164l5 -3c65 24 109 53 109 115c0 50 -37 79 -79 100l-8 4c-65 -24 -109 -51 -109 -114
c0 -48 38 -81 82 -102z" />
    <glyph glyph-name="dieresis" unicode="&#xa8;" 
d="M114 571c-33 0 -61 25 -61 60c0 33 27 59 61 59c33 0 60 -26 60 -59c0 -36 -29 -60 -60 -60zM-111 571c-33 0 -61 25 -61 60c0 33 27 59 61 59c33 0 60 -26 60 -59c0 -36 -29 -60 -60 -60z" />
    <glyph glyph-name="copyright" unicode="&#xa9;" horiz-adv-x="816" 
d="M408 -9c-200 0 -363 164 -363 363c0 200 163 364 363 364s363 -164 363 -364c0 -199 -163 -363 -363 -363zM408 54c162 0 294 134 294 301c0 168 -132 300 -294 300c-161 0 -293 -132 -293 -300c0 -167 132 -301 293 -301zM426 183c-96 0 -172 74 -172 172
c0 97 76 172 172 172c43 0 81 -15 110 -43l-39 -51c-17 15 -41 29 -71 29c-61 0 -102 -48 -102 -107s41 -107 102 -107c30 0 53 13 71 29l39 -51c-28 -28 -67 -43 -110 -43z" />
    <glyph glyph-name="ordfeminine" unicode="&#xaa;" horiz-adv-x="420" 
d="M281 410v22c-25 -19 -54 -27 -85 -27c-87 0 -152 67 -152 155s65 155 152 155c31 0 60 -8 85 -27v22h69v-300h-69zM198 470c40 0 69 19 83 44v93c-14 24 -43 43 -83 43c-48 0 -83 -39 -83 -90s35 -90 83 -90z" />
    <glyph glyph-name="guillemotleft" unicode="&#xab;" horiz-adv-x="509" 
d="M396 29l-152 221l152 221l62 -42l-123 -179l123 -179zM194 29l-152 221l152 221l62 -42l-123 -179l123 -179z" />
    <glyph glyph-name="uni00AD" unicode="&#xad;" horiz-adv-x="375" 
d="M66 229v89h243v-89h-243z" />
    <glyph glyph-name="registered" unicode="&#xae;" horiz-adv-x="816" 
d="M408 -9c-200 0 -363 164 -363 363c0 200 163 364 363 364s363 -164 363 -364c0 -199 -163 -363 -363 -363zM407 61c162 0 294 132 294 293c0 162 -132 294 -294 294c-161 0 -293 -132 -293 -294c0 -161 132 -293 293 -293zM303 186v336h108c64 0 114 -39 114 -102
c0 -34 -17 -76 -68 -94l104 -140h-82l-94 132h-14v-132h-68zM371 378h34c33 0 50 14 50 40c0 28 -17 42 -50 42h-34v-82z" />
    <glyph glyph-name="macron" unicode="&#xaf;" 
d="M-146 614v65h292v-65h-292z" />
    <glyph glyph-name="degree" unicode="&#xb0;" horiz-adv-x="332" 
d="M166 470c-67 0 -122 55 -122 122s55 122 122 122s122 -55 122 -122s-55 -122 -122 -122zM166 525c37 0 66 31 66 67s-29 66 -66 66c-36 0 -67 -30 -67 -66s31 -67 67 -67z" />
    <glyph glyph-name="plusminus" unicode="&#xb1;" horiz-adv-x="590" 
d="M260 145v144h-184v70h184v141h70v-141h184v-70h-184v-144h-70zM76 0v70h438v-70h-438z" />
    <glyph glyph-name="twosuperior" unicode="&#xb2;" horiz-adv-x="355" 
d="M20 410l147 169c-74 5 -129 55 -129 128c0 74 65 132 141 132s140 -58 140 -132c0 -60 -30 -91 -83 -151l-72 -82h146v-64h-290zM179 637c38 0 69 31 69 70c0 38 -31 69 -69 69c-39 0 -70 -31 -70 -69c0 -39 31 -70 70 -70z" />
    <glyph glyph-name="threesuperior" unicode="&#xb3;" horiz-adv-x="332" 
d="M155 405c-52 0 -106 26 -131 71l52 41c18 -32 44 -49 80 -49c43 0 71 38 71 80c0 41 -30 77 -84 77h-42l74 146h-133v63h238l-80 -155c61 -17 98 -60 98 -131c0 -73 -54 -143 -143 -143z" />
    <glyph glyph-name="acute" unicode="&#xb4;" 
d="M-24 550h-71l85 160h109z" />
    <glyph glyph-name="paragraph" unicode="&#xb6;" horiz-adv-x="635" 
d="M255 -184v444c-124 0 -225 101 -225 225s101 225 225 225h275v-894h-78v816h-118v-816h-79z" />
    <glyph glyph-name="periodcentered" unicode="&#xb7;" horiz-adv-x="270" 
d="M135 175c-40 0 -74 33 -74 74c0 42 35 74 74 74s74 -32 74 -74c0 -41 -34 -74 -74 -74z" />
    <glyph glyph-name="cedilla" unicode="&#xb8;" 
d="M-84 -165l93 165h59l-54 -165h-98z" />
    <glyph glyph-name="onesuperior" unicode="&#xb9;" horiz-adv-x="188" 
d="M58 410v364l69 65v-429h-69z" />
    <glyph glyph-name="ordmasculine" unicode="&#xba;" horiz-adv-x="398" 
d="M199 405c-90 0 -156 68 -156 155s66 155 156 155s156 -68 156 -155s-66 -155 -156 -155zM199 470c52 0 84 39 84 90s-32 90 -84 90c-51 0 -85 -39 -85 -90s34 -90 85 -90z" />
    <glyph glyph-name="guillemotright" unicode="&#xbb;" horiz-adv-x="509" 
d="M315 29l-62 42l123 179l-123 179l62 42l152 -221zM113 29l-62 42l123 179l-123 179l62 42l152 -221z" />
    <glyph glyph-name="onequarter" unicode="&#xbc;" horiz-adv-x="723" 
d="M58 287v364l69 65v-429h-69zM9 0l500 710h80l-500 -710h-80zM570 0v114h-232l301 315v-252h53v-63h-53v-114h-69zM478 177h92v94z" />
    <glyph glyph-name="onehalf" unicode="&#xbd;" horiz-adv-x="743" 
d="M58 287v364l69 65v-429h-69zM9 0l500 710h80l-500 -710h-80zM408 0l147 169c-74 5 -129 55 -129 128c0 74 65 132 141 132s140 -58 140 -132c0 -60 -30 -91 -83 -151l-72 -82h146v-64h-290zM567 227c38 0 69 31 69 70c0 38 -31 69 -69 69c-39 0 -70 -31 -70 -69
c0 -39 31 -70 70 -70z" />
    <glyph glyph-name="threequarters" unicode="&#xbe;" horiz-adv-x="847" 
d="M155 281c-52 0 -106 26 -131 71l52 41c18 -32 44 -49 80 -49c43 0 71 38 71 80c0 41 -30 77 -84 77h-42l74 146h-133v63h238l-80 -155c61 -17 98 -60 98 -131c0 -73 -54 -143 -143 -143zM133 0l500 710h80l-500 -710h-80zM694 0v114h-232l301 315v-252h53v-63h-53v-114
h-69zM602 177h92v94z" />
    <glyph glyph-name="questiondown" unicode="&#xbf;" horiz-adv-x="502" 
d="M214 372c-20 13 -34 36 -34 62c0 41 33 74 75 74c40 0 73 -33 73 -74c0 -26 -13 -49 -34 -62h-80zM258 -194c-121 0 -216 93 -216 213s95 213 216 213h60v-79h-60c-76 0 -131 -58 -131 -134s55 -134 131 -134c77 0 130 58 130 134h85c0 -120 -94 -213 -215 -213z" />
    <glyph glyph-name="Agrave" unicode="&#xc0;" horiz-adv-x="678" 
d="M297 768l-113 145h109l77 -145h-73zM-7 0l346 718l346 -718h-98l-88 186h-320l-88 -186h-98zM219 270h240l-120 254z" />
    <glyph glyph-name="Aacute" unicode="&#xc1;" horiz-adv-x="678" 
d="M377 768h-73l77 145h109zM-7 0l346 718l346 -718h-98l-88 186h-320l-88 -186h-98zM219 270h240l-120 254z" />
    <glyph glyph-name="Acircumflex" unicode="&#xc2;" horiz-adv-x="678" 
d="M201 766l-35 60l173 100l173 -100l-35 -60l-138 82zM-7 0l346 718l346 -718h-98l-88 186h-320l-88 -186h-98zM219 270h240l-120 254z" />
    <glyph glyph-name="Atilde" unicode="&#xc3;" horiz-adv-x="678" 
d="M166 784l3 19c12 60 57 94 103 94c56 0 93 -44 126 -44c28 0 41 15 48 44h66l-3 -18c-11 -56 -53 -94 -103 -94c-56 0 -94 44 -128 44c-26 0 -39 -15 -46 -45h-66zM-7 0l346 718l346 -718h-98l-88 186h-320l-88 -186h-98zM219 270h240l-120 254z" />
    <glyph glyph-name="Adieresis" unicode="&#xc4;" horiz-adv-x="678" 
d="M453 785c-33 0 -61 25 -61 60c0 33 27 59 61 59c33 0 60 -26 60 -59c0 -36 -29 -60 -60 -60zM228 785c-33 0 -61 25 -61 60c0 33 27 59 61 59c33 0 60 -26 60 -59c0 -36 -29 -60 -60 -60zM-7 0l346 718l346 -718h-98l-88 186h-320l-88 -186h-98zM219 270h240l-120 254z
" />
    <glyph glyph-name="Aring" unicode="&#xc5;" horiz-adv-x="678" 
d="M339 751c-55 0 -99 41 -99 94c0 55 45 95 99 95s99 -40 99 -95c0 -53 -44 -94 -99 -94zM339 798c26 0 48 19 48 47c0 29 -22 48 -48 48s-48 -19 -48 -48c0 -28 22 -47 48 -47zM-7 0l346 718l346 -718h-98l-88 186h-320l-88 -186h-98zM219 270h240l-120 254z" />
    <glyph glyph-name="AE" unicode="&#xc6;" horiz-adv-x="998" 
d="M100 0h-98l299 621l-42 89h399l42 -88h-306l104 -215h262l42 -88h-262l111 -231h306l43 -88h-404l-88 186h-320zM228 270h240l-120 253z" />
    <glyph glyph-name="Ccedilla" unicode="&#xc7;" horiz-adv-x="722" 
d="M313 -165l89 157c-200 4 -356 160 -356 363c0 206 160 363 363 363c125 0 230 -61 284 -135l-65 -57c-47 63 -125 105 -219 105c-155 0 -270 -120 -270 -276s115 -276 270 -276c94 0 172 42 219 105l65 -57c-46 -63 -129 -116 -229 -131l-53 -161h-98z" />
    <glyph glyph-name="Egrave" unicode="&#xc8;" horiz-adv-x="555" 
d="M265 768l-113 145h109l77 -145h-73zM95 0v710h410v-88h-319v-215h259v-88h-259v-231h319v-88h-410z" />
    <glyph glyph-name="Eacute" unicode="&#xc9;" horiz-adv-x="555" 
d="M345 768h-73l77 145h109zM95 0v710h410v-88h-319v-215h259v-88h-259v-231h319v-88h-410z" />
    <glyph glyph-name="Ecircumflex" unicode="&#xca;" horiz-adv-x="555" 
d="M169 766l-35 60l173 100l173 -100l-35 -60l-138 82zM95 0v710h410v-88h-319v-215h259v-88h-259v-231h319v-88h-410z" />
    <glyph glyph-name="Edieresis" unicode="&#xcb;" horiz-adv-x="555" 
d="M421 785c-33 0 -61 25 -61 60c0 33 27 59 61 59c33 0 60 -26 60 -59c0 -36 -29 -60 -60 -60zM196 785c-33 0 -61 25 -61 60c0 33 27 59 61 59c33 0 60 -26 60 -59c0 -36 -29 -60 -60 -60zM95 0v710h410v-88h-319v-215h259v-88h-259v-231h319v-88h-410z" />
    <glyph glyph-name="Igrave" unicode="&#xcc;" horiz-adv-x="281" 
d="M98 768l-113 145h109l77 -145h-73zM95 0v710h91v-710h-91z" />
    <glyph glyph-name="Iacute" unicode="&#xcd;" horiz-adv-x="281" 
d="M178 768h-73l77 145h109zM95 0v710h91v-710h-91z" />
    <glyph glyph-name="Icircumflex" unicode="&#xce;" horiz-adv-x="281" 
d="M2 766l-35 60l173 100l173 -100l-35 -60l-138 82zM95 0v710h91v-710h-91z" />
    <glyph glyph-name="Idieresis" unicode="&#xcf;" horiz-adv-x="281" 
d="M254 785c-33 0 -61 25 -61 60c0 33 27 59 61 59c33 0 60 -26 60 -59c0 -36 -29 -60 -60 -60zM29 785c-33 0 -61 25 -61 60c0 33 27 59 61 59c33 0 60 -26 60 -59c0 -36 -29 -60 -60 -60zM95 0v710h91v-710h-91z" />
    <glyph glyph-name="Eth" unicode="&#xd0;" horiz-adv-x="765" 
d="M129 0v319h-121v74h121v317h211c219 0 379 -152 379 -355s-160 -355 -379 -355h-211zM220 85h120c172 0 286 115 286 270s-114 270 -286 270h-120v-232h121v-74h-121v-234z" />
    <glyph glyph-name="Ntilde" unicode="&#xd1;" horiz-adv-x="787" 
d="M215 784l3 19c12 60 57 94 103 94c56 0 93 -44 126 -44c28 0 41 15 48 44h66l-3 -18c-11 -56 -53 -94 -103 -94c-56 0 -94 44 -128 44c-26 0 -39 -15 -46 -45h-66zM692 -8l-506 513v-505h-91v718l506 -513v505h91v-718z" />
    <glyph glyph-name="Ograve" unicode="&#xd2;" horiz-adv-x="818" 
d="M368 767l-113 145h109l77 -145h-73zM409 -8c-203 0 -363 157 -363 363s160 363 363 363s363 -157 363 -363s-160 -363 -363 -363zM409 79c155 0 270 120 270 276s-115 276 -270 276s-270 -120 -270 -276s115 -276 270 -276z" />
    <glyph glyph-name="Oacute" unicode="&#xd3;" horiz-adv-x="818" 
d="M448 767h-73l77 145h109zM409 -8c-203 0 -363 157 -363 363s160 363 363 363s363 -157 363 -363s-160 -363 -363 -363zM409 79c155 0 270 120 270 276s-115 276 -270 276s-270 -120 -270 -276s115 -276 270 -276z" />
    <glyph glyph-name="Ocircumflex" unicode="&#xd4;" horiz-adv-x="818" 
d="M272 765l-35 60l173 100l173 -100l-35 -60l-138 82zM409 -8c-203 0 -363 157 -363 363s160 363 363 363s363 -157 363 -363s-160 -363 -363 -363zM409 79c155 0 270 120 270 276s-115 276 -270 276s-270 -120 -270 -276s115 -276 270 -276z" />
    <glyph glyph-name="Otilde" unicode="&#xd5;" horiz-adv-x="818" 
d="M237 783l3 19c12 60 57 94 103 94c56 0 93 -44 126 -44c28 0 41 15 48 44h66l-3 -18c-11 -56 -53 -94 -103 -94c-56 0 -94 44 -128 44c-26 0 -39 -15 -46 -45h-66zM409 -8c-203 0 -363 157 -363 363s160 363 363 363s363 -157 363 -363s-160 -363 -363 -363zM409 79
c155 0 270 120 270 276s-115 276 -270 276s-270 -120 -270 -276s115 -276 270 -276z" />
    <glyph glyph-name="Odieresis" unicode="&#xd6;" horiz-adv-x="818" 
d="M524 784c-33 0 -61 25 -61 60c0 33 27 59 61 59c33 0 60 -26 60 -59c0 -36 -29 -60 -60 -60zM299 784c-33 0 -61 25 -61 60c0 33 27 59 61 59c33 0 60 -26 60 -59c0 -36 -29 -60 -60 -60zM409 -8c-203 0 -363 157 -363 363s160 363 363 363s363 -157 363 -363
s-160 -363 -363 -363zM409 79c155 0 270 120 270 276s-115 276 -270 276s-270 -120 -270 -276s115 -276 270 -276z" />
    <glyph glyph-name="multiply" unicode="&#xd7;" horiz-adv-x="590" 
d="M148 70l-50 49l148 148l-150 149l50 49l149 -149l148 147l49 -49l-147 -147l149 -150l-49 -49l-150 149z" />
    <glyph glyph-name="Oslash" unicode="&#xd8;" horiz-adv-x="820" 
d="M127 -57l-57 46l84 105c-66 66 -107 157 -107 261c0 206 160 363 363 363c73 0 141 -20 197 -56l85 106l58 -46l-85 -106c67 -65 108 -157 108 -261c0 -206 -160 -363 -363 -363c-74 0 -142 21 -198 57zM140 355c0 -75 26 -141 71 -190l341 427c-41 25 -89 39 -142 39
c-155 0 -270 -120 -270 -276zM410 79c155 0 270 120 270 276c0 75 -26 141 -71 190l-342 -427c41 -25 90 -39 143 -39z" />
    <glyph glyph-name="Ugrave" unicode="&#xd9;" horiz-adv-x="738" 
d="M325 768l-113 145h109l77 -145h-73zM369 -8c-165 0 -283 104 -283 278v440h91v-444c0 -123 78 -187 192 -187s192 64 192 187v444h91v-440c0 -174 -117 -278 -283 -278z" />
    <glyph glyph-name="Uacute" unicode="&#xda;" horiz-adv-x="738" 
d="M405 768h-73l77 145h109zM369 -8c-165 0 -283 104 -283 278v440h91v-444c0 -123 78 -187 192 -187s192 64 192 187v444h91v-440c0 -174 -117 -278 -283 -278z" />
    <glyph glyph-name="Ucircumflex" unicode="&#xdb;" horiz-adv-x="738" 
d="M229 766l-35 60l173 100l173 -100l-35 -60l-138 82zM369 -8c-165 0 -283 104 -283 278v440h91v-444c0 -123 78 -187 192 -187s192 64 192 187v444h91v-440c0 -174 -117 -278 -283 -278z" />
    <glyph glyph-name="Udieresis" unicode="&#xdc;" horiz-adv-x="738" 
d="M481 785c-33 0 -61 25 -61 60c0 33 27 59 61 59c33 0 60 -26 60 -59c0 -36 -29 -60 -60 -60zM256 785c-33 0 -61 25 -61 60c0 33 27 59 61 59c33 0 60 -26 60 -59c0 -36 -29 -60 -60 -60zM369 -8c-165 0 -283 104 -283 278v440h91v-444c0 -123 78 -187 192 -187
s192 64 192 187v444h91v-440c0 -174 -117 -278 -283 -278z" />
    <glyph glyph-name="Yacute" unicode="&#xdd;" horiz-adv-x="628" 
d="M353 768h-73l77 145h109zM268 0v301l-260 409h106l200 -319l200 319h106l-260 -409v-301h-92z" />
    <glyph glyph-name="Thorn" unicode="&#xde;" horiz-adv-x="580" 
d="M95 0v710h91v-136h102c152 0 252 -86 252 -217c0 -132 -100 -218 -252 -218h-102v-139h-91zM287 489h-101v-266h101c104 0 161 50 161 134c0 83 -57 132 -161 132z" />
    <glyph glyph-name="germandbls" unicode="&#xdf;" horiz-adv-x="543" 
d="M420 56c0 94 -73 158 -179 158v67l95 141h-175v-422h-86v565c0 95 55 145 151 145h39v-78h-30c-55 0 -74 -29 -74 -80v-52h325l-151 -224c114 -34 171 -118 171 -220c0 -139 -110 -240 -265 -240v82c106 0 179 64 179 158z" />
    <glyph glyph-name="agrave" unicode="&#xe0;" horiz-adv-x="617" 
d="M290 550l-123 160h109l85 -160h-71zM456 0v50c-42 -38 -98 -58 -159 -58c-147 0 -255 113 -255 258s108 258 255 258c61 0 117 -20 159 -58v50h86v-500h-86zM299 73c72 0 128 34 157 81v192c-29 47 -85 81 -157 81c-98 0 -168 -78 -168 -177s70 -177 168 -177z" />
    <glyph glyph-name="aacute" unicode="&#xe1;" horiz-adv-x="617" 
d="M342 550h-71l85 160h109zM456 0v50c-42 -38 -98 -58 -159 -58c-147 0 -255 113 -255 258s108 258 255 258c61 0 117 -20 159 -58v50h86v-500h-86zM299 73c72 0 128 34 157 81v192c-29 47 -85 81 -157 81c-98 0 -168 -78 -168 -177s70 -177 168 -177z" />
    <glyph glyph-name="acircumflex" unicode="&#xe2;" horiz-adv-x="617" 
d="M313 718l161 -109l-38 -55l-123 83l-123 -83l-38 55zM456 0v50c-42 -38 -98 -58 -159 -58c-147 0 -255 113 -255 258s108 258 255 258c61 0 117 -20 159 -58v50h86v-500h-86zM299 73c72 0 128 34 157 81v192c-29 47 -85 81 -157 81c-98 0 -168 -78 -168 -177
s70 -177 168 -177z" />
    <glyph glyph-name="atilde" unicode="&#xe3;" horiz-adv-x="617" 
d="M141 566l3 19c12 60 57 94 103 94c56 0 93 -44 126 -44c28 0 41 15 48 44h66l-3 -18c-11 -56 -53 -94 -103 -94c-56 0 -94 44 -128 44c-26 0 -39 -15 -46 -45h-66zM456 0v50c-42 -38 -98 -58 -159 -58c-147 0 -255 113 -255 258s108 258 255 258c61 0 117 -20 159 -58v50
h86v-500h-86zM299 73c72 0 128 34 157 81v192c-29 47 -85 81 -157 81c-98 0 -168 -78 -168 -177s70 -177 168 -177z" />
    <glyph glyph-name="adieresis" unicode="&#xe4;" horiz-adv-x="617" 
d="M427 571c-33 0 -61 25 -61 60c0 33 27 59 61 59c33 0 60 -26 60 -59c0 -36 -29 -60 -60 -60zM202 571c-33 0 -61 25 -61 60c0 33 27 59 61 59c33 0 60 -26 60 -59c0 -36 -29 -60 -60 -60zM456 0v50c-42 -38 -98 -58 -159 -58c-147 0 -255 113 -255 258s108 258 255 258
c61 0 117 -20 159 -58v50h86v-500h-86zM299 73c72 0 128 34 157 81v192c-29 47 -85 81 -157 81c-98 0 -168 -78 -168 -177s70 -177 168 -177z" />
    <glyph glyph-name="aring" unicode="&#xe5;" horiz-adv-x="617" 
d="M313 566c-55 0 -99 41 -99 94c0 55 45 95 99 95s99 -40 99 -95c0 -53 -44 -94 -99 -94zM313 613c26 0 48 19 48 47c0 29 -22 48 -48 48s-48 -19 -48 -48c0 -28 22 -47 48 -47zM456 0v50c-42 -38 -98 -58 -159 -58c-147 0 -255 113 -255 258s108 258 255 258
c61 0 117 -20 159 -58v50h86v-500h-86zM299 73c72 0 128 34 157 81v192c-29 47 -85 81 -157 81c-98 0 -168 -78 -168 -177s70 -177 168 -177z" />
    <glyph glyph-name="ae" unicode="&#xe6;" horiz-adv-x="921" 
d="M851 73c-43 -45 -114 -81 -201 -81c-77 0 -153 31 -205 99c-60 -70 -132 -99 -212 -99c-121 0 -199 64 -199 166c0 95 84 164 205 164c68 0 117 -16 153 -36v25c0 93 -69 116 -138 116c-58 0 -108 -22 -142 -51l-41 70c43 34 108 62 184 62c73 0 152 -23 190 -99
c50 66 126 99 199 99c140 0 242 -101 244 -279h-407c11 -97 85 -156 169 -156c63 0 114 28 146 60zM639 429c-62 0 -133 -40 -153 -125h305c-12 82 -76 126 -152 125zM237 73c74 0 129 33 155 77v56c-34 26 -80 43 -146 43s-123 -29 -123 -91c0 -61 55 -85 114 -85z" />
    <glyph glyph-name="ccedilla" unicode="&#xe7;" horiz-adv-x="517" 
d="M176 -165l90 159c-132 15 -225 123 -225 256c0 144 109 258 257 258c83 0 147 -34 191 -79l-55 -60c-32 32 -77 58 -136 58c-98 0 -168 -78 -168 -177s70 -177 168 -177c59 0 104 26 136 58l55 -60c-39 -40 -94 -71 -163 -78l-52 -158h-98z" />
    <glyph glyph-name="egrave" unicode="&#xe8;" horiz-adv-x="569" 
d="M269 550l-123 160h109l85 -160h-71zM298 -8c-148 0 -257 114 -257 258c0 145 111 258 251 258c150 0 244 -115 244 -279h-406c9 -96 83 -156 168 -156c63 0 114 28 146 60l55 -60c-43 -45 -114 -81 -201 -81zM287 429c-62 0 -132 -37 -152 -125h304
c-12 82 -76 126 -152 125z" />
    <glyph glyph-name="eacute" unicode="&#xe9;" horiz-adv-x="569" 
d="M321 550h-71l85 160h109zM298 -8c-148 0 -257 114 -257 258c0 145 111 258 251 258c150 0 244 -115 244 -279h-406c9 -96 83 -156 168 -156c63 0 114 28 146 60l55 -60c-43 -45 -114 -81 -201 -81zM287 429c-62 0 -132 -37 -152 -125h304c-12 82 -76 126 -152 125z" />
    <glyph glyph-name="ecircumflex" unicode="&#xea;" horiz-adv-x="569" 
d="M292 718l161 -109l-38 -55l-123 83l-123 -83l-38 55zM298 -8c-148 0 -257 114 -257 258c0 145 111 258 251 258c150 0 244 -115 244 -279h-406c9 -96 83 -156 168 -156c63 0 114 28 146 60l55 -60c-43 -45 -114 -81 -201 -81zM287 429c-62 0 -132 -37 -152 -125h304
c-12 82 -76 126 -152 125z" />
    <glyph glyph-name="edieresis" unicode="&#xeb;" horiz-adv-x="569" 
d="M406 571c-33 0 -61 25 -61 60c0 33 27 59 61 59c33 0 60 -26 60 -59c0 -36 -29 -60 -60 -60zM181 571c-33 0 -61 25 -61 60c0 33 27 59 61 59c33 0 60 -26 60 -59c0 -36 -29 -60 -60 -60zM298 -8c-148 0 -257 114 -257 258c0 145 111 258 251 258
c150 0 244 -115 244 -279h-406c9 -96 83 -156 168 -156c63 0 114 28 146 60l55 -60c-43 -45 -114 -81 -201 -81zM287 429c-62 0 -132 -37 -152 -125h304c-12 82 -76 126 -152 125z" />
    <glyph glyph-name="igrave" unicode="&#xec;" horiz-adv-x="236" 
d="M95 550l-123 160h109l85 -160h-71zM75 0v500h86v-500h-86z" />
    <glyph glyph-name="iacute" unicode="&#xed;" horiz-adv-x="236" 
d="M147 550h-71l85 160h109zM75 0v500h86v-500h-86z" />
    <glyph glyph-name="icircumflex" unicode="&#xee;" horiz-adv-x="236" 
d="M118 718l161 -109l-38 -55l-123 83l-123 -83l-38 55zM75 0v500h86v-500h-86z" />
    <glyph glyph-name="idieresis" unicode="&#xef;" horiz-adv-x="236" 
d="M17 571c-33 0 -61 25 -61 60c0 32 27 59 61 59c33 0 60 -27 60 -59c0 -35 -28 -60 -60 -60zM220 571c-33 0 -61 25 -61 60c0 32 27 59 61 59c33 0 60 -27 60 -59c0 -35 -28 -60 -60 -60zM75 0v500h86v-500h-86z" />
    <glyph glyph-name="eth" unicode="&#xf0;" horiz-adv-x="602" 
d="M175 563v65h86l-56 82h94l57 -82h124v-65h-80l106 -153c40 -59 54 -108 54 -160c0 -142 -110 -258 -260 -258s-259 116 -259 258c0 139 105 254 251 258c16 0 32 -2 57 -8l-43 63h-131zM300 71c104 0 172 80 172 179s-68 179 -172 179c-102 0 -172 -80 -172 -179
s70 -179 172 -179z" />
    <glyph glyph-name="ntilde" unicode="&#xf1;" horiz-adv-x="578" 
d="M138 566l3 19c12 60 57 94 103 94c56 0 93 -44 126 -44c28 0 41 15 48 44h66l-3 -18c-11 -56 -53 -94 -103 -94c-56 0 -94 44 -128 44c-26 0 -39 -15 -46 -45h-66zM75 0v500h86v-57c38 48 97 65 155 65c113 0 193 -79 193 -203v-305h-86v300c0 73 -48 127 -126 127
c-70 0 -118 -39 -136 -104v-323h-86z" />
    <glyph glyph-name="ograve" unicode="&#xf2;" horiz-adv-x="602" 
d="M278 550l-123 160h109l85 -160h-71zM301 -8c-151 0 -260 114 -260 258s109 258 260 258c150 0 259 -114 259 -258s-109 -258 -259 -258zM301 73c102 0 170 78 170 177s-68 177 -170 177s-171 -78 -171 -177s69 -177 171 -177z" />
    <glyph glyph-name="oacute" unicode="&#xf3;" horiz-adv-x="602" 
d="M330 550h-71l85 160h109zM301 -8c-151 0 -260 114 -260 258s109 258 260 258c150 0 259 -114 259 -258s-109 -258 -259 -258zM301 73c102 0 170 78 170 177s-68 177 -170 177s-171 -78 -171 -177s69 -177 171 -177z" />
    <glyph glyph-name="ocircumflex" unicode="&#xf4;" horiz-adv-x="602" 
d="M301 718l161 -109l-38 -55l-123 83l-123 -83l-38 55zM301 -8c-151 0 -260 114 -260 258s109 258 260 258c150 0 259 -114 259 -258s-109 -258 -259 -258zM301 73c102 0 170 78 170 177s-68 177 -170 177s-171 -78 -171 -177s69 -177 171 -177z" />
    <glyph glyph-name="otilde" unicode="&#xf5;" horiz-adv-x="602" 
d="M129 566l3 19c12 60 57 94 103 94c56 0 93 -44 126 -44c28 0 41 15 48 44h66l-3 -18c-11 -56 -53 -94 -103 -94c-56 0 -94 44 -128 44c-26 0 -39 -15 -46 -45h-66zM301 -8c-151 0 -260 114 -260 258s109 258 260 258c150 0 259 -114 259 -258s-109 -258 -259 -258z
M301 73c102 0 170 78 170 177s-68 177 -170 177s-171 -78 -171 -177s69 -177 171 -177z" />
    <glyph glyph-name="odieresis" unicode="&#xf6;" horiz-adv-x="602" 
d="M415 571c-33 0 -61 25 -61 60c0 33 27 59 61 59c33 0 60 -26 60 -59c0 -36 -29 -60 -60 -60zM190 571c-33 0 -61 25 -61 60c0 33 27 59 61 59c33 0 60 -26 60 -59c0 -36 -29 -60 -60 -60zM301 -8c-151 0 -260 114 -260 258s109 258 260 258c150 0 259 -114 259 -258
s-109 -258 -259 -258zM301 73c102 0 170 78 170 177s-68 177 -170 177s-171 -78 -171 -177s69 -177 171 -177z" />
    <glyph glyph-name="divide" unicode="&#xf7;" horiz-adv-x="590" 
d="M296 348c-35 0 -68 27 -68 67c0 37 30 66 68 66c37 0 66 -29 66 -66c0 -39 -30 -67 -66 -67zM76 240v70h438v-70h-438zM296 68c-35 0 -68 27 -68 67c0 37 30 66 68 66c37 0 66 -29 66 -66c0 -39 -30 -67 -66 -67z" />
    <glyph glyph-name="oslash" unicode="&#xf8;" horiz-adv-x="607" 
d="M93 -57l-54 45l72 86c-42 46 -67 108 -67 176c0 144 109 258 260 258c51 0 98 -13 137 -37l74 89l54 -45l-73 -88c42 -46 67 -108 67 -177c0 -144 -109 -258 -259 -258c-52 0 -100 14 -139 38zM133 250c0 -41 12 -79 33 -109l221 266c-24 13 -52 20 -83 20
c-102 0 -171 -78 -171 -177zM304 73c102 0 170 78 170 177c0 42 -12 80 -34 110l-221 -266c24 -13 53 -21 85 -21z" />
    <glyph glyph-name="ugrave" unicode="&#xf9;" horiz-adv-x="577" 
d="M262 550l-123 160h109l85 -160h-71zM416 0v56c-39 -48 -96 -64 -154 -64c-114 0 -193 79 -193 203v305h86v-300c0 -73 48 -127 125 -127c69 0 116 37 136 100v327h86v-500h-86z" />
    <glyph glyph-name="uacute" unicode="&#xfa;" horiz-adv-x="577" 
d="M314 550h-71l85 160h109zM416 0v56c-39 -48 -96 -64 -154 -64c-114 0 -193 79 -193 203v305h86v-300c0 -73 48 -127 125 -127c69 0 116 37 136 100v327h86v-500h-86z" />
    <glyph glyph-name="ucircumflex" unicode="&#xfb;" horiz-adv-x="577" 
d="M285 718l161 -109l-38 -55l-123 83l-123 -83l-38 55zM416 0v56c-39 -48 -96 -64 -154 -64c-114 0 -193 79 -193 203v305h86v-300c0 -73 48 -127 125 -127c69 0 116 37 136 100v327h86v-500h-86z" />
    <glyph glyph-name="udieresis" unicode="&#xfc;" horiz-adv-x="577" 
d="M399 571c-33 0 -61 25 -61 60c0 33 27 59 61 59c33 0 60 -26 60 -59c0 -36 -29 -60 -60 -60zM174 571c-33 0 -61 25 -61 60c0 33 27 59 61 59c33 0 60 -26 60 -59c0 -36 -29 -60 -60 -60zM416 0v56c-39 -48 -96 -64 -154 -64c-114 0 -193 79 -193 203v305h86v-300
c0 -73 48 -127 125 -127c69 0 116 37 136 100v327h86v-500h-86z" />
    <glyph glyph-name="yacute" unicode="&#xfd;" horiz-adv-x="507" 
d="M286 550h-71l85 160h109zM107 -184l103 226l-204 458h93l156 -364l157 364h93l-307 -684h-91z" />
    <glyph glyph-name="thorn" unicode="&#xfe;" horiz-adv-x="617" 
d="M161 -184h-86v894h86v-260c41 38 97 58 159 58c147 0 255 -113 255 -258s-108 -258 -255 -258c-62 0 -118 20 -159 58v-234zM318 427c-72 0 -129 -34 -157 -81v-192c28 -47 85 -81 157 -81c98 0 168 78 168 177s-70 177 -168 177z" />
    <glyph glyph-name="ydieresis" unicode="&#xff;" horiz-adv-x="507" 
d="M371 571c-33 0 -61 25 -61 60c0 33 27 59 61 59c33 0 60 -26 60 -59c0 -36 -29 -60 -60 -60zM146 571c-33 0 -61 25 -61 60c0 33 27 59 61 59c33 0 60 -26 60 -59c0 -36 -29 -60 -60 -60zM107 -184l103 226l-204 458h93l156 -364l157 364h93l-307 -684h-91z" />
    <glyph glyph-name="Abreve" unicode="&#x102;" horiz-adv-x="678" 
d="M338 772c-93 0 -152 62 -156 137h64c3 -41 36 -79 93 -79s91 38 94 79h64c-5 -75 -64 -137 -159 -137zM-7 0l346 718l346 -718h-98l-88 186h-320l-88 -186h-98zM219 270h240l-120 254z" />
    <glyph glyph-name="Amacron" unicode="&#x100;" horiz-adv-x="678" 
d="M193 803v65h292v-65h-292zM-7 0l346 718l346 -718h-98l-88 186h-320l-88 -186h-98zM219 270h240l-120 254z" />
    <glyph glyph-name="Aogonek" unicode="&#x104;" horiz-adv-x="678" 
d="M-7 0l346 718l346 -718c-54 -24 -82 -56 -82 -86c0 -25 17 -41 50 -41c14 0 25 4 33 7v-59c-18 -10 -39 -13 -62 -13c-55 0 -109 29 -109 86c0 49 39 88 72 106l-88 186h-320l-88 -186h-98zM219 270h240l-120 254z" />
    <glyph glyph-name="Cacute" unicode="&#x106;" horiz-adv-x="722" 
d="M447 768h-73l77 145h109zM409 -8c-203 0 -363 157 -363 363s160 363 363 363c125 0 230 -61 284 -135l-65 -57c-47 63 -125 105 -219 105c-155 0 -270 -120 -270 -276s115 -276 270 -276c94 0 172 42 219 105l65 -57c-54 -74 -159 -135 -284 -135z" />
    <glyph glyph-name="Ccaron" unicode="&#x10c;" horiz-adv-x="722" 
d="M547 926l35 -60l-173 -100l-173 100l35 60l138 -82zM409 -8c-203 0 -363 157 -363 363s160 363 363 363c125 0 230 -61 284 -135l-65 -57c-47 63 -125 105 -219 105c-155 0 -270 -120 -270 -276s115 -276 270 -276c94 0 172 42 219 105l65 -57
c-54 -74 -159 -135 -284 -135z" />
    <glyph glyph-name="Ccircumflex" unicode="&#x108;" horiz-adv-x="722" 
d="M271 766l-35 60l173 100l173 -100l-35 -60l-138 82zM409 -8c-203 0 -363 157 -363 363s160 363 363 363c125 0 230 -61 284 -135l-65 -57c-47 63 -125 105 -219 105c-155 0 -270 -120 -270 -276s115 -276 270 -276c94 0 172 42 219 105l65 -57
c-54 -74 -159 -135 -284 -135z" />
    <glyph glyph-name="Cdotaccent" unicode="&#x10a;" horiz-adv-x="722" 
d="M409 785c-32 0 -61 24 -61 60c0 33 27 59 61 59c33 0 59 -26 59 -59c0 -35 -27 -60 -59 -60zM409 -8c-203 0 -363 157 -363 363s160 363 363 363c125 0 230 -61 284 -135l-65 -57c-47 63 -125 105 -219 105c-155 0 -270 -120 -270 -276s115 -276 270 -276
c94 0 172 42 219 105l65 -57c-54 -74 -159 -135 -284 -135z" />
    <glyph glyph-name="Dcaron" unicode="&#x10e;" horiz-adv-x="731" 
d="M476 926l35 -60l-173 -100l-173 100l35 60l138 -82zM95 0v710h211c219 0 379 -152 379 -355s-160 -355 -379 -355h-211zM186 85h120c172 0 286 115 286 270s-114 270 -286 270h-120v-540z" />
    <glyph glyph-name="Dcroat" unicode="&#x110;" horiz-adv-x="765" 
d="M129 0v319h-121v74h121v317h211c219 0 379 -152 379 -355s-160 -355 -379 -355h-211zM220 85h120c172 0 286 115 286 270s-114 270 -286 270h-120v-232h121v-74h-121v-234z" />
    <glyph glyph-name="Ebreve" unicode="&#x114;" horiz-adv-x="555" 
d="M306 772c-93 0 -152 62 -156 137h64c3 -41 36 -79 93 -79s91 38 94 79h64c-5 -75 -64 -137 -159 -137zM95 0v710h410v-88h-319v-215h259v-88h-259v-231h319v-88h-410z" />
    <glyph glyph-name="Ecaron" unicode="&#x11a;" horiz-adv-x="555" 
d="M445 926l35 -60l-173 -100l-173 100l35 60l138 -82zM95 0v710h410v-88h-319v-215h259v-88h-259v-231h319v-88h-410z" />
    <glyph glyph-name="Emacron" unicode="&#x112;" horiz-adv-x="555" 
d="M161 803v65h292v-65h-292zM95 0v710h410v-88h-319v-215h259v-88h-259v-231h319v-88h-410z" />
    <glyph glyph-name="Eogonek" unicode="&#x118;" horiz-adv-x="555" 
d="M95 0v710h410v-88h-319v-215h259v-88h-259v-231h319v-88c-54 -24 -82 -56 -82 -86c0 -25 17 -41 50 -41c14 0 25 4 33 7v-59c-18 -10 -39 -13 -62 -13c-55 0 -109 29 -109 86c0 49 43 90 79 106h-319z" />
    <glyph glyph-name="Edotaccent" unicode="&#x116;" horiz-adv-x="555" 
d="M307 785c-32 0 -61 24 -61 60c0 33 27 59 61 59c33 0 59 -26 59 -59c0 -35 -27 -60 -59 -60zM95 0v710h410v-88h-319v-215h259v-88h-259v-231h319v-88h-410z" />
    <glyph glyph-name="Gbreve" unicode="&#x11e;" horiz-adv-x="742" 
d="M388 772c-93 0 -152 62 -156 137h64c3 -41 36 -79 93 -79s91 38 94 79h64c-5 -75 -64 -137 -159 -137zM409 -8c-203 0 -363 157 -363 363s160 363 363 363c110 0 212 -49 268 -115l-65 -58c-48 52 -117 86 -203 86c-155 0 -270 -120 -270 -276s115 -276 270 -276
c79 0 144 24 181 53v187h-218l39 88h270v-317c-43 -50 -149 -98 -272 -98z" />
    <glyph glyph-name="Gcircumflex" unicode="&#x11c;" horiz-adv-x="742" 
d="M251 766l-35 60l173 100l173 -100l-35 -60l-138 82zM409 -8c-203 0 -363 157 -363 363s160 363 363 363c110 0 212 -49 268 -115l-65 -58c-48 52 -117 86 -203 86c-155 0 -270 -120 -270 -276s115 -276 270 -276c79 0 144 24 181 53v187h-218l39 88h270v-317
c-43 -50 -149 -98 -272 -98z" />
    <glyph glyph-name="Gcommaaccent" unicode="&#x122;" horiz-adv-x="742" 
d="M409 -8c-203 0 -363 157 -363 363s160 363 363 363c110 0 212 -49 268 -115l-65 -58c-48 52 -117 86 -203 86c-155 0 -270 -120 -270 -276s115 -276 270 -276c79 0 144 24 181 53v187h-218l39 88h270v-317c-43 -50 -149 -98 -272 -98zM283 -215l69 165h100l-104 -165h-65
z" />
    <glyph glyph-name="Gdotaccent" unicode="&#x120;" horiz-adv-x="742" 
d="M389 785c-32 0 -61 24 -61 60c0 33 27 59 61 59c33 0 59 -26 59 -59c0 -35 -27 -60 -59 -60zM409 -8c-203 0 -363 157 -363 363s160 363 363 363c110 0 212 -49 268 -115l-65 -58c-48 52 -117 86 -203 86c-155 0 -270 -120 -270 -276s115 -276 270 -276
c79 0 144 24 181 53v187h-218l39 88h270v-317c-43 -50 -149 -98 -272 -98z" />
    <glyph glyph-name="Hbar" unicode="&#x126;" horiz-adv-x="768" 
d="M97 0v522h-63v74h63v114h91v-114h392v114h91v-114h63v-74h-63v-522h-91v319h-392v-319h-91zM188 407h392v115h-392v-115z" />
    <glyph glyph-name="Hcircumflex" unicode="&#x124;" horiz-adv-x="764" 
d="M244 766l-35 60l173 100l173 -100l-35 -60l-138 82zM95 0v710h91v-303h392v303h91v-710h-91v319h-392v-319h-91z" />
    <glyph glyph-name="Ibreve" unicode="&#x12c;" horiz-adv-x="281" 
d="M139 772c-93 0 -152 62 -156 137h64c3 -41 36 -79 93 -79s91 38 94 79h64c-5 -75 -64 -137 -159 -137zM95 0v710h91v-710h-91z" />
    <glyph glyph-name="Idotaccent" unicode="&#x130;" horiz-adv-x="281" 
d="M140 785c-32 0 -61 24 -61 60c0 33 27 59 61 59c33 0 59 -26 59 -59c0 -35 -27 -60 -59 -60zM95 0v710h91v-710h-91z" />
    <glyph glyph-name="Imacron" unicode="&#x12a;" horiz-adv-x="281" 
d="M-6 803v65h292v-65h-292zM95 0v710h91v-710h-91z" />
    <glyph glyph-name="Iogonek" unicode="&#x12e;" horiz-adv-x="281" 
d="M125 -192c-55 0 -109 29 -109 86c0 49 43 90 79 106v710h91v-710c-54 -24 -82 -56 -82 -86c0 -25 17 -41 50 -41c14 0 25 4 33 7v-59c-18 -10 -39 -13 -62 -13z" />
    <glyph glyph-name="Itilde" unicode="&#x128;" horiz-adv-x="281" 
d="M-33 784l3 19c12 60 57 94 103 94c56 0 93 -44 126 -44c28 0 41 15 48 44h66l-3 -18c-11 -56 -53 -94 -103 -94c-56 0 -94 44 -128 44c-26 0 -39 -15 -46 -45h-66zM95 0v710h91v-710h-91z" />
    <glyph glyph-name="uni1ECA" unicode="&#x1eca;" horiz-adv-x="281" 
d="M95 0v710h91v-710h-91zM141 -190c-32 0 -61 24 -61 60c0 33 27 59 61 59c33 0 59 -26 59 -59c0 -35 -27 -60 -59 -60z" />
    <glyph glyph-name="Jcircumflex" unicode="&#x134;" horiz-adv-x="523" 
d="M251 766l-35 60l173 100l173 -100l-35 -60l-138 82zM228 -8c-114 0 -207 73 -207 206h91c0 -81 52 -119 115 -119c67 0 117 38 117 119v512h91v-518c0 -133 -96 -200 -207 -200z" />
    <glyph glyph-name="Kcommaaccent" unicode="&#x136;" horiz-adv-x="641" 
d="M95 0v710h91v-356l324 356h112l-328 -361l355 -349h-121l-342 337v-337h-91zM229 -215l69 165h100l-104 -165h-65z" />
    <glyph glyph-name="Lacute" unicode="&#x139;" horiz-adv-x="515" 
d="M180 768h-73l77 145h109zM95 0v710h91v-621h311v-89h-402z" />
    <glyph glyph-name="Lcaron" unicode="&#x13d;" horiz-adv-x="516" 
d="M95 0v710h91v-621h311v-89h-402zM265 545l25 165h87l-51 -165h-61z" />
    <glyph glyph-name="Lcommaaccent" unicode="&#x13b;" horiz-adv-x="515" 
d="M95 0v710h91v-621h311v-89h-402zM172 -215l69 165h100l-104 -165h-65z" />
    <glyph glyph-name="Ldot" unicode="&#x13f;" horiz-adv-x="521" 
d="M95 0v710h91v-621h311v-89h-402zM391 319c-32 0 -61 24 -61 60c0 33 27 59 61 59c33 0 59 -26 59 -59c0 -35 -27 -60 -59 -60z" />
    <glyph glyph-name="L_periodcentered" horiz-adv-x="521" 
d="M95 0v710h91v-621h311v-89h-402zM391 319c-32 0 -61 24 -61 60c0 33 27 59 61 59c33 0 59 -26 59 -59c0 -35 -27 -60 -59 -60z" />
    <glyph glyph-name="Lslash" unicode="&#x141;" horiz-adv-x="600" 
d="M179 0v295l-127 -83l-42 63l169 110v325h91v-265l126 82l42 -63l-168 -110v-265h311v-89h-402z" />
    <glyph glyph-name="Eng" unicode="&#x14a;" horiz-adv-x="787" 
d="M495 -184v75h17c59 0 89 29 89 85v108l-415 421v-505h-91v718l506 -513v505h91v-739c0 -100 -55 -155 -156 -155h-41z" />
    <glyph glyph-name="Nacute" unicode="&#x143;" horiz-adv-x="787" 
d="M426 768h-73l77 145h109zM692 -8l-506 513v-505h-91v718l506 -513v505h91v-718z" />
    <glyph glyph-name="Ncaron" unicode="&#x147;" horiz-adv-x="787" 
d="M526 926l35 -60l-173 -100l-173 100l35 60l138 -82zM692 -8l-506 513v-505h-91v718l506 -513v505h91v-718z" />
    <glyph glyph-name="Ncommaaccent" unicode="&#x145;" horiz-adv-x="787" 
d="M692 -8l-506 513v-505h-91v718l506 -513v505h91v-718zM300 -215l69 165h100l-104 -165h-65z" />
    <glyph glyph-name="OE" unicode="&#x152;" horiz-adv-x="1077" 
d="M409 -8c-203 0 -363 157 -363 363s160 363 363 363c77 0 149 -23 207 -63v55h411v-88h-324v-51c34 -47 57 -102 66 -164h197v-88h-196c-6 -68 -30 -129 -67 -180v-51h324v-88h-411v55c-58 -40 -130 -63 -207 -63zM409 79c155 0 270 120 270 276s-115 276 -270 276
s-270 -120 -270 -276s115 -276 270 -276z" />
    <glyph glyph-name="Obreve" unicode="&#x14e;" horiz-adv-x="818" 
d="M409 771c-93 0 -152 62 -156 137h64c3 -41 36 -79 93 -79s91 38 94 79h64c-5 -75 -64 -137 -159 -137zM409 -8c-203 0 -363 157 -363 363s160 363 363 363s363 -157 363 -363s-160 -363 -363 -363zM409 79c155 0 270 120 270 276s-115 276 -270 276s-270 -120 -270 -276
s115 -276 270 -276z" />
    <glyph glyph-name="Ohungarumlaut" unicode="&#x150;" horiz-adv-x="818" 
d="M282 767l77 145h104l-113 -145h-68zM482 767l77 145h104l-113 -145h-68zM409 -8c-203 0 -363 157 -363 363s160 363 363 363s363 -157 363 -363s-160 -363 -363 -363zM409 79c155 0 270 120 270 276s-115 276 -270 276s-270 -120 -270 -276s115 -276 270 -276z" />
    <glyph glyph-name="Omacron" unicode="&#x14c;" horiz-adv-x="818" 
d="M264 802v65h292v-65h-292zM409 -8c-203 0 -363 157 -363 363s160 363 363 363s363 -157 363 -363s-160 -363 -363 -363zM409 79c155 0 270 120 270 276s-115 276 -270 276s-270 -120 -270 -276s115 -276 270 -276z" />
    <glyph glyph-name="uni1ECC" unicode="&#x1ecc;" horiz-adv-x="818" 
d="M409 -8c-203 0 -363 157 -363 363s160 363 363 363s363 -157 363 -363s-160 -363 -363 -363zM409 79c155 0 270 120 270 276s-115 276 -270 276s-270 -120 -270 -276s115 -276 270 -276zM410 -190c-32 0 -61 24 -61 60c0 33 27 59 61 59c33 0 59 -26 59 -59
c0 -35 -27 -60 -59 -60z" />
    <glyph glyph-name="Racute" unicode="&#x154;" horiz-adv-x="619" 
d="M338 768h-73l77 145h109zM95 0v710h211c139 0 228 -79 228 -200c0 -83 -45 -170 -169 -194l246 -316h-110l-237 310h-78v-310h-91zM186 391h114c93 0 140 44 140 117c0 74 -47 118 -140 118h-114v-235z" />
    <glyph glyph-name="Rcaron" unicode="&#x158;" horiz-adv-x="619" 
d="M438 926l35 -60l-173 -100l-173 100l35 60l138 -82zM95 0v710h211c139 0 228 -79 228 -200c0 -83 -45 -170 -169 -194l246 -316h-110l-237 310h-78v-310h-91zM186 391h114c93 0 140 44 140 117c0 74 -47 118 -140 118h-114v-235z" />
    <glyph glyph-name="Rcommaaccent" unicode="&#x156;" horiz-adv-x="619" 
d="M95 0v710h211c139 0 228 -79 228 -200c0 -83 -45 -170 -169 -194l246 -316h-110l-237 310h-78v-310h-91zM186 391h114c93 0 140 44 140 117c0 74 -47 118 -140 118h-114v-235zM213 -215l69 165h100l-104 -165h-65z" />
    <glyph glyph-name="Sacute" unicode="&#x15a;" horiz-adv-x="528" 
d="M305 768h-73l77 145h109zM263 -8c-103 0 -189 50 -231 110l69 60c34 -44 92 -83 161 -83c82 0 134 38 134 100c0 65 -40 99 -116 132l-65 28c-108 46 -155 112 -155 201c0 108 102 178 207 178c83 0 151 -33 199 -91l-64 -64c-37 44 -76 68 -138 68
c-60 0 -113 -34 -113 -93c0 -52 30 -87 105 -120l65 -28c96 -42 167 -101 167 -201c0 -116 -86 -197 -225 -197z" />
    <glyph glyph-name="Scaron" unicode="&#x160;" horiz-adv-x="528" 
d="M405 926l35 -60l-173 -100l-173 100l35 60l138 -82zM263 -8c-103 0 -189 50 -231 110l69 60c34 -44 92 -83 161 -83c82 0 134 38 134 100c0 65 -40 99 -116 132l-65 28c-108 46 -155 112 -155 201c0 108 102 178 207 178c83 0 151 -33 199 -91l-64 -64
c-37 44 -76 68 -138 68c-60 0 -113 -34 -113 -93c0 -52 30 -87 105 -120l65 -28c96 -42 167 -101 167 -201c0 -116 -86 -197 -225 -197z" />
    <glyph glyph-name="Scedilla" unicode="&#x15e;" horiz-adv-x="528" 
d="M179 -165l89 157h-5c-103 0 -189 50 -231 110l69 60c34 -44 92 -83 161 -83c82 0 134 38 134 100c0 65 -40 99 -116 132l-65 28c-108 46 -155 112 -155 201c0 108 102 178 207 178c83 0 151 -33 199 -91l-64 -64c-37 44 -76 68 -138 68c-60 0 -113 -34 -113 -93
c0 -52 30 -87 105 -120l65 -28c96 -42 167 -101 167 -201c0 -96 -59 -168 -157 -190l-54 -164h-98z" />
    <glyph glyph-name="Scircumflex" unicode="&#x15c;" horiz-adv-x="528" 
d="M129 766l-35 60l173 100l173 -100l-35 -60l-138 82zM263 -8c-103 0 -189 50 -231 110l69 60c34 -44 92 -83 161 -83c82 0 134 38 134 100c0 65 -40 99 -116 132l-65 28c-108 46 -155 112 -155 201c0 108 102 178 207 178c83 0 151 -33 199 -91l-64 -64
c-37 44 -76 68 -138 68c-60 0 -113 -34 -113 -93c0 -52 30 -87 105 -120l65 -28c96 -42 167 -101 167 -201c0 -116 -86 -197 -225 -197z" />
    <glyph glyph-name="Scommaaccent" unicode="&#x218;" horiz-adv-x="528" 
d="M263 -8c-103 0 -189 50 -231 110l69 60c34 -44 92 -83 161 -83c82 0 134 38 134 100c0 65 -40 99 -116 132l-65 28c-108 46 -155 112 -155 201c0 108 102 178 207 178c83 0 151 -33 199 -91l-64 -64c-37 44 -76 68 -138 68c-60 0 -113 -34 -113 -93
c0 -52 30 -87 105 -120l65 -28c96 -42 167 -101 167 -201c0 -116 -86 -197 -225 -197zM137 -215l69 165h100l-104 -165h-65z" />
    <glyph glyph-name="Tbar" unicode="&#x166;" horiz-adv-x="560" 
d="M234 0v338h-155v74h155v210h-201v88h494v-88h-202v-210h157v-74h-157v-338h-91z" />
    <glyph glyph-name="Tcaron" unicode="&#x164;" horiz-adv-x="526" 
d="M400 926l35 -60l-173 -100l-173 100l35 60l138 -82zM217 0v622h-201v88h494v-88h-202v-622h-91z" />
    <glyph glyph-name="uni0162" unicode="&#x162;" horiz-adv-x="526" 
d="M217 0v622h-201v88h494v-88h-202v-622h-91zM140 -215l69 165h100l-104 -165h-65z" />
    <glyph glyph-name="Tcommaaccent" unicode="&#x21a;" horiz-adv-x="526" 
d="M217 0v622h-201v88h494v-88h-202v-622h-91zM140 -215l69 165h100l-104 -165h-65z" />
    <glyph glyph-name="Ubreve" unicode="&#x16c;" horiz-adv-x="738" 
d="M366 772c-93 0 -152 62 -156 137h64c3 -41 36 -79 93 -79s91 38 94 79h64c-5 -75 -64 -137 -159 -137zM369 -8c-165 0 -283 104 -283 278v440h91v-444c0 -123 78 -187 192 -187s192 64 192 187v444h91v-440c0 -174 -117 -278 -283 -278z" />
    <glyph glyph-name="Uhungarumlaut" unicode="&#x170;" horiz-adv-x="738" 
d="M239 768l77 145h104l-113 -145h-68zM439 768l77 145h104l-113 -145h-68zM369 -8c-165 0 -283 104 -283 278v440h91v-444c0 -123 78 -187 192 -187s192 64 192 187v444h91v-440c0 -174 -117 -278 -283 -278z" />
    <glyph glyph-name="Umacron" unicode="&#x16a;" horiz-adv-x="738" 
d="M221 803v65h292v-65h-292zM369 -8c-165 0 -283 104 -283 278v440h91v-444c0 -123 78 -187 192 -187s192 64 192 187v444h91v-440c0 -174 -117 -278 -283 -278z" />
    <glyph glyph-name="Uogonek" unicode="&#x172;" horiz-adv-x="738" 
d="M378 -192c-55 0 -109 29 -109 86c0 43 34 80 66 100c-147 13 -249 114 -249 276v440h91v-444c0 -123 78 -187 192 -187s192 64 192 187v444h91v-440c0 -150 -87 -248 -218 -272c-51 -24 -77 -55 -77 -84c0 -25 17 -41 50 -41c14 0 25 4 33 7v-59c-18 -10 -39 -13 -62 -13
z" />
    <glyph glyph-name="Uring" unicode="&#x16e;" horiz-adv-x="738" 
d="M367 751c-55 0 -99 41 -99 94c0 55 45 95 99 95s99 -40 99 -95c0 -53 -44 -94 -99 -94zM367 798c26 0 48 19 48 47c0 29 -22 48 -48 48s-48 -19 -48 -48c0 -28 22 -47 48 -47zM369 -8c-165 0 -283 104 -283 278v440h91v-444c0 -123 78 -187 192 -187s192 64 192 187v444
h91v-440c0 -174 -117 -278 -283 -278z" />
    <glyph glyph-name="Utilde" unicode="&#x168;" horiz-adv-x="738" 
d="M194 784l3 19c12 60 57 94 103 94c56 0 93 -44 126 -44c28 0 41 15 48 44h66l-3 -18c-11 -56 -53 -94 -103 -94c-56 0 -94 44 -128 44c-26 0 -39 -15 -46 -45h-66zM369 -8c-165 0 -283 104 -283 278v440h91v-444c0 -123 78 -187 192 -187s192 64 192 187v444h91v-440
c0 -174 -117 -278 -283 -278z" />
    <glyph glyph-name="uni1EE4" unicode="&#x1ee4;" horiz-adv-x="738" 
d="M369 -8c-165 0 -283 104 -283 278v440h91v-444c0 -123 78 -187 192 -187s192 64 192 187v444h91v-440c0 -174 -117 -278 -283 -278zM370 -190c-32 0 -61 24 -61 60c0 33 27 59 61 59c33 0 59 -26 59 -59c0 -35 -27 -60 -59 -60z" />
    <glyph glyph-name="Wacute" unicode="&#x1e82;" horiz-adv-x="889" 
d="M482 768h-73l77 145h109zM252 -8l-244 718h94l157 -474l185 482l186 -482l157 474h94l-244 -718l-193 500z" />
    <glyph glyph-name="Wcircumflex" unicode="&#x174;" horiz-adv-x="889" 
d="M306 766l-35 60l173 100l173 -100l-35 -60l-138 82zM252 -8l-244 718h94l157 -474l185 482l186 -482l157 474h94l-244 -718l-193 500z" />
    <glyph glyph-name="Wdieresis" unicode="&#x1e84;" horiz-adv-x="889" 
d="M558 785c-33 0 -61 25 -61 60c0 33 27 59 61 59c33 0 60 -26 60 -59c0 -36 -29 -60 -60 -60zM333 785c-33 0 -61 25 -61 60c0 33 27 59 61 59c33 0 60 -26 60 -59c0 -36 -29 -60 -60 -60zM252 -8l-244 718h94l157 -474l185 482l186 -482l157 474h94l-244 -718l-193 500z
" />
    <glyph glyph-name="Wgrave" unicode="&#x1e80;" horiz-adv-x="889" 
d="M402 768l-113 145h109l77 -145h-73zM252 -8l-244 718h94l157 -474l185 482l186 -482l157 474h94l-244 -718l-193 500z" />
    <glyph glyph-name="Ycircumflex" unicode="&#x176;" horiz-adv-x="628" 
d="M177 766l-35 60l173 100l173 -100l-35 -60l-138 82zM268 0v301l-260 409h106l200 -319l200 319h106l-260 -409v-301h-92z" />
    <glyph glyph-name="Ydieresis" unicode="&#x178;" horiz-adv-x="628" 
d="M429 785c-33 0 -61 25 -61 60c0 33 27 59 61 59c33 0 60 -26 60 -59c0 -36 -29 -60 -60 -60zM204 785c-33 0 -61 25 -61 60c0 33 27 59 61 59c33 0 60 -26 60 -59c0 -36 -29 -60 -60 -60zM268 0v301l-260 409h106l200 -319l200 319h106l-260 -409v-301h-92z" />
    <glyph glyph-name="Ygrave" unicode="&#x1ef2;" horiz-adv-x="628" 
d="M273 768l-113 145h109l77 -145h-73zM268 0v301l-260 409h106l200 -319l200 319h106l-260 -409v-301h-92z" />
    <glyph glyph-name="uni0232" unicode="&#x232;" horiz-adv-x="628" 
d="M169 803v65h292v-65h-292zM268 0v301l-260 409h106l200 -319l200 319h106l-260 -409v-301h-92z" />
    <glyph glyph-name="Zacute" unicode="&#x179;" horiz-adv-x="593" 
d="M347 768h-73l77 145h109zM9 0l395 622h-352v88h508l-395 -622h397v-88h-553z" />
    <glyph glyph-name="Zcaron" unicode="&#x17d;" horiz-adv-x="593" 
d="M447 926l35 -60l-173 -100l-173 100l35 60l138 -82zM9 0l395 622h-352v88h508l-395 -622h397v-88h-553z" />
    <glyph glyph-name="Zdotaccent" unicode="&#x17b;" horiz-adv-x="593" 
d="M309 785c-32 0 -61 24 -61 60c0 33 27 59 61 59c33 0 59 -26 59 -59c0 -35 -27 -60 -59 -60zM9 0l395 622h-352v88h508l-395 -622h397v-88h-553z" />
    <glyph glyph-name="uni1E9E" unicode="&#x1e9e;" horiz-adv-x="634" 
d="M95 0v710h441l-138 -264c121 -19 191 -91 191 -218c0 -150 -106 -228 -255 -228h-37v88h44c90 0 156 47 156 140s-66 140 -156 140h-44v77l94 181h-203v-626h-93z" />
    <glyph glyph-name="uni018F" unicode="&#x18f;" horiz-adv-x="787" 
d="M392 -7c-239 0 -358 182 -354 393h606c-14 140 -122 246 -263 246c-97 0 -169 -39 -229 -91l-59 64c63 65 159 114 288 114c202 0 359 -155 359 -363c0 -202 -153 -363 -348 -363zM392 80c129 0 231 89 251 218h-503c15 -122 100 -218 252 -218z" />
    <glyph glyph-name="abreve" unicode="&#x103;" horiz-adv-x="617" 
d="M313 573c-98 0 -153 60 -158 137h67c3 -41 34 -78 91 -78s88 37 91 78h67c-5 -77 -60 -137 -158 -137zM456 0v50c-42 -38 -98 -58 -159 -58c-147 0 -255 113 -255 258s108 258 255 258c61 0 117 -20 159 -58v50h86v-500h-86zM299 73c72 0 128 34 157 81v192
c-29 47 -85 81 -157 81c-98 0 -168 -78 -168 -177s70 -177 168 -177z" />
    <glyph glyph-name="amacron" unicode="&#x101;" horiz-adv-x="617" 
d="M167 614v65h292v-65h-292zM456 0v50c-42 -38 -98 -58 -159 -58c-147 0 -255 113 -255 258s108 258 255 258c61 0 117 -20 159 -58v50h86v-500h-86zM299 73c72 0 128 34 157 81v192c-29 47 -85 81 -157 81c-98 0 -168 -78 -168 -177s70 -177 168 -177z" />
    <glyph glyph-name="aogonek" unicode="&#x105;" horiz-adv-x="617" 
d="M481 -192c-55 0 -105 29 -105 86c0 49 44 90 80 106v50c-42 -38 -98 -58 -159 -58c-147 0 -255 113 -255 258s108 258 255 258c61 0 117 -20 159 -58v50h86v-500c-54 -24 -82 -56 -82 -86c0 -25 17 -41 50 -41c14 0 25 4 33 7v-59c-18 -10 -39 -13 -62 -13zM299 73
c72 0 128 34 157 81v192c-29 47 -85 81 -157 81c-98 0 -168 -78 -168 -177s70 -177 168 -177z" />
    <glyph glyph-name="cacute" unicode="&#x107;" horiz-adv-x="517" 
d="M327 550h-71l85 160h109zM298 -8c-148 0 -257 114 -257 258s109 258 257 258c83 0 147 -34 191 -79l-55 -60c-32 32 -77 58 -136 58c-98 0 -168 -78 -168 -177s70 -177 168 -177c59 0 104 26 136 58l55 -60c-44 -45 -108 -79 -191 -79z" />
    <glyph glyph-name="ccaron" unicode="&#x10d;" horiz-adv-x="517" 
d="M297 553l-161 109l38 55l123 -83l123 83l38 -55zM298 -8c-148 0 -257 114 -257 258s109 258 257 258c83 0 147 -34 191 -79l-55 -60c-32 32 -77 58 -136 58c-98 0 -168 -78 -168 -177s70 -177 168 -177c59 0 104 26 136 58l55 -60c-44 -45 -108 -79 -191 -79z" />
    <glyph glyph-name="ccircumflex" unicode="&#x109;" horiz-adv-x="517" 
d="M298 718l161 -109l-38 -55l-123 83l-123 -83l-38 55zM298 -8c-148 0 -257 114 -257 258s109 258 257 258c83 0 147 -34 191 -79l-55 -60c-32 32 -77 58 -136 58c-98 0 -168 -78 -168 -177s70 -177 168 -177c59 0 104 26 136 58l55 -60c-44 -45 -108 -79 -191 -79z" />
    <glyph glyph-name="cdotaccent" unicode="&#x10b;" horiz-adv-x="517" 
d="M299 571c-32 0 -61 24 -61 60c0 33 27 59 61 59c33 0 59 -26 59 -59c0 -35 -27 -60 -59 -60zM298 -8c-148 0 -257 114 -257 258s109 258 257 258c83 0 147 -34 191 -79l-55 -60c-32 32 -77 58 -136 58c-98 0 -168 -78 -168 -177s70 -177 168 -177c59 0 104 26 136 58
l55 -60c-44 -45 -108 -79 -191 -79z" />
    <glyph glyph-name="dcaron" unicode="&#x10f;" horiz-adv-x="641" 
d="M542 0h-86v50c-41 -38 -97 -58 -159 -58c-147 0 -255 113 -255 258s108 258 255 258c62 0 118 -20 159 -58v260h86v-710zM603 545l25 165h87l-51 -165h-61zM299 427c-98 0 -168 -78 -168 -177s70 -177 168 -177c72 0 129 34 157 81v192c-28 47 -85 81 -157 81z" />
    <glyph glyph-name="dcroat" unicode="&#x111;" horiz-adv-x="617" 
d="M542 0h-86v50c-41 -38 -97 -58 -159 -58c-147 0 -255 113 -255 258s108 258 255 258c62 0 118 -20 159 -58v123h-171v65h171v72h86v-72h70v-65h-70v-573zM299 427c-98 0 -168 -78 -168 -177s70 -177 168 -177c72 0 129 34 157 81v192c-28 47 -85 81 -157 81z" />
    <glyph glyph-name="ebreve" unicode="&#x115;" horiz-adv-x="569" 
d="M292 573c-98 0 -153 60 -158 137h67c3 -41 34 -78 91 -78s88 37 91 78h67c-5 -77 -60 -137 -158 -137zM298 -8c-148 0 -257 114 -257 258c0 145 111 258 251 258c150 0 244 -115 244 -279h-406c9 -96 83 -156 168 -156c63 0 114 28 146 60l55 -60
c-43 -45 -114 -81 -201 -81zM287 429c-62 0 -132 -37 -152 -125h304c-12 82 -76 126 -152 125z" />
    <glyph glyph-name="ecaron" unicode="&#x11b;" horiz-adv-x="569" 
d="M291 553l-161 109l38 55l123 -83l123 83l38 -55zM298 -8c-148 0 -257 114 -257 258c0 145 111 258 251 258c150 0 244 -115 244 -279h-406c9 -96 83 -156 168 -156c63 0 114 28 146 60l55 -60c-43 -45 -114 -81 -201 -81zM287 429c-62 0 -132 -37 -152 -125h304
c-12 82 -76 126 -152 125z" />
    <glyph glyph-name="emacron" unicode="&#x113;" horiz-adv-x="569" 
d="M146 614v65h292v-65h-292zM298 -8c-148 0 -257 114 -257 258c0 145 111 258 251 258c150 0 244 -115 244 -279h-406c9 -96 83 -156 168 -156c63 0 114 28 146 60l55 -60c-43 -45 -114 -81 -201 -81zM287 429c-62 0 -132 -37 -152 -125h304c-12 82 -76 126 -152 125z" />
    <glyph glyph-name="eogonek" unicode="&#x119;" horiz-adv-x="567" 
d="M491 -179c-18 -10 -39 -13 -62 -13c-61 0 -113 33 -113 95c0 38 16 68 36 93c-17 -3 -33 -4 -54 -4c-148 0 -257 114 -257 258c0 145 111 258 251 258c139 0 243 -103 244 -279h-406c9 -102 90 -156 168 -156c63 0 114 28 146 60l55 -60c-45 -42 -98 -98 -98 -151
c0 -35 24 -49 57 -49c14 0 25 4 33 7v-59zM287 429c-67 0 -134 -43 -152 -125h304c-12 82 -76 125 -152 125z" />
    <glyph glyph-name="edotaccent" unicode="&#x117;" horiz-adv-x="569" 
d="M293 571c-32 0 -61 24 -61 60c0 33 27 59 61 59c33 0 59 -26 59 -59c0 -35 -27 -60 -59 -60zM298 -8c-148 0 -257 114 -257 258c0 145 111 258 251 258c150 0 244 -115 244 -279h-406c9 -96 83 -156 168 -156c63 0 114 28 146 60l55 -60c-43 -45 -114 -81 -201 -81z
M287 429c-62 0 -132 -37 -152 -125h304c-12 82 -76 126 -152 125z" />
    <glyph glyph-name="gbreve" unicode="&#x11f;" horiz-adv-x="611" 
d="M290 573c-98 0 -153 60 -158 137h67c3 -41 34 -78 91 -78s88 37 91 78h67c-5 -77 -60 -137 -158 -137zM291 -194c-72 0 -153 20 -213 59l45 73c42 -31 105 -52 171 -52c87 0 168 32 168 126c0 17 -4 45 -13 63c-40 -39 -95 -60 -159 -60c-148 0 -247 107 -247 246
c0 140 99 247 247 247c63 0 115 -21 156 -59v51h86v-398c13 -34 19 -69 19 -98c0 -144 -132 -198 -260 -198zM292 95c71 0 127 35 154 82v169c-27 47 -83 81 -154 81c-95 0 -160 -71 -160 -166c0 -94 65 -166 160 -166z" />
    <glyph glyph-name="gcircumflex" unicode="&#x11d;" horiz-adv-x="611" 
d="M290 718l161 -109l-38 -55l-123 83l-123 -83l-38 55zM291 -194c-72 0 -153 20 -213 59l45 73c42 -31 105 -52 171 -52c87 0 168 32 168 126c0 17 -4 45 -13 63c-40 -39 -95 -60 -159 -60c-148 0 -247 107 -247 246c0 140 99 247 247 247c63 0 115 -21 156 -59v51h86v-398
c13 -34 19 -69 19 -98c0 -144 -132 -198 -260 -198zM292 95c71 0 127 35 154 82v169c-27 47 -83 81 -154 81c-95 0 -160 -71 -160 -166c0 -94 65 -166 160 -166z" />
    <glyph glyph-name="gcommaaccent" unicode="&#x123;" horiz-adv-x="611" 
d="M414 710l-69 -165h-100l104 165h65zM291 -194c-72 0 -153 20 -213 59l45 73c42 -31 105 -52 171 -52c87 0 168 32 168 126c0 17 -4 45 -13 63c-40 -39 -95 -60 -159 -60c-148 0 -247 107 -247 246c0 140 99 247 247 247c63 0 115 -21 156 -59v51h86v-398
c13 -34 19 -69 19 -98c0 -144 -132 -198 -260 -198zM292 95c71 0 127 35 154 82v169c-27 47 -83 81 -154 81c-95 0 -160 -71 -160 -166c0 -94 65 -166 160 -166z" />
    <glyph glyph-name="gdotaccent" unicode="&#x121;" horiz-adv-x="611" 
d="M291 571c-32 0 -61 24 -61 60c0 33 27 59 61 59c33 0 59 -26 59 -59c0 -35 -27 -60 -59 -60zM291 -194c-72 0 -153 20 -213 59l45 73c42 -31 105 -52 171 -52c87 0 168 32 168 126c0 17 -4 45 -13 63c-40 -39 -95 -60 -159 -60c-148 0 -247 107 -247 246
c0 140 99 247 247 247c63 0 115 -21 156 -59v51h86v-398c13 -34 19 -69 19 -98c0 -144 -132 -198 -260 -198zM292 95c71 0 127 35 154 82v169c-27 47 -83 81 -154 81c-95 0 -160 -71 -160 -166c0 -94 65 -166 160 -166z" />
    <glyph glyph-name="hbar" unicode="&#x127;" horiz-adv-x="578" 
d="M75 0v573h-70v65h70v72h86v-72h171v-65h-171v-130c38 48 97 65 155 65c113 0 193 -79 193 -203v-305h-86v300c0 73 -48 127 -126 127c-70 0 -118 -39 -136 -104v-323h-86z" />
    <glyph glyph-name="hcircumflex" unicode="&#x125;" horiz-adv-x="578" 
d="M179 766l-35 60l173 100l173 -100l-35 -60l-138 82zM75 0v710h86v-267c38 48 97 65 155 65c113 0 193 -79 193 -203v-305h-86v300c0 73 -48 127 -126 127c-70 0 -118 -39 -136 -104v-323h-86z" />
    <glyph glyph-name="dotlessi" unicode="&#x131;" horiz-adv-x="236" 
d="M75 0v500h86v-500h-86z" />
    <glyph glyph-name="ibreve" unicode="&#x12d;" horiz-adv-x="236" 
d="M118 573c-98 0 -153 60 -158 137h67c3 -41 34 -78 91 -78s88 37 91 78h67c-5 -77 -60 -137 -158 -137zM75 0v500h86v-500h-86z" />
    <glyph glyph-name="imacron" unicode="&#x12b;" horiz-adv-x="236" 
d="M-28 614v65h292v-65h-292zM75 0v500h86v-500h-86z" />
    <glyph glyph-name="iogonek" unicode="&#x12f;" horiz-adv-x="236" 
d="M75 609c-12 11 -19 27 -19 46c0 35 27 63 62 63s62 -28 62 -63c0 -19 -7 -35 -19 -46h-86zM100 -192c-55 0 -105 29 -105 86c0 49 44 90 80 106v500h86v-500c-54 -24 -82 -56 -82 -86c0 -25 17 -41 50 -41c14 0 25 4 33 7v-59c-18 -10 -39 -13 -62 -13z" />
    <glyph glyph-name="itilde" unicode="&#x129;" horiz-adv-x="236" 
d="M-54 566l3 19c12 60 57 94 103 94c56 0 93 -44 126 -44c28 0 41 15 48 44h66l-3 -18c-11 -56 -53 -94 -103 -94c-56 0 -94 44 -128 44c-26 0 -39 -15 -46 -45h-66zM75 0v500h86v-500h-86z" />
    <glyph glyph-name="uni1ECB" unicode="&#x1ecb;" horiz-adv-x="236" 
d="M75 609c-12 11 -19 27 -19 46c0 35 27 63 62 63s62 -28 62 -63c0 -19 -7 -35 -19 -46h-86zM75 0v500h86v-500h-86zM119 -190c-32 0 -61 24 -61 60c0 33 27 59 61 59c33 0 59 -26 59 -59c0 -35 -27 -60 -59 -60z" />
    <glyph glyph-name="dotlessj" unicode="&#x237;" horiz-adv-x="244" 
d="M-21 -184v78h30c55 0 74 29 74 80v526h86v-539c0 -95 -55 -145 -151 -145h-39z" />
    <glyph glyph-name="jcircumflex" unicode="&#x135;" horiz-adv-x="244" 
d="M126 718l161 -109l-38 -55l-123 83l-123 -83l-38 55zM-21 -184v78h30c55 0 74 29 74 80v526h86v-539c0 -95 -55 -145 -151 -145h-39z" />
    <glyph glyph-name="kcommaaccent" unicode="&#x137;" horiz-adv-x="512" 
d="M75 0v710h86v-436l221 226h113l-232 -235l255 -265h-116l-241 250v-250h-86zM163 -215l69 165h100l-104 -165h-65z" />
    <glyph glyph-name="lacute" unicode="&#x13a;" horiz-adv-x="236" 
d="M147 760h-71l85 160h109zM75 0v710h86v-710h-86z" />
    <glyph glyph-name="lcaron" unicode="&#x13e;" horiz-adv-x="260" 
d="M75 0v710h86v-710h-86zM222 545l25 165h87l-51 -165h-61z" />
    <glyph glyph-name="lcommaaccent" unicode="&#x13c;" horiz-adv-x="236" 
d="M75 0v710h86v-710h-86zM-1 -215l69 165h100l-104 -165h-65z" />
    <glyph glyph-name="ldot" unicode="&#x140;" horiz-adv-x="364" 
d="M75 0v710h86v-710h-86zM301 301c-32 0 -61 24 -61 60c0 33 27 59 61 59c33 0 59 -26 59 -59c0 -35 -27 -60 -59 -60z" />
    <glyph glyph-name="l_periodcentered" horiz-adv-x="364" 
d="M75 0v710h86v-710h-86zM301 301c-32 0 -61 24 -61 60c0 33 27 59 61 59c33 0 59 -26 59 -59c0 -35 -27 -60 -59 -60z" />
    <glyph glyph-name="lslash" unicode="&#x142;" horiz-adv-x="352" 
d="M141 0v306l-80 -52l-37 57l117 76v323h86v-267l81 52l37 -57l-118 -76v-362h-86z" />
    <glyph glyph-name="eng" unicode="&#x14b;" horiz-adv-x="578" 
d="M366 -184h-47v78h30c51 0 74 23 74 75v331c0 73 -48 127 -126 127c-70 0 -118 -39 -136 -104v-323h-86v500h86v-57c38 48 97 65 155 65c113 0 193 -79 193 -203v-346c0 -88 -54 -143 -143 -143z" />
    <glyph glyph-name="nacute" unicode="&#x144;" horiz-adv-x="578" 
d="M339 550h-71l85 160h109zM75 0v500h86v-57c38 48 97 65 155 65c113 0 193 -79 193 -203v-305h-86v300c0 73 -48 127 -126 127c-70 0 -118 -39 -136 -104v-323h-86z" />
    <glyph glyph-name="ncaron" unicode="&#x148;" horiz-adv-x="578" 
d="M309 553l-161 109l38 55l123 -83l123 83l38 -55zM75 0v500h86v-57c38 48 97 65 155 65c113 0 193 -79 193 -203v-305h-86v300c0 73 -48 127 -126 127c-70 0 -118 -39 -136 -104v-323h-86z" />
    <glyph glyph-name="ncommaaccent" unicode="&#x146;" horiz-adv-x="578" 
d="M75 0v500h86v-57c38 48 97 65 155 65c113 0 193 -79 193 -203v-305h-86v300c0 73 -48 127 -126 127c-70 0 -118 -39 -136 -104v-323h-86zM176 -215l69 165h100l-104 -165h-65z" />
    <glyph glyph-name="oe" unicode="&#x153;" horiz-adv-x="1000" 
d="M930 73c-43 -45 -114 -81 -201 -81c-82 0 -159 34 -213 110c-54 -76 -131 -110 -215 -110c-151 0 -260 114 -260 258s109 258 260 258c83 0 162 -35 215 -109c52 73 129 109 207 109c139 0 243 -102 244 -279h-408c10 -94 85 -156 170 -156c63 0 114 28 146 60zM718 429
c-61 0 -133 -37 -154 -125h306c-12 82 -76 126 -152 125zM301 73c102 0 171 78 171 177s-69 177 -171 177s-171 -78 -171 -177s69 -177 171 -177z" />
    <glyph glyph-name="obreve" unicode="&#x14f;" horiz-adv-x="602" 
d="M301 573c-98 0 -153 60 -158 137h67c3 -41 34 -78 91 -78s88 37 91 78h67c-5 -77 -60 -137 -158 -137zM301 -8c-151 0 -260 114 -260 258s109 258 260 258c150 0 259 -114 259 -258s-109 -258 -259 -258zM301 73c102 0 170 78 170 177s-68 177 -170 177
s-171 -78 -171 -177s69 -177 171 -177z" />
    <glyph glyph-name="ohungarumlaut" unicode="&#x151;" horiz-adv-x="602" 
d="M183 549l85 161h101l-123 -161h-63zM352 549l85 161h101l-123 -161h-63zM301 -8c-151 0 -260 114 -260 258s109 258 260 258c150 0 259 -114 259 -258s-109 -258 -259 -258zM301 73c102 0 170 78 170 177s-68 177 -170 177s-171 -78 -171 -177s69 -177 171 -177z" />
    <glyph glyph-name="omacron" unicode="&#x14d;" horiz-adv-x="602" 
d="M155 614v65h292v-65h-292zM301 -8c-151 0 -260 114 -260 258s109 258 260 258c150 0 259 -114 259 -258s-109 -258 -259 -258zM301 73c102 0 170 78 170 177s-68 177 -170 177s-171 -78 -171 -177s69 -177 171 -177z" />
    <glyph glyph-name="uni1ECD" unicode="&#x1ecd;" horiz-adv-x="602" 
d="M301 -8c-151 0 -260 114 -260 258s109 258 260 258c150 0 259 -114 259 -258s-109 -258 -259 -258zM301 73c102 0 170 78 170 177s-68 177 -170 177s-171 -78 -171 -177s69 -177 171 -177zM302 -190c-32 0 -61 24 -61 60c0 33 27 59 61 59c33 0 59 -26 59 -59
c0 -35 -27 -60 -59 -60z" />
    <glyph glyph-name="racute" unicode="&#x155;" horiz-adv-x="351" 
d="M241 550h-71l85 160h109zM75 0v500h86v-59c34 43 82 64 138 64c12 0 24 -1 35 -3v-89c-14 4 -30 6 -48 6c-54 0 -103 -27 -125 -79v-340h-86z" />
    <glyph glyph-name="rcaron" unicode="&#x159;" horiz-adv-x="351" 
d="M211 553l-161 109l38 55l123 -83l123 83l38 -55zM75 0v500h86v-59c34 43 82 64 138 64c12 0 24 -1 35 -3v-89c-14 4 -30 6 -48 6c-54 0 -103 -27 -125 -79v-340h-86z" />
    <glyph glyph-name="rcommaaccent" unicode="&#x157;" horiz-adv-x="351" 
d="M75 0v500h86v-59c34 43 82 64 138 64c12 0 24 -1 35 -3v-89c-14 4 -30 6 -48 6c-54 0 -103 -27 -125 -79v-340h-86zM-2 -215l69 165h100l-104 -165h-65z" />
    <glyph glyph-name="sacute" unicode="&#x15b;" horiz-adv-x="420" 
d="M245 550h-71l85 160h109zM207 -8c-74 0 -137 33 -177 100l68 46c26 -44 58 -69 111 -69c49 0 89 25 89 63s-26 59 -85 80l-39 15c-88 33 -119 88 -119 148c0 75 65 133 156 133c64 0 119 -29 150 -90l-67 -39c-16 33 -44 52 -83 52c-38 0 -71 -20 -71 -55
c0 -31 15 -55 73 -76l41 -15c85 -31 130 -76 130 -150c0 -80 -68 -143 -177 -143z" />
    <glyph glyph-name="scaron" unicode="&#x161;" horiz-adv-x="420" 
d="M215 553l-161 109l38 55l123 -83l123 83l38 -55zM207 -8c-74 0 -137 33 -177 100l68 46c26 -44 58 -69 111 -69c49 0 89 25 89 63s-26 59 -85 80l-39 15c-88 33 -119 88 -119 148c0 75 65 133 156 133c64 0 119 -29 150 -90l-67 -39c-16 33 -44 52 -83 52
c-38 0 -71 -20 -71 -55c0 -31 15 -55 73 -76l41 -15c85 -31 130 -76 130 -150c0 -80 -68 -143 -177 -143z" />
    <glyph glyph-name="scedilla" unicode="&#x15f;" horiz-adv-x="420" 
d="M97 -165l89 158c-65 6 -120 38 -156 99l68 46c26 -44 58 -69 111 -69c49 0 89 25 89 63s-26 59 -85 80l-39 15c-88 33 -119 88 -119 148c0 75 65 133 156 133c64 0 119 -29 150 -90l-67 -39c-16 33 -44 52 -83 52c-38 0 -71 -20 -71 -55c0 -31 15 -55 73 -76l41 -15
c85 -31 130 -76 130 -150c0 -70 -51 -126 -137 -140l-52 -160h-98z" />
    <glyph glyph-name="scircumflex" unicode="&#x15d;" horiz-adv-x="420" 
d="M216 718l161 -109l-38 -55l-123 83l-123 -83l-38 55zM207 -8c-74 0 -137 33 -177 100l68 46c26 -44 58 -69 111 -69c49 0 89 25 89 63s-26 59 -85 80l-39 15c-88 33 -119 88 -119 148c0 75 65 133 156 133c64 0 119 -29 150 -90l-67 -39c-16 33 -44 52 -83 52
c-38 0 -71 -20 -71 -55c0 -31 15 -55 73 -76l41 -15c85 -31 130 -76 130 -150c0 -80 -68 -143 -177 -143z" />
    <glyph glyph-name="scommaaccent" unicode="&#x219;" horiz-adv-x="420" 
d="M207 -8c-74 0 -137 33 -177 100l68 46c26 -44 58 -69 111 -69c49 0 89 25 89 63s-26 59 -85 80l-39 15c-88 33 -119 88 -119 148c0 75 65 133 156 133c64 0 119 -29 150 -90l-67 -39c-16 33 -44 52 -83 52c-38 0 -71 -20 -71 -55c0 -31 15 -55 73 -76l41 -15
c85 -31 130 -76 130 -150c0 -80 -68 -143 -177 -143zM93 -215l69 165h100l-104 -165h-65z" />
    <glyph glyph-name="tbar" unicode="&#x167;" horiz-adv-x="378" 
d="M25 261v65h91v96h-80l-19 78h99v107l86 43v-150h151l-19 -78h-132v-96h143v-65h-143v-103c0 -51 19 -80 74 -80h67v-78h-76c-96 0 -151 50 -151 145v116h-91z" />
    <glyph glyph-name="tcaron" unicode="&#x165;" horiz-adv-x="364" 
d="M258 545l25 165h87l-51 -165h-61zM258 0c-96 0 -151 50 -151 145v277h-80l-19 78h99v107l86 43v-150h151l-19 -78h-132v-264c0 -51 19 -80 74 -80h67v-78h-76z" />
    <glyph glyph-name="uni0163" unicode="&#x163;" horiz-adv-x="364" 
d="M258 0c-96 0 -151 50 -151 145v277h-80l-19 78h99v107l86 43v-150h151l-19 -78h-132v-264c0 -51 19 -80 74 -80h67v-78h-76zM101 -215l69 165h100l-104 -165h-65z" />
    <glyph glyph-name="tcommaaccent" unicode="&#x21b;" horiz-adv-x="364" 
d="M258 0c-96 0 -151 50 -151 145v277h-80l-19 78h99v107l86 43v-150h151l-19 -78h-132v-264c0 -51 19 -80 74 -80h67v-78h-76zM101 -215l69 165h100l-104 -165h-65z" />
    <glyph glyph-name="ubreve" unicode="&#x16d;" horiz-adv-x="577" 
d="M285 573c-98 0 -153 60 -158 137h67c3 -41 34 -78 91 -78s88 37 91 78h67c-5 -77 -60 -137 -158 -137zM416 0v56c-39 -48 -96 -64 -154 -64c-114 0 -193 79 -193 203v305h86v-300c0 -73 48 -127 125 -127c69 0 116 37 136 100v327h86v-500h-86z" />
    <glyph glyph-name="uhungarumlaut" unicode="&#x171;" horiz-adv-x="577" 
d="M167 549l85 161h101l-123 -161h-63zM336 549l85 161h101l-123 -161h-63zM416 0v56c-39 -48 -96 -64 -154 -64c-114 0 -193 79 -193 203v305h86v-300c0 -73 48 -127 125 -127c69 0 116 37 136 100v327h86v-500h-86z" />
    <glyph glyph-name="umacron" unicode="&#x16b;" horiz-adv-x="577" 
d="M139 614v65h292v-65h-292zM416 0v56c-39 -48 -96 -64 -154 -64c-114 0 -193 79 -193 203v305h86v-300c0 -73 48 -127 125 -127c69 0 116 37 136 100v327h86v-500h-86z" />
    <glyph glyph-name="uogonek" unicode="&#x173;" horiz-adv-x="577" 
d="M441 -192c-55 0 -105 29 -105 86c0 49 44 90 80 106v56c-39 -48 -96 -64 -154 -64c-114 0 -193 79 -193 203v305h86v-300c0 -73 48 -127 125 -127c69 0 116 37 136 100v327h86v-500c-54 -24 -82 -56 -82 -86c0 -25 17 -41 50 -41c14 0 25 4 33 7v-59
c-18 -10 -39 -13 -62 -13z" />
    <glyph glyph-name="uring" unicode="&#x16f;" horiz-adv-x="577" 
d="M285 566c-55 0 -99 41 -99 94c0 55 45 95 99 95s99 -40 99 -95c0 -53 -44 -94 -99 -94zM285 613c26 0 48 19 48 47c0 29 -22 48 -48 48s-48 -19 -48 -48c0 -28 22 -47 48 -47zM416 0v56c-39 -48 -96 -64 -154 -64c-114 0 -193 79 -193 203v305h86v-300
c0 -73 48 -127 125 -127c69 0 116 37 136 100v327h86v-500h-86z" />
    <glyph glyph-name="utilde" unicode="&#x169;" horiz-adv-x="577" 
d="M113 566l3 19c12 60 57 94 103 94c56 0 93 -44 126 -44c28 0 41 15 48 44h66l-3 -18c-11 -56 -53 -94 -103 -94c-56 0 -94 44 -128 44c-26 0 -39 -15 -46 -45h-66zM416 0v56c-39 -48 -96 -64 -154 -64c-114 0 -193 79 -193 203v305h86v-300c0 -73 48 -127 125 -127
c69 0 116 37 136 100v327h86v-500h-86z" />
    <glyph glyph-name="uni1EE5" unicode="&#x1ee5;" horiz-adv-x="577" 
d="M416 0v56c-39 -48 -96 -64 -154 -64c-114 0 -193 79 -193 203v305h86v-300c0 -73 48 -127 125 -127c69 0 116 37 136 100v327h86v-500h-86zM279 -190c-32 0 -61 24 -61 60c0 33 27 59 61 59c33 0 59 -26 59 -59c0 -35 -27 -60 -59 -60z" />
    <glyph glyph-name="wacute" unicode="&#x1e83;" horiz-adv-x="700" 
d="M379 550h-71l85 160h109zM169 0l-158 500h89l112 -364l138 372l138 -372l112 364h89l-158 -500h-69l-112 304l-111 -304h-70z" />
    <glyph glyph-name="wcircumflex" unicode="&#x175;" horiz-adv-x="700" 
d="M350 718l161 -109l-38 -55l-123 83l-123 -83l-38 55zM169 0l-158 500h89l112 -364l138 372l138 -372l112 364h89l-158 -500h-69l-112 304l-111 -304h-70z" />
    <glyph glyph-name="wdieresis" unicode="&#x1e85;" horiz-adv-x="700" 
d="M464 571c-33 0 -61 25 -61 60c0 33 27 59 61 59c33 0 60 -26 60 -59c0 -36 -29 -60 -60 -60zM239 571c-33 0 -61 25 -61 60c0 33 27 59 61 59c33 0 60 -26 60 -59c0 -36 -29 -60 -60 -60zM169 0l-158 500h89l112 -364l138 372l138 -372l112 364h89l-158 -500h-69
l-112 304l-111 -304h-70z" />
    <glyph glyph-name="wgrave" unicode="&#x1e81;" horiz-adv-x="700" 
d="M327 550l-123 160h109l85 -160h-71zM169 0l-158 500h89l112 -364l138 372l138 -372l112 364h89l-158 -500h-69l-112 304l-111 -304h-70z" />
    <glyph glyph-name="ycircumflex" unicode="&#x177;" horiz-adv-x="507" 
d="M257 718l161 -109l-38 -55l-123 83l-123 -83l-38 55zM107 -184l103 226l-204 458h93l156 -364l157 364h93l-307 -684h-91z" />
    <glyph glyph-name="ygrave" unicode="&#x1ef3;" horiz-adv-x="507" 
d="M234 550l-123 160h109l85 -160h-71zM107 -184l103 226l-204 458h93l156 -364l157 364h93l-307 -684h-91z" />
    <glyph glyph-name="uni0233" unicode="&#x233;" horiz-adv-x="507" 
d="M111 614v65h292v-65h-292zM107 -184l103 226l-204 458h93l156 -364l157 364h93l-307 -684h-91z" />
    <glyph glyph-name="zacute" unicode="&#x17a;" horiz-adv-x="486" 
d="M282 550h-71l85 160h109zM16 0l292 422h-260v78h411l-291 -422h281v-78h-433z" />
    <glyph glyph-name="zcaron" unicode="&#x17e;" horiz-adv-x="486" 
d="M252 553l-161 109l38 55l123 -83l123 83l38 -55zM16 0l292 422h-260v78h411l-291 -422h281v-78h-433z" />
    <glyph glyph-name="zdotaccent" unicode="&#x17c;" horiz-adv-x="486" 
d="M254 571c-32 0 -61 24 -61 60c0 33 27 59 61 59c33 0 59 -26 59 -59c0 -35 -27 -60 -59 -60zM16 0l292 422h-260v78h411l-291 -422h281v-78h-433z" />
    <glyph glyph-name="uni0259" unicode="&#x259;" horiz-adv-x="571" 
d="M272 509c148 0 257 -114 257 -258c0 -145 -111 -258 -251 -258c-150 0 -244 115 -244 279h406c-9 96 -83 156 -168 156c-63 0 -114 -28 -146 -60l-55 60c43 45 114 81 201 81zM283 72c62 0 132 37 152 125h-304c12 -82 76 -126 152 -125z" />
    <glyph glyph-name="uni0410" unicode="&#x410;" horiz-adv-x="678" 
d="M-7 0l346 718l346 -718h-98l-88 186h-320l-88 -186h-98zM219 270h240l-120 254z" />
    <glyph glyph-name="uni0411" unicode="&#x411;" horiz-adv-x="621" 
d="M186 622v-209h165c141 0 236 -84 236 -209c0 -131 -107 -204 -257 -204h-235v710h428v-88h-337zM186 85h160c98 0 151 49 151 121s-53 124 -151 124h-160v-245z" />
    <glyph glyph-name="uni0412" unicode="&#x412;" horiz-adv-x="632" 
d="M95 0v710h237c137 0 209 -85 209 -185c0 -72 -28 -117 -74 -148c70 -27 121 -81 121 -177c0 -129 -99 -200 -245 -200h-248zM186 404h144c75 0 120 48 120 111c0 60 -45 111 -120 111h-144v-222zM186 84h168c96 0 142 51 142 120s-46 122 -142 122h-168v-242z" />
    <glyph glyph-name="uni0413" unicode="&#x413;" horiz-adv-x="500" 
d="M483 710v-88h-297v-622h-91v710h388z" />
    <glyph glyph-name="uni0414" unicode="&#x414;" horiz-adv-x="755" 
d="M16 -148v236h69l292 630l292 -630h70v-236h-89v148h-545v-148h-89zM178 88h398l-199 437z" />
    <glyph glyph-name="uni0415" unicode="&#x415;" horiz-adv-x="555" 
d="M95 0v710h410v-88h-319v-215h259v-88h-259v-231h319v-88h-410z" />
    <glyph glyph-name="uni0416" unicode="&#x416;" horiz-adv-x="961" 
d="M-8 0l336 349l-309 361h112l304 -356v356h91v-356l304 356h112l-309 -361l336 -349h-121l-322 337v-337h-91v337l-322 -337h-121z" />
    <glyph glyph-name="uni0417" unicode="&#x417;" horiz-adv-x="550" 
d="M116 567l-63 61c61 58 127 90 209 90c136 0 212 -89 212 -193c0 -63 -31 -120 -91 -153c73 -25 116 -90 116 -172c0 -135 -117 -208 -242 -208c-101 0 -189 47 -238 108l67 61c38 -47 104 -83 174 -83c90 0 148 54 148 126c0 69 -46 124 -144 124h-69v78h72
c76 0 115 51 115 113c0 64 -41 113 -122 113c-55 0 -103 -23 -144 -65z" />
    <glyph glyph-name="uni0418" unicode="&#x418;" horiz-adv-x="787" 
d="M95 -8v718h91v-505l506 513v-718h-91v505z" />
    <glyph glyph-name="uni041A" unicode="&#x41a;" horiz-adv-x="641" 
d="M95 0v710h91v-356l324 356h112l-328 -361l355 -349h-121l-342 337v-337h-91z" />
    <glyph glyph-name="uni041B" unicode="&#x41b;" horiz-adv-x="678" 
d="M-7 0l346 718l346 -718h-98l-248 524l-248 -524h-98z" />
    <glyph glyph-name="uni041C" unicode="&#x41c;" horiz-adv-x="882" 
d="M95 0v718l346 -381l346 381v-718h-91v494l-255 -285l-255 285v-494h-91z" />
    <glyph glyph-name="uni041D" unicode="&#x41d;" horiz-adv-x="764" 
d="M95 0v710h91v-303h392v303h91v-710h-91v319h-392v-319h-91z" />
    <glyph glyph-name="uni041E" unicode="&#x41e;" horiz-adv-x="818" 
d="M409 -8c-203 0 -363 157 -363 363s160 363 363 363s363 -157 363 -363s-160 -363 -363 -363zM409 79c155 0 270 120 270 276s-115 276 -270 276s-270 -120 -270 -276s115 -276 270 -276z" />
    <glyph glyph-name="uni041F" unicode="&#x41f;" horiz-adv-x="732" 
d="M546 0v622h-360v-622h-91v710h542v-710h-91z" />
    <glyph glyph-name="uni0420" unicode="&#x420;" horiz-adv-x="574" 
d="M95 0v710h201c149 0 246 -83 246 -217c0 -132 -97 -217 -246 -217h-110v-276h-91zM186 360h107c102 0 156 49 156 133c0 83 -54 133 -156 133h-107v-266z" />
    <glyph glyph-name="uni0421" unicode="&#x421;" horiz-adv-x="722" 
d="M409 -8c-203 0 -363 157 -363 363s160 363 363 363c125 0 230 -61 284 -135l-65 -57c-47 63 -125 105 -219 105c-155 0 -270 -120 -270 -276s115 -276 270 -276c94 0 172 42 219 105l65 -57c-54 -74 -159 -135 -284 -135z" />
    <glyph glyph-name="uni0422" unicode="&#x422;" horiz-adv-x="526" 
d="M217 0v622h-201v88h494v-88h-202v-622h-91z" />
    <glyph glyph-name="uni0423" unicode="&#x423;" horiz-adv-x="657" 
d="M197 0l89 169l-273 541h100l224 -445l235 445h94l-375 -710h-94z" />
    <glyph glyph-name="uni0424" unicode="&#x424;" horiz-adv-x="851" 
d="M471 -20h-91v88c-217 8 -338 123 -338 293c0 169 120 283 338 290v79h91v-79c217 -8 338 -123 338 -293c0 -168 -119 -283 -338 -290v-88zM471 152c172 5 245 84 245 206c0 126 -73 204 -245 209v-415zM135 361c0 -126 72 -204 245 -209v415c-170 -5 -245 -83 -245 -206z
" />
    <glyph glyph-name="uni0425" unicode="&#x425;" horiz-adv-x="639" 
d="M6 0l256 362l-243 348h105l195 -279l195 279h105l-241 -348l255 -362h-103l-210 295l-208 -295h-106z" />
    <glyph glyph-name="uni0426" unicode="&#x426;" horiz-adv-x="754" 
d="M629 88h88v-236h-89v148h-533v710h91v-622h352v622h91v-622z" />
    <glyph glyph-name="uni0427" unicode="&#x427;" horiz-adv-x="689" 
d="M594 0h-91v310c-61 -24 -136 -40 -216 -40c-148 0 -240 68 -240 215v225h91v-205c0 -120 70 -148 163 -148c65 0 135 11 202 40v313h91v-710z" />
    <glyph glyph-name="uni0428" unicode="&#x428;" horiz-adv-x="981" 
d="M95 0v710h91v-622h259v622h91v-622h259v622h91v-710h-791z" />
    <glyph glyph-name="uni0429" unicode="&#x429;" horiz-adv-x="1011" 
d="M445 88v622h91v-622h259v622h91v-622h88v-236h-89v148h-790v710h91v-622h259z" />
    <glyph glyph-name="uni042A" unicode="&#x42a;" horiz-adv-x="702" 
d="M208 0v622h-191v88h282v-282h120c152 0 250 -84 250 -214c0 -132 -98 -214 -250 -214h-211zM299 84h119c103 0 160 46 160 130s-57 130 -160 130h-119v-260z" />
    <glyph glyph-name="uni042B" unicode="&#x42b;" horiz-adv-x="850" 
d="M186 428h120c152 0 250 -84 250 -214c0 -132 -98 -214 -250 -214h-211v710h91v-282zM664 0v710h91v-710h-91zM186 84h119c103 0 160 46 160 130s-57 130 -160 130h-119v-260z" />
    <glyph glyph-name="uni042C" unicode="&#x42c;" horiz-adv-x="589" 
d="M186 428h120c152 0 250 -84 250 -214c0 -132 -98 -214 -250 -214h-211v710h91v-282zM186 84h119c103 0 160 46 160 130s-57 130 -160 130h-119v-260z" />
    <glyph glyph-name="uni042D" unicode="&#x42d;" horiz-adv-x="726" 
d="M317 -8c-125 0 -230 61 -284 135l65 57c47 -63 125 -105 219 -105c143 0 252 102 268 240h-338v88h336c-23 130 -129 224 -266 224c-94 0 -172 -42 -219 -105l-65 57c54 74 159 135 284 135c203 0 363 -157 363 -363s-160 -363 -363 -363z" />
    <glyph glyph-name="uni042E" unicode="&#x42e;" horiz-adv-x="1054" 
d="M95 0v710h91v-303h118c24 180 170 311 350 311c197 0 353 -157 353 -363s-156 -363 -353 -363c-185 0 -334 139 -351 327h-117v-319h-91zM654 79c149 0 260 120 260 276s-111 276 -260 276s-260 -120 -260 -276s111 -276 260 -276z" />
    <glyph glyph-name="uni042F" unicode="&#x42f;" horiz-adv-x="625" 
d="M24 0l198 299c-98 24 -149 97 -149 194c0 134 97 217 246 217h211v-710h-91v276h-126l-182 -276h-107zM322 360h117v266h-117c-102 0 -156 -50 -156 -133c0 -84 54 -133 156 -133z" />
    <glyph glyph-name="uni0405" unicode="&#x405;" horiz-adv-x="528" 
d="M263 -8c-103 0 -189 50 -231 110l69 60c34 -44 92 -83 161 -83c82 0 134 38 134 100c0 65 -40 99 -116 132l-65 28c-108 46 -155 112 -155 201c0 108 102 178 207 178c83 0 151 -33 199 -91l-64 -64c-37 44 -76 68 -138 68c-60 0 -113 -34 -113 -93
c0 -52 30 -87 105 -120l65 -28c96 -42 167 -101 167 -201c0 -116 -86 -197 -225 -197z" />
    <glyph glyph-name="uni0404" unicode="&#x404;" horiz-adv-x="726" 
d="M409 -8c-203 0 -363 157 -363 363s160 363 363 363c125 0 230 -61 284 -135l-65 -57c-47 63 -125 105 -219 105c-137 0 -243 -94 -266 -224h353v-88h-355c16 -138 125 -240 268 -240c94 0 172 42 219 105l65 -57c-54 -74 -159 -135 -284 -135z" />
    <glyph glyph-name="uni0406" unicode="&#x406;" horiz-adv-x="281" 
d="M95 0v710h91v-710h-91z" />
    <glyph glyph-name="uni0408" unicode="&#x408;" horiz-adv-x="523" 
d="M228 -8c-114 0 -207 73 -207 206h91c0 -81 52 -119 115 -119c67 0 117 38 117 119v512h91v-518c0 -133 -96 -200 -207 -200z" />
    <glyph glyph-name="uni040F" unicode="&#x40f;" horiz-adv-x="737" 
d="M413 0v-148h-89v148h-229v710h91v-622h365v622h91v-710h-229z" />
    <glyph glyph-name="uni0409" unicode="&#x409;" horiz-adv-x="941" 
d="M-7 0l346 718l140 -290h179c152 0 250 -84 250 -214c0 -132 -98 -214 -250 -214h-71l-248 524l-248 -524h-98zM657 344h-137l125 -260h12c103 0 160 46 160 130s-57 130 -160 130z" />
    <glyph glyph-name="uni040A" unicode="&#x40a;" horiz-adv-x="999" 
d="M95 0v710h91v-303h332v303h91v-303h108c155 0 251 -83 251 -196c0 -129 -98 -211 -251 -211h-199v319h-332v-319h-91zM717 319h-108v-235h108c105 0 159 43 159 126c0 67 -54 109 -159 109z" />
    <glyph glyph-name="uni0402" unicode="&#x402;" horiz-adv-x="732" 
d="M189 0v622h-172v88h475v-88h-212v-222c77 30 123 41 202 41c124 0 213 -80 213 -238c0 -194 -124 -304 -276 -304h-15v82h12c60 0 188 36 188 211c0 106 -54 161 -138 161c-75 0 -110 -10 -186 -40v-313h-91z" />
    <glyph glyph-name="uni040B" unicode="&#x40b;" horiz-adv-x="757" 
d="M189 622h-172v88h475v-88h-212v-222c77 30 136 40 215 40c127 0 215 -88 215 -205v-235h-91v225c-1 70 -48 128 -131 128c-75 0 -132 -10 -208 -40v-313h-91v622z" />
    <glyph glyph-name="uni0474" unicode="&#x474;" horiz-adv-x="656" 
d="M579 568l-251 -576l-328 718h100l228 -509l171 407c30 71 72 102 130 102h9v-92c-29 0 -43 -13 -59 -50z" />
    <glyph glyph-name="uni04AE" unicode="&#x4ae;" horiz-adv-x="628" 
d="M268 0v301l-260 409h106l200 -319l200 319h106l-260 -409v-301h-92z" />
    <glyph glyph-name="uni04BA" unicode="&#x4ba;" horiz-adv-x="689" 
d="M95 710h91v-310c61 24 136 40 216 40c148 0 240 -68 240 -215v-225h-91v205c0 120 -70 148 -163 148c-65 0 -135 -11 -202 -40v-313h-91v710z" />
    <glyph glyph-name="uni04C0" unicode="&#x4c0;" horiz-adv-x="281" 
d="M95 0v710h91v-710h-91z" />
    <glyph glyph-name="uni04D8" unicode="&#x4d8;" horiz-adv-x="782" 
d="M382 -7c-221 0 -353 165 -353 406h606c-19 148 -136 233 -250 233c-85 0 -144 -27 -190 -66l-53 69c61 55 141 84 241 84c192 0 352 -157 352 -363s-150 -363 -353 -363zM382 80c132 0 239 88 254 239h-512c14 -138 105 -239 258 -239z" />
    <glyph glyph-name="uni0462" unicode="&#x462;" horiz-adv-x="705" 
d="M301 428h120c152 0 250 -84 250 -214c0 -132 -98 -214 -250 -214h-211v536h-184v65h184v129h91v-129h228v-65h-228v-108zM301 84h119c103 0 160 46 160 130s-57 130 -160 130h-119v-260z" />
    <glyph glyph-name="uni0419" unicode="&#x419;" horiz-adv-x="787" 
d="M496 914h72c-2 -101 -65 -156 -159 -156s-157 55 -159 156h72c1 -64 35 -97 87 -97s86 33 87 97zM95 -8v718h91v-505l506 513v-718h-91v505z" />
    <glyph glyph-name="uni0401" unicode="&#x401;" horiz-adv-x="555" 
d="M414 785c-33 0 -61 25 -61 60c0 33 27 59 61 59c33 0 60 -26 60 -59c0 -36 -29 -60 -60 -60zM189 785c-33 0 -61 25 -61 60c0 33 27 59 61 59c33 0 60 -26 60 -59c0 -36 -29 -60 -60 -60zM95 0v710h410v-88h-319v-215h259v-88h-259v-231h319v-88h-410z" />
    <glyph glyph-name="uni040C" unicode="&#x40c;" horiz-adv-x="641" 
d="M383 768h-73l77 145h109zM95 0v710h91v-356l324 356h112l-328 -361l355 -349h-121l-342 337v-337h-91z" />
    <glyph glyph-name="uni0490" unicode="&#x490;" horiz-adv-x="500" 
d="M95 0v710h299v148h89v-236h-297v-622h-91z" />
    <glyph glyph-name="uni0403" unicode="&#x403;" horiz-adv-x="500" 
d="M327 768h-73l77 145h109zM483 710v-88h-297v-622h-91v710h388z" />
    <glyph glyph-name="uni040E" unicode="&#x40e;" horiz-adv-x="657" 
d="M429 914h72c-2 -101 -65 -156 -159 -156s-157 55 -159 156h72c1 -64 35 -97 87 -97s86 33 87 97zM197 0l89 169l-273 541h100l224 -445l235 445h94l-375 -710h-94z" />
    <glyph glyph-name="uni0407" unicode="&#x407;" horiz-adv-x="281" 
d="M40 785c-32 0 -61 24 -61 60c0 33 27 59 61 59c33 0 59 -26 59 -59c0 -35 -27 -60 -59 -60zM242 785c-32 0 -61 24 -61 60c0 33 27 59 61 59c33 0 59 -26 59 -59c0 -35 -27 -60 -59 -60zM95 0v710h91v-710h-91z" />
    <glyph glyph-name="uni0472" unicode="&#x472;" horiz-adv-x="818" 
d="M409 -8c-203 0 -363 157 -363 363s160 363 363 363s363 -157 363 -363s-160 -363 -363 -363zM294 424c84 0 143 -44 241 -44c39 0 94 8 139 29c-23 129 -128 222 -265 222c-146 0 -257 -107 -269 -250c50 30 113 43 154 43zM409 79c147 0 258 108 269 252
c-45 -18 -96 -27 -133 -27c-97 0 -190 44 -263 44c-39 0 -86 -12 -137 -51c24 -127 129 -218 264 -218z" />
    <glyph glyph-name="uni04E8" unicode="&#x4e8;" horiz-adv-x="818" 
d="M409 -8c-203 0 -363 157 -363 363s160 363 363 363s363 -157 363 -363s-160 -363 -363 -363zM409 631c-142 0 -251 -101 -268 -239h536c-17 138 -126 239 -268 239zM409 79c142 0 251 101 268 239h-536c17 -138 126 -239 268 -239z" />
    <glyph glyph-name="uni0492" unicode="&#x492;" horiz-adv-x="518" 
d="M17 397h92v313h388v-88h-297v-225h180v-74h-180v-323h-91v323h-92v74z" />
    <glyph glyph-name="uni04B0" unicode="&#x4b0;" horiz-adv-x="630" 
d="M269 0v227h-153v74h153l-260 409h106l200 -319l200 319h106l-260 -409h153v-74h-153v-227h-92z" />
    <glyph glyph-name="uni04E2" unicode="&#x4e2;" horiz-adv-x="787" 
d="M263 803v65h292v-65h-292zM95 -8v718h91v-505l506 513v-718h-91v505z" />
    <glyph glyph-name="uni04EE" unicode="&#x4ee;" horiz-adv-x="657" 
d="M196 803v65h292v-65h-292zM197 0l89 169l-273 541h100l224 -445l235 445h94l-375 -710h-94z" />
    <glyph glyph-name="uni0496" unicode="&#x496;" horiz-adv-x="985" 
d="M-8 0l336 349l-309 361h112l304 -356v356h91v-356l304 356h112l-309 -361l251 -261h90v-236h-85v148h-41l-322 337v-337h-91v337l-322 -337h-121z" />
    <glyph glyph-name="uni049A" unicode="&#x49a;" horiz-adv-x="662" 
d="M95 0v710h91v-356l324 356h112l-328 -361l266 -261h90v-236h-85v148h-37l-342 337v-337h-91z" />
    <glyph glyph-name="uni04A2" unicode="&#x4a2;" horiz-adv-x="792" 
d="M95 0v710h91v-303h392v303h91v-622h85v-236h-85v148h-91v319h-392v-319h-91z" />
    <glyph glyph-name="uni04B2" unicode="&#x4b2;" horiz-adv-x="674" 
d="M6 0l256 362l-243 348h105l195 -279l195 279h105l-241 -348l193 -274h89v-236h-85v148h-45l-210 295l-208 -295h-106z" />
    <glyph glyph-name="uni04B6" unicode="&#x4b6;" horiz-adv-x="717" 
d="M594 -148v148h-91v310c-61 -24 -136 -40 -216 -40c-148 0 -240 68 -240 215v225h91v-205c0 -120 70 -148 163 -148c65 0 135 11 202 40v313h91v-622h85v-236h-85z" />
    <glyph glyph-name="uni0430" unicode="&#x430;" horiz-adv-x="617" 
d="M456 0v50c-42 -38 -98 -58 -159 -58c-147 0 -255 113 -255 258s108 258 255 258c61 0 117 -20 159 -58v50h86v-500h-86zM299 73c72 0 128 34 157 81v192c-29 47 -85 81 -157 81c-98 0 -168 -78 -168 -177s70 -177 168 -177z" />
    <glyph glyph-name="uni0431" unicode="&#x431;" horiz-adv-x="619" 
d="M319 -8c-154 0 -260 119 -260 277v51c0 234 90 351 288 386l185 33v-81l-169 -29c-167 -28 -203 -97 -228 -221c51 67 122 95 192 95c154 0 251 -119 251 -249c0 -145 -109 -262 -259 -262zM319 71c102 0 173 80 173 183c0 97 -70 171 -173 171s-173 -74 -173 -171
c0 -103 71 -183 173 -183z" />
    <glyph glyph-name="uni0432" unicode="&#x432;" horiz-adv-x="534" 
d="M75 0v500h212c113 0 174 -51 174 -135c0 -39 -17 -77 -53 -100c54 -20 86 -62 86 -121c0 -82 -58 -144 -184 -144h-235zM161 291h136c36 0 74 18 74 66s-38 67 -74 67h-136v-133zM161 76h156c48 0 86 25 86 75c0 48 -38 73 -86 73h-156v-148z" />
    <glyph glyph-name="uni0433" unicode="&#x433;" horiz-adv-x="399" 
d="M75 0v500h307v-78h-222v-422h-85z" />
    <glyph glyph-name="uni0434" unicode="&#x434;" horiz-adv-x="584" 
d="M14 -127v205h55l223 430l224 -430h54v-205h-80v127h-396v-127h-80zM423 78l-134 265l-131 -265h265z" />
    <glyph glyph-name="uni0435" unicode="&#x435;" horiz-adv-x="569" 
d="M299 -8c-148 0 -257 114 -257 258c0 145 111 258 251 258s242 -102 244 -279h-406c9 -96 83 -156 168 -156c63 0 114 28 146 60l55 -60c-43 -45 -114 -81 -201 -81zM288 429c-62 0 -132 -37 -152 -125h304c-12 82 -76 126 -152 125z" />
    <glyph glyph-name="uni0436" unicode="&#x436;" horiz-adv-x="764" 
d="M-1 0l245 249l-221 251h101l215 -247v247h86v-247l215 247h101l-221 -251l245 -249h-108l-232 240v-240h-86v240l-232 -240h-108z" />
    <glyph glyph-name="uni0437" unicode="&#x437;" horiz-adv-x="459" 
d="M224 -8c-86 0 -153 31 -197 100l68 45c26 -45 63 -71 129 -71c80 0 106 36 106 80c0 49 -42 79 -111 79h-65v68h62c48 0 97 20 97 72c0 47 -44 69 -91 69c-52 0 -93 -19 -114 -58l-66 42c38 56 100 90 181 90c102 0 173 -54 173 -138c0 -46 -24 -87 -67 -109
c54 -21 88 -68 88 -123c0 -75 -64 -146 -193 -146z" />
    <glyph glyph-name="uni0438" unicode="&#x438;" horiz-adv-x="597" 
d="M75 -8v508h85v-334l362 342v-508h-85v329z" />
    <glyph glyph-name="uni043A" unicode="&#x43a;" horiz-adv-x="504" 
d="M75 0v500h86v-247l221 247h105l-226 -251l250 -249h-112l-238 240v-240h-86z" />
    <glyph glyph-name="uni043B" unicode="&#x43b;" horiz-adv-x="525" 
d="M-2 0l264 508l265 -508h-98l-166 332l-169 -332h-96z" />
    <glyph glyph-name="uni043C" unicode="&#x43c;" horiz-adv-x="687" 
d="M527 0v303l-183 -211l-184 211v-303h-85v510l269 -305l268 305v-510h-85z" />
    <glyph glyph-name="uni043D" unicode="&#x43d;" horiz-adv-x="590" 
d="M75 0v500h85v-206h270v206h85v-500h-85v216h-270v-216h-85z" />
    <glyph glyph-name="uni043E" unicode="&#x43e;" horiz-adv-x="602" 
d="M302 -8c-151 0 -260 114 -260 258s109 258 260 258c150 0 259 -114 259 -258s-109 -258 -259 -258zM302 73c102 0 170 78 170 177s-68 177 -170 177s-171 -78 -171 -177s69 -177 171 -177z" />
    <glyph glyph-name="uni043F" unicode="&#x43f;" horiz-adv-x="579" 
d="M75 0v500h429v-500h-86v422h-257v-422h-86z" />
    <glyph glyph-name="uni0440" unicode="&#x440;" horiz-adv-x="617" 
d="M75 500h86v-50c41 38 97 58 159 58c147 0 255 -113 255 -258s-108 -258 -255 -258c-62 0 -118 20 -159 58v-234h-86v684zM318 73c98 0 168 78 168 177s-70 177 -168 177c-72 0 -129 -34 -157 -81v-192c28 -47 85 -81 157 -81z" />
    <glyph glyph-name="uni0441" unicode="&#x441;" horiz-adv-x="518" 
d="M299 -8c-148 0 -257 114 -257 258s109 258 257 258c83 0 147 -34 191 -79l-55 -60c-32 32 -77 58 -136 58c-98 0 -168 -78 -168 -177s70 -177 168 -177c59 0 104 26 136 58l55 -60c-44 -45 -108 -79 -191 -79z" />
    <glyph glyph-name="uni0442" unicode="&#x442;" horiz-adv-x="442" 
d="M175 0v422h-158v78h408v-78h-165v-422h-85z" />
    <glyph glyph-name="uni0443" unicode="&#x443;" horiz-adv-x="507" 
d="M107 -184l103 226l-204 458h93l156 -364l157 364h93l-307 -684h-91z" />
    <glyph glyph-name="uni0444" unicode="&#x444;" horiz-adv-x="726" 
d="M406 -184h-85v176c-181 5 -279 118 -279 258c0 139 98 255 279 258v202h85v-202c181 -3 279 -119 279 -258c0 -140 -98 -253 -279 -258v-176zM406 70c128 4 192 83 192 180s-65 178 -192 180v-360zM129 250c0 -97 64 -176 192 -180v360c-127 -2 -192 -83 -192 -180z" />
    <glyph glyph-name="uni0445" unicode="&#x445;" horiz-adv-x="514" 
d="M10 0l195 254l-185 246h99l139 -184l137 184h99l-185 -246l195 -254h-100l-147 194l-147 -194h-100z" />
    <glyph glyph-name="uni0446" unicode="&#x446;" horiz-adv-x="609" 
d="M579 78v-205h-80v127h-424v500h86v-422h252v422h86v-422h80z" />
    <glyph glyph-name="uni0447" unicode="&#x447;" horiz-adv-x="534" 
d="M459 0h-86v200c-49 -19 -91 -29 -141 -29c-116 0 -193 68 -193 190v139h86v-127c0 -93 57 -121 121 -121c34 0 84 8 127 31v217h86v-500z" />
    <glyph glyph-name="uni0448" unicode="&#x448;" horiz-adv-x="797" 
d="M75 0v500h85v-422h196v422h85v-422h196v422h85v-500h-647z" />
    <glyph glyph-name="uni0449" unicode="&#x449;" horiz-adv-x="832" 
d="M802 78v-205h-80v127h-647v500h85v-422h196v422h85v-422h196v422h85v-422h80z" />
    <glyph glyph-name="uni044A" unicode="&#x44a;" horiz-adv-x="556" 
d="M158 0v422h-140v78h226v-186h90c132 0 191 -74 191 -156s-59 -158 -191 -158h-176zM244 78h93c63 0 103 28 103 80c0 53 -40 78 -101 78h-95v-158z" />
    <glyph glyph-name="uni044B" unicode="&#x44b;" horiz-adv-x="687" 
d="M526 0v500h86v-500h-86zM75 0v500h86v-186h100c132 0 191 -74 191 -156s-59 -158 -191 -158h-186zM161 78h103c63 0 103 28 103 80c0 53 -40 78 -101 78h-105v-158z" />
    <glyph glyph-name="uni044C" unicode="&#x44c;" horiz-adv-x="482" 
d="M75 0v500h86v-186h100c132 0 191 -74 191 -156s-59 -158 -191 -158h-186zM161 78h103c63 0 103 28 103 80c0 53 -40 78 -101 78h-105v-158z" />
    <glyph glyph-name="uni044D" unicode="&#x44d;" horiz-adv-x="521" 
d="M222 -8c-83 0 -147 34 -191 79l55 60c32 -32 77 -58 136 -58c86 0 151 61 165 143h-223v77h221c-17 78 -80 134 -163 134c-59 0 -104 -26 -136 -58l-55 60c44 45 108 79 191 79c148 0 257 -114 257 -258s-109 -258 -257 -258z" />
    <glyph glyph-name="uni044E" unicode="&#x44e;" horiz-adv-x="793" 
d="M161 293h94c19 123 117 215 247 215c144 0 249 -114 249 -258s-105 -258 -249 -258c-133 0 -233 96 -248 224h-93v-216h-86v500h86v-207zM502 73c96 0 160 78 160 177s-64 177 -160 177s-161 -78 -161 -177s65 -177 161 -177z" />
    <glyph glyph-name="uni044F" unicode="&#x44f;" horiz-adv-x="513" 
d="M26 0l151 203c-73 17 -115 73 -115 143c0 91 58 154 189 154h187v-500h-86v189h-90l-139 -189h-97zM246 263h106v163h-106c-66 0 -101 -27 -101 -82s38 -81 101 -81z" />
    <glyph glyph-name="uni0455" unicode="&#x455;" horiz-adv-x="420" 
d="M207 -8c-74 0 -137 33 -177 100l68 46c26 -44 58 -69 111 -69c49 0 89 25 89 63s-26 59 -85 80l-39 15c-88 33 -119 88 -119 148c0 75 65 133 156 133c64 0 119 -29 150 -90l-67 -39c-16 33 -44 52 -83 52c-38 0 -71 -20 -71 -55c0 -31 15 -55 73 -76l41 -15
c85 -31 130 -76 130 -150c0 -80 -68 -143 -177 -143z" />
    <glyph glyph-name="uni0454" unicode="&#x454;" horiz-adv-x="521" 
d="M299 -8c-148 0 -257 114 -257 258s109 258 257 258c83 0 147 -34 191 -79l-55 -60c-32 32 -77 58 -136 58c-83 0 -146 -56 -163 -134h221v-77h-223c14 -82 79 -143 165 -143c59 0 104 26 136 58l55 -60c-44 -45 -108 -79 -191 -79z" />
    <glyph glyph-name="uni0456" unicode="&#x456;" horiz-adv-x="236" 
d="M75 609c-12 11 -19 27 -19 46c0 35 27 63 62 63s62 -28 62 -63c0 -19 -7 -35 -19 -46h-86zM75 0v500h86v-500h-86z" />
    <glyph glyph-name="uni0458" unicode="&#x458;" horiz-adv-x="244" 
d="M83 609c-12 11 -19 27 -19 46c0 35 27 63 62 63s62 -28 62 -63c0 -19 -7 -35 -19 -46h-86zM-21 -184v78h30c55 0 74 29 74 80v526h86v-539c0 -95 -55 -145 -151 -145h-39z" />
    <glyph glyph-name="uni045F" unicode="&#x45f;" horiz-adv-x="585" 
d="M510 0h-177v-127h-80v127h-178v500h85v-422h265v422h85v-500z" />
    <glyph glyph-name="uni0459" unicode="&#x459;" horiz-adv-x="729" 
d="M262 508l100 -194h148c136 0 188 -74 188 -156s-55 -158 -189 -158h-81l-168 329l-167 -329h-95zM514 236h-111l81 -158h28c65 0 103 28 103 80c0 53 -38 78 -101 78z" />
    <glyph glyph-name="uni045A" unicode="&#x45a;" horiz-adv-x="774" 
d="M567 0h-178v216h-229v-216h-85v500h85v-207h229v207h85v-207h93c123 0 177 -68 177 -145s-54 -148 -177 -148zM661 147c0 46 -35 69 -88 69h-99v-139h97c55 0 90 25 90 70z" />
    <glyph glyph-name="uni0452" unicode="&#x452;" horiz-adv-x="578" 
d="M319 -184v78h30c55 0 74 29 74 80v326c0 73 -48 127 -126 127c-70 0 -118 -39 -136 -104v-323h-86v573h-70v65h70v72h86v-72h171v-65h-171v-130c38 48 97 65 155 65c113 0 193 -79 193 -203v-344c0 -95 -55 -145 -151 -145h-39z" />
    <glyph glyph-name="uni045B" unicode="&#x45b;" horiz-adv-x="578" 
d="M75 0v573h-70v65h70v72h86v-72h171v-65h-171v-130c38 48 97 65 155 65c113 0 193 -79 193 -203v-305h-86v300c0 73 -48 127 -126 127c-70 0 -118 -39 -136 -104v-323h-86z" />
    <glyph glyph-name="uni0457" unicode="&#x457;" horiz-adv-x="236" 
d="M23 571c-32 0 -61 24 -61 60c0 33 27 59 61 59c33 0 59 -26 59 -59c0 -35 -27 -60 -59 -60zM217 571c-32 0 -61 24 -61 60c0 33 27 59 61 59c33 0 59 -26 59 -59c0 -35 -27 -60 -59 -60zM75 0v500h86v-500h-86z" />
    <glyph glyph-name="uni0475" unicode="&#x475;" horiz-adv-x="529" 
d="M457 372l-195 -380l-264 508h100l165 -338l121 243c32 67 74 95 130 95v-79c-20 0 -38 -12 -57 -49z" />
    <glyph glyph-name="uni04AF" unicode="&#x4af;" horiz-adv-x="536" 
d="M225 -184v184l-221 500h97l167 -408l168 408h97l-222 -500v-184h-86z" />
    <glyph glyph-name="uni04BB" unicode="&#x4bb;" horiz-adv-x="578" 
d="M75 0v710h86v-267c38 48 97 65 155 65c113 0 193 -79 193 -203v-305h-86v300c0 73 -48 127 -126 127c-70 0 -118 -39 -136 -104v-323h-86z" />
    <glyph glyph-name="uni04CF" unicode="&#x4cf;" horiz-adv-x="236" 
d="M75 0v710h86v-710h-86z" />
    <glyph glyph-name="uni04D9" unicode="&#x4d9;" horiz-adv-x="571" 
d="M272 509c148 0 257 -114 257 -258c0 -145 -111 -258 -251 -258c-150 0 -244 115 -244 279h406c-9 96 -83 156 -168 156c-63 0 -114 -28 -146 -60l-55 60c43 45 114 81 201 81zM283 72c62 0 132 37 152 125h-304c12 -82 76 -126 152 -125z" />
    <glyph glyph-name="uni0463" unicode="&#x463;" horiz-adv-x="552" 
d="M219 500h209v-65h-209v-106h97c139 0 204 -71 204 -158s-65 -171 -204 -171h-182v435h-117v65h117v210h85v-210zM219 256v-179h107c66 0 111 35 111 95c0 58 -44 84 -109 84h-109z" />
    <glyph glyph-name="uni0439" unicode="&#x439;" horiz-adv-x="597" 
d="M400 710h69c-3 -102 -66 -156 -159 -156c-94 0 -157 55 -159 156h68c1 -68 39 -100 91 -100c51 0 88 32 90 100zM75 -8v508h85v-334l362 342v-508h-85v329z" />
    <glyph glyph-name="uni0451" unicode="&#x451;" horiz-adv-x="569" 
d="M407 571c-33 0 -61 25 -61 60c0 33 27 59 61 59c33 0 60 -26 60 -59c0 -36 -29 -60 -60 -60zM182 571c-33 0 -61 25 -61 60c0 33 27 59 61 59c33 0 60 -26 60 -59c0 -36 -29 -60 -60 -60zM299 -8c-148 0 -257 114 -257 258c0 145 111 258 251 258s242 -102 244 -279h-406
c9 -96 83 -156 168 -156c63 0 114 28 146 60l55 -60c-43 -45 -114 -81 -201 -81zM288 429c-62 0 -132 -37 -152 -125h304c-12 82 -76 126 -152 125z" />
    <glyph glyph-name="uni045C" unicode="&#x45c;" horiz-adv-x="504" 
d="M312 550h-71l85 160h109zM75 0v500h86v-247l221 247h105l-226 -251l250 -249h-112l-238 240v-240h-86z" />
    <glyph glyph-name="uni0491" unicode="&#x491;" horiz-adv-x="399" 
d="M75 0v500h226v127h81v-205h-222v-422h-85z" />
    <glyph glyph-name="uni0453" unicode="&#x453;" horiz-adv-x="399" 
d="M267 550h-71l85 160h109zM75 0v500h307v-78h-222v-422h-85z" />
    <glyph glyph-name="uni045E" unicode="&#x45e;" horiz-adv-x="507" 
d="M345 710h69c-3 -102 -66 -156 -159 -156c-94 0 -157 55 -159 156h68c1 -68 39 -100 91 -100c51 0 88 32 90 100zM107 -184l103 226l-204 458h93l156 -364l157 364h93l-307 -684h-91z" />
    <glyph glyph-name="uni0473" unicode="&#x473;" horiz-adv-x="602" 
d="M302 -8c-151 0 -260 114 -260 258s109 258 260 258c150 0 259 -114 259 -258s-109 -258 -259 -258zM302 427c-90 0 -155 -61 -168 -144h335c-13 83 -77 144 -167 144zM302 73c91 0 154 62 168 145h-337c14 -83 78 -145 169 -145z" />
    <glyph glyph-name="uni04E9" unicode="&#x4e9;" horiz-adv-x="602" 
d="M302 -8c-151 0 -260 114 -260 258s109 258 260 258c150 0 259 -114 259 -258s-109 -258 -259 -258zM302 427c-90 0 -155 -61 -168 -144h335c-13 83 -77 144 -167 144zM302 73c91 0 154 62 168 145h-337c14 -83 78 -145 169 -145z" />
    <glyph glyph-name="uni0493" unicode="&#x493;" horiz-adv-x="422" 
d="M98 0v230h-78v65h78v205h307v-78h-222v-127h128v-65h-128v-230h-85z" />
    <glyph glyph-name="uni04B1" unicode="&#x4b1;" horiz-adv-x="537" 
d="M92 -65v65h133l-221 500h97l167 -408l168 408h97l-222 -500h133v-65h-133v-119h-86v119h-133z" />
    <glyph glyph-name="uni04E3" unicode="&#x4e3;" horiz-adv-x="597" 
d="M164 614v65h292v-65h-292zM75 -8v508h85v-334l362 342v-508h-85v329z" />
    <glyph glyph-name="uni04EF" unicode="&#x4ef;" horiz-adv-x="507" 
d="M109 614v65h292v-65h-292zM107 -184l103 226l-204 458h93l156 -364l157 364h93l-307 -684h-91z" />
    <glyph glyph-name="uni0497" unicode="&#x497;" horiz-adv-x="784" 
d="M-1 0l245 249l-221 251h101l215 -247v247h86v-247l215 247h101l-221 -251l168 -171h80v-205h-80v127h-31l-232 240v-240h-86v240l-232 -240h-108z" />
    <glyph glyph-name="uni049B" unicode="&#x49b;" horiz-adv-x="523" 
d="M75 0v500h86v-247l221 247h105l-226 -251l172 -171h79v-205h-80v127h-33l-238 240v-240h-86z" />
    <glyph glyph-name="uni04A3" unicode="&#x4a3;" horiz-adv-x="625" 
d="M75 0v500h85v-206h270v206h85v-422h80v-205h-80v127h-85v216h-270v-216h-85z" />
    <glyph glyph-name="uni04B3" unicode="&#x4b3;" horiz-adv-x="543" 
d="M10 0l195 254l-185 246h99l139 -184l137 184h99l-185 -246l135 -176h80v-205h-80v127h-40l-147 194l-147 -194h-100z" />
    <glyph glyph-name="uni04B7" unicode="&#x4b7;" horiz-adv-x="569" 
d="M459 -127v127h-86v200c-49 -19 -91 -29 -141 -29c-116 0 -193 68 -193 190v139h86v-127c0 -93 57 -121 121 -121c34 0 84 8 127 31v217h86v-422h80v-205h-80z" />
    <glyph glyph-name="uni0446.loclBGR" horiz-adv-x="612" 
d="M262 -8c-114 0 -193 79 -193 203v305h86v-300c0 -73 48 -127 125 -127c40 0 107 12 136 100v327h86v-382c0 -22 12 -40 39 -40h41v-205h-80v127c-23 0 -61 23 -68 66c-37 -44 -93 -74 -172 -74z" />
    <glyph glyph-name="uni043F.loclBGR" horiz-adv-x="578" 
d="M75 0v500h86v-57c38 48 97 65 155 65c113 0 193 -79 193 -203v-305h-86v300c0 73 -48 127 -126 127c-70 0 -118 -39 -136 -104v-323h-86z" />
    <glyph glyph-name="uni0437.loclBGR" horiz-adv-x="484" 
d="M3 -78l71 54c22 -35 69 -89 147 -89c82 0 134 56 134 121c0 53 -32 127 -121 127h-84v81h82c57 0 101 58 101 109c0 52 -43 102 -112 102c-60 0 -106 -40 -131 -76l-64 52c35 52 101 105 201 105c119 0 195 -85 195 -175c0 -79 -34 -125 -80 -154
c71 -35 102 -100 102 -173c0 -114 -89 -200 -217 -200c-115 1 -183 51 -224 116z" />
    <glyph glyph-name="uni0448.loclBGR" horiz-adv-x="875" 
d="M155 500v-300c0 -73 42 -127 114 -127c55 0 100 29 123 101c-1 7 -1 14 -1 21v305h86v-300c0 -73 43 -127 115 -127c58 0 102 35 122 94v333h86v-500h-86v55c-37 -46 -91 -63 -141 -63c-74 0 -122 35 -151 82c-39 -55 -102 -82 -167 -82c-114 0 -186 79 -186 203v305h86z
" />
    <glyph glyph-name="uni0433.loclBGR" horiz-adv-x="420" 
d="M213 -8c-109 0 -177 63 -177 143c0 74 45 119 130 150l41 15c58 21 73 45 73 76c0 35 -33 55 -71 55c-39 0 -67 -19 -83 -52l-67 39c31 61 86 90 150 90c91 0 156 -58 156 -133c0 -60 -31 -115 -119 -148l-39 -15c-59 -21 -85 -42 -85 -80s40 -63 89 -63
c53 0 85 25 111 69l68 -46c-40 -67 -103 -100 -177 -100z" />
    <glyph glyph-name="uni0438.loclBGR" horiz-adv-x="577" 
d="M416 0v56c-39 -48 -96 -64 -154 -64c-114 0 -193 79 -193 203v305h86v-300c0 -73 48 -127 125 -127c69 0 116 37 136 100v327h86v-500h-86z" />
    <glyph glyph-name="uni044E.loclBGR" horiz-adv-x="793" 
d="M161 293h94c19 123 117 215 247 215c144 0 249 -114 249 -258s-105 -258 -249 -258c-133 0 -233 96 -248 224h-93v-216h-86v710h86v-417zM502 73c96 0 160 78 160 177s-64 177 -160 177s-161 -78 -161 -177s65 -177 161 -177z" />
    <glyph glyph-name="uni0432.loclBGR" horiz-adv-x="544" 
d="M296 -4h-32c-134 0 -194 74 -194 187v341c0 117 58 194 192 194c127 0 199 -87 199 -182c0 -63 -24 -118 -71 -145c65 -26 111 -100 111 -184c0 -135 -80 -211 -205 -211zM156 540v-114h103c73 0 113 42 113 109c0 57 -39 102 -110 102c-65 0 -106 -34 -106 -97zM264 77
h37c73 0 111 60 111 130c0 62 -32 138 -126 138h-130v-171c0 -63 43 -97 108 -97z" />
    <glyph glyph-name="uni0434.loclBGR" horiz-adv-x="611" 
d="M291 -194c-72 0 -153 20 -213 59l45 73c42 -31 105 -52 171 -52c87 0 168 32 168 126c0 17 -4 45 -13 63c-40 -39 -95 -60 -159 -60c-148 0 -247 107 -247 246c0 140 99 247 247 247c63 0 115 -21 156 -59v51h86v-398c13 -34 19 -69 19 -98c0 -144 -132 -198 -260 -198z
M292 95c71 0 127 35 154 82v169c-27 47 -83 81 -154 81c-95 0 -160 -71 -160 -166c0 -94 65 -166 160 -166z" />
    <glyph glyph-name="uni0439.loclBGR" horiz-adv-x="577" 
d="M375 710h69c-3 -102 -66 -156 -159 -156c-94 0 -157 55 -159 156h68c1 -68 39 -100 91 -100c51 0 88 32 90 100zM416 0v56c-39 -48 -96 -64 -154 -64c-114 0 -193 79 -193 203v305h86v-300c0 -73 48 -127 125 -127c69 0 116 37 136 100v327h86v-500h-86z" />
    <glyph glyph-name="uni0431.loclSRB" horiz-adv-x="594" 
d="M297 -8c-148 0 -255 115 -255 258c0 83 41 159 113 202c-52 18 -83 59 -83 112c0 84 50 146 173 146h226v-78h-220c-70 0 -98 -28 -98 -68s28 -69 120 -69h24c160 0 255 -117 255 -245c0 -143 -107 -258 -255 -258zM297 71c100 0 169 78 169 179c0 95 -68 167 -169 167
s-169 -72 -169 -167c0 -101 69 -179 169 -179z" />
    <glyph glyph-name="uni044C.loclBGR" horiz-adv-x="477" 
d="M70 500h86v-186h100c134 0 191 -75 191 -160c0 -84 -56 -162 -185 -162c-132 0 -192 76 -192 158v350zM156 236v-86c0 -52 40 -80 103 -80c66 0 103 30 103 84c0 56 -38 82 -101 82h-105z" />
    <glyph glyph-name="uni0449.loclBGR" horiz-adv-x="910" 
d="M255 -8c-114 0 -186 79 -186 203v305h86v-300c0 -73 42 -127 114 -127c50 0 103 27 123 102c-1 6 -1 13 -1 20v305h86v-300c0 -73 43 -127 115 -127c54 0 101 31 122 94v333h86v-382c0 -22 12 -40 39 -40h41v-205h-80v127c-22 0 -50 18 -63 48c-30 -33 -79 -56 -155 -56
c-61 0 -124 22 -161 81c-47 -65 -117 -81 -166 -81z" />
    <glyph glyph-name="uni0442.loclBGR" horiz-adv-x="875" 
d="M398 0v300c0 73 -43 127 -115 127c-58 0 -102 -35 -122 -94v-333h-86v500h86v-55c37 46 91 63 141 63c74 0 122 -35 151 -82c39 55 102 82 167 82c114 0 186 -79 186 -203v-305h-86v300c0 73 -42 127 -114 127c-55 0 -100 -29 -123 -101c1 -7 1 -14 1 -21v-305h-86z" />
    <glyph glyph-name="uni043A.loclBGR" horiz-adv-x="507" 
d="M75 0v710h86v-435l216 225h113l-228 -236l251 -264h-116l-236 249v-249h-86z" />
    <glyph glyph-name="uni0436.loclBGR" horiz-adv-x="764" 
d="M-1 0l245 249l-221 251h101l215 -247v457h86v-457l215 247h101l-221 -251l245 -249h-108l-232 240v-240h-86v240l-232 -240h-108z" />
    <glyph glyph-name="uni044A.loclBGR" horiz-adv-x="564" 
d="M534 154c0 -84 -56 -162 -185 -162c-132 0 -192 76 -192 158v272h-140v78h226v-186h100c134 0 191 -75 191 -160zM243 236v-86c0 -52 40 -80 103 -80c66 0 103 30 103 84c0 56 -38 82 -101 82h-105z" />
    <glyph glyph-name="cyrbreve" unicode="&#xf6d4;" 
d="M90 710h69c-3 -102 -66 -156 -159 -156c-94 0 -157 55 -159 156h68c1 -68 39 -100 91 -100c51 0 88 32 90 100z" />
    <glyph glyph-name="cyrbar" 
d="M41 500h-81v127h81v-127z" />
    <glyph glyph-name="Gbar" 
d="M146 230h-291v65h291v-65z" />
    <glyph glyph-name="Ocyrbar" 
d="M-190 224v65h381v-65h-381z" />
    <glyph glyph-name="Ybar" 
d="M-176 -65v65h352v-65h-352z" />
    <glyph glyph-name="barlow" 
d="M0 -127v127h-25v78h105v-205h-80z" />
    <glyph glyph-name="cyrbreve.case" unicode="&#xf6d1;" 
d="M87 914h72c-2 -101 -65 -156 -159 -156s-157 55 -159 156h72c1 -64 35 -97 87 -97s86 33 87 97z" />
    <glyph glyph-name="cyrbar.case" 
d="M45 710h-89v148h89v-148z" />
    <glyph glyph-name="wave.case" 
d="M-277 277l-5 86c51 35 122 51 167 51c84 0 143 -44 241 -44c44 0 107 10 155 37l1 -81c-48 -21 -105 -32 -146 -32c-97 0 -190 44 -263 44c-42 0 -94 -14 -150 -61z" />
    <glyph glyph-name="Gbar.case" horiz-adv-x="501" 
d="M69 397h363v-74h-363v74z" />
    <glyph glyph-name="Ocyrbar.case" 
d="M-319 297v74h638v-74h-638z" />
    <glyph glyph-name="Ybar.case" horiz-adv-x="536" 
d="M467 301v-74h-398v74h398z" />
    <glyph glyph-name="barlow.case" 
d="M-39 -148v148h-18v88h103v-236h-85z" />
    <glyph glyph-name="uni20B8" unicode="&#x20b8;" horiz-adv-x="564" 
d="M35 636v74h494v-74h-494zM236 0v491h-201v74h494v-74h-202v-491h-91z" />
    <glyph glyph-name="uni20BD" unicode="&#x20bd;" horiz-adv-x="610" 
d="M130 0v128h-76v74h76v74h-76v84h76v350h201c149 0 246 -83 246 -217c0 -132 -97 -217 -246 -217h-110v-74h198v-74h-198v-128h-91zM221 360h107c102 0 156 49 156 133c0 83 -54 133 -156 133h-107v-266z" />
    <glyph glyph-name="uni20B4" unicode="&#x20b4;" horiz-adv-x="609" 
d="M51 391v74h338c21 21 30 44 30 73c0 59 -49 93 -117 93c-62 0 -107 -24 -144 -68l-64 64c51 59 124 91 207 91c115 0 209 -70 209 -178c0 -27 -8 -52 -24 -75h66v-74h-501zM51 245v74h501v-74h-351c-13 -18 -20 -40 -20 -66c0 -62 52 -100 134 -100c69 0 127 39 161 83
l69 -60c-42 -60 -128 -110 -231 -110c-139 0 -225 74 -225 190c0 21 3 43 12 63h-50z" />
    <glyph glyph-name="ellipsis" unicode="&#x2026;" horiz-adv-x="748" 
d="M125 -8c-40 0 -74 33 -74 74c0 42 35 74 74 74s74 -32 74 -74c0 -41 -34 -74 -74 -74zM374 -8c-40 0 -74 33 -74 74c0 42 35 74 74 74s74 -32 74 -74c0 -41 -34 -74 -74 -74zM623 -8c-40 0 -74 33 -74 74c0 42 35 74 74 74s74 -32 74 -74c0 -41 -34 -74 -74 -74z" />
    <glyph glyph-name="endash" unicode="&#x2013;" horiz-adv-x="570" 
d="M68 233v81h434v-81h-434z" />
    <glyph glyph-name="emdash" unicode="&#x2014;" horiz-adv-x="867" 
d="M68 233v81h731v-81h-731z" />
    <glyph glyph-name="guilsinglleft" unicode="&#x2039;" horiz-adv-x="307" 
d="M194 29l-152 221l152 221l62 -42l-123 -179l123 -179z" />
    <glyph glyph-name="guilsinglright" unicode="&#x203a;" horiz-adv-x="307" 
d="M113 29l-62 42l123 179l-123 179l62 42l152 -221z" />
    <glyph glyph-name="quoteleft" unicode="&#x2018;" horiz-adv-x="244" 
d="M174 710l-43 -142h51v-123h-122v124l57 141h57z" />
    <glyph glyph-name="quoteright" unicode="&#x2019;" horiz-adv-x="234" 
d="M70 445l43 142h-51v123h122v-124l-57 -141h-57z" />
    <glyph glyph-name="uni02BB" unicode="&#x2bb;" horiz-adv-x="244" 
d="M174 710l-43 -142h51v-123h-122v124l57 141h57z" />
    <glyph glyph-name="uni02BC" unicode="&#x2bc;" horiz-adv-x="234" 
d="M70 445l43 142h-51v123h122v-124l-57 -141h-57z" />
    <glyph glyph-name="quotedblleft" unicode="&#x201c;" horiz-adv-x="439" 
d="M174 710l-43 -142h51v-123h-122v124l57 141h57zM369 710l-43 -142h51v-123h-122v124l57 141h57z" />
    <glyph glyph-name="quotedblright" unicode="&#x201d;" horiz-adv-x="429" 
d="M70 445l43 142h-51v123h122v-124l-57 -141h-57zM265 445l43 142h-51v123h122v-124l-57 -141h-57z" />
    <glyph glyph-name="quotesinglbase" unicode="&#x201a;" horiz-adv-x="258" 
d="M76 -142l43 142h-51v123h122v-124l-57 -141h-57z" />
    <glyph glyph-name="quotedblbase" unicode="&#x201e;" horiz-adv-x="453" 
d="M76 -142l43 142h-51v123h122v-124l-57 -141h-57zM271 -142l43 142h-51v123h122v-124l-57 -141h-57z" />
    <glyph glyph-name="bullet" unicode="&#x2022;" horiz-adv-x="420" 
d="M210 166c-75 0 -136 61 -136 136s61 136 136 136s136 -61 136 -136s-61 -136 -136 -136z" />
    <glyph glyph-name="dagger" unicode="&#x2020;" horiz-adv-x="509" 
d="M214 -98v517h-184v81h184v210h81v-210h184v-81h-184v-517h-81z" />
    <glyph glyph-name="daggerdbl" unicode="&#x2021;" horiz-adv-x="541" 
d="M230 -98v210h-184v81h184v226h-184v81h184v210h81v-210h184v-81h-184v-226h184v-81h-184v-210h-81z" />
    <glyph glyph-name="perthousand" unicode="&#x2030;" horiz-adv-x="733" 
d="M211 437c-78 0 -142 61 -142 140s64 140 142 140c80 0 145 -61 145 -140s-65 -140 -145 -140zM211 502c45 0 74 34 74 75s-29 74 -74 74c-42 0 -72 -33 -72 -74s30 -75 72 -75zM71 317v73h616v-73h-616zM211 -7c-78 0 -142 61 -142 140s64 140 142 140
c80 0 145 -61 145 -140s-65 -140 -145 -140zM537 -7c-78 0 -142 61 -142 140s64 140 142 140c80 0 145 -61 145 -140s-65 -140 -145 -140zM211 58c45 0 74 34 74 75s-29 75 -74 75c-42 0 -72 -34 -72 -75s30 -75 72 -75zM537 58c45 0 74 34 74 75s-29 75 -74 75
c-42 0 -72 -34 -72 -75s30 -75 72 -75z" />
    <glyph glyph-name="uni2117" unicode="&#x2117;" horiz-adv-x="816" 
d="M408 -9c-200 0 -363 164 -363 363c0 200 163 364 363 364s363 -164 363 -364c0 -199 -163 -363 -363 -363zM407 61c162 0 294 132 294 293c0 162 -132 294 -294 294c-161 0 -293 -132 -293 -294c0 -161 132 -293 293 -293zM317 186v336h97c71 0 127 -38 127 -113
c0 -72 -56 -112 -127 -112h-29v-111h-68zM385 359h25c40 0 61 15 61 50s-21 51 -61 51h-25v-101z" />
    <glyph glyph-name="trademark" unicode="&#x2122;" horiz-adv-x="799" 
d="M355 355v371l183 -180l183 180v-371h-65v228l-118 -116l-119 116v-228h-64zM131 355v295h-96v60h260v-60h-98v-295h-66z" />
    <glyph glyph-name="afii61352" unicode="&#x2116;" horiz-adv-x="1133" 
d="M692 -8l-506 513v-505h-91v718l506 -513v505h91v-718zM936 405c-89 0 -156 67 -156 155s67 155 156 155c88 0 155 -67 155 -155s-67 -155 -155 -155zM936 471c49 0 84 38 84 89s-35 89 -84 89c-50 0 -85 -38 -85 -89s35 -89 85 -89zM790 265v76h291v-76h-291z" />
    <glyph glyph-name="apple" unicode="&#xf8ff;" horiz-adv-x="602" 
d="M301 -8c-142 0 -258 116 -258 258s116 258 258 258l-60 -151h88l-52 -137l188 194h-117l33 81c103 -34 178 -131 178 -245c0 -142 -116 -258 -258 -258z" />
    <glyph glyph-name="minus" unicode="&#x2212;" horiz-adv-x="590" 
d="M76 240v70h438v-70h-438z" />
    <glyph glyph-name="lessequal" unicode="&#x2264;" horiz-adv-x="590" 
d="M521 118l-460 209l460 210v-77l-293 -133l293 -131v-78zM61 0v70h460v-70h-460z" />
    <glyph glyph-name="greaterequal" unicode="&#x2265;" horiz-adv-x="590" 
d="M69 118v78l293 131l-293 133v77l461 -210zM69 0v70h461v-70h-461z" />
    <glyph glyph-name="notequal" unicode="&#x2260;" horiz-adv-x="590" 
d="M143 12l-55 40l57 79h-72v70h123l107 149h-230v70h281l86 119l55 -40l-57 -79h79v-70h-130l-107 -149h237v-70h-288z" />
    <glyph glyph-name="approxequal" unicode="&#x2248;" horiz-adv-x="590" 
d="M87 300v86l108 73l198 -75l112 74v-82l-108 -75l-199 75zM87 112v86l108 73l198 -75l112 74v-82l-108 -75l-199 75z" />
    <glyph glyph-name="uni2007" unicode="&#x2007;" horiz-adv-x="824" 
 />
    <glyph glyph-name="uni2008" unicode="&#x2008;" horiz-adv-x="250" 
 />
    <glyph glyph-name="uni2009" unicode="&#x2009;" horiz-adv-x="50" 
 />
    <glyph glyph-name="uni200B" unicode="&#x200b;" 
 />
    <glyph glyph-name="uni2060" unicode="&#x2060;" 
 />
    <glyph glyph-name="uniFEFF" unicode="&#xfeff;" 
 />
    <glyph glyph-name="Euro" unicode="&#x20ac;" horiz-adv-x="760" 
d="M35 232l25 74h102c-2 16 -3 32 -3 49c0 10 0 20 1 29h-125l25 74h113c41 154 176 260 344 260c87 0 150 -22 208 -61l-33 -76c-44 33 -100 58 -175 58c-135 0 -221 -82 -256 -181h397l-26 -74h-387c-1 -10 -1 -19 -1 -29c0 -17 1 -33 4 -49h358l-25 -74h-312
c41 -95 130 -161 248 -161c64 0 126 18 175 54v-86c-38 -25 -101 -47 -175 -47c-159 0 -290 97 -338 240h-144z" />
    <glyph glyph-name="uniFB00" unicode="&#xfb00;" horiz-adv-x="704" 
d="M113 0v422h-86v78h84c-23 22 -37 54 -37 88c0 70 58 122 146 122h118v-78h-104c-43 0 -76 -20 -76 -63c0 -44 36 -67 69 -69h111v-78h-139v-422h-86zM465 0v422h-86v78h84c-23 22 -37 54 -37 88c0 70 58 122 146 122h118v-78h-104c-43 0 -76 -20 -76 -63
c0 -44 36 -67 69 -69h111v-78h-139v-422h-86z" />
    <glyph glyph-name="fi" unicode="&#xfb01;" horiz-adv-x="588" 
d="M427 609c-12 11 -19 27 -19 46c0 35 27 63 62 63s62 -28 62 -63c0 -19 -7 -35 -19 -46h-86zM113 0v422h-86v78h84c-23 22 -37 54 -37 88c0 70 58 122 146 122h118v-78h-104c-43 0 -76 -20 -76 -63c0 -44 36 -67 69 -69h111v-78h-139v-422h-86zM427 0v500h86v-500h-86z
" />
    <glyph glyph-name="uniFB03" unicode="&#xfb03;" horiz-adv-x="940" 
d="M779 609c-12 11 -19 27 -19 46c0 35 27 63 62 63s62 -28 62 -63c0 -19 -7 -35 -19 -46h-86zM465 0v422h-86v78h84c-23 22 -37 54 -37 88c0 70 58 122 146 122h118v-78h-104c-43 0 -76 -20 -76 -63c0 -44 36 -67 69 -69h111v-78h-139v-422h-86zM113 0v422h-86v78h84
c-23 22 -37 54 -37 88c0 70 58 122 146 122h118v-78h-104c-43 0 -76 -20 -76 -63c0 -44 36 -67 69 -69h111v-78h-139v-422h-86zM779 0v500h86v-500h-86z" />
    <glyph glyph-name="fl" unicode="&#xfb02;" horiz-adv-x="588" 
d="M113 0v422h-86v78h84c-23 22 -37 54 -37 88c0 70 58 122 146 122h118v-78h-104c-43 0 -76 -20 -76 -63c0 -44 36 -67 69 -69h111v-78h-139v-422h-86zM427 0v710h86v-710h-86z" />
    <glyph glyph-name="uniFB04" unicode="&#xfb04;" horiz-adv-x="940" 
d="M465 0v422h-86v78h84c-23 22 -37 54 -37 88c0 70 58 122 146 122h118v-78h-104c-43 0 -76 -20 -76 -63c0 -44 36 -67 69 -69h111v-78h-139v-422h-86zM779 0v710h86v-710h-86zM113 0v422h-86v78h84c-23 22 -37 54 -37 88c0 70 58 122 146 122h118v-78h-104
c-43 0 -76 -20 -76 -63c0 -44 36 -67 69 -69h111v-78h-139v-422h-86z" />
    <glyph glyph-name="dot" unicode="&#x27d1;" horiz-adv-x="218" 
d="M66 609c-12 11 -19 27 -19 46c0 35 27 63 62 63s62 -28 62 -63c0 -19 -7 -35 -19 -46h-86z" />
    <glyph glyph-name="breve" unicode="&#x2d8;" 
d="M0 573c-98 0 -153 60 -158 137h67c3 -41 34 -78 91 -78s88 37 91 78h67c-5 -77 -60 -137 -158 -137z" />
    <glyph glyph-name="caron" unicode="&#x2c7;" 
d="M-1 553l-161 109l38 55l123 -83l123 83l38 -55z" />
    <glyph glyph-name="circumflex" unicode="&#x2c6;" 
d="M0 718l161 -109l-38 -55l-123 83l-123 -83l-38 55z" />
    <glyph glyph-name="dotaccent" unicode="&#x2d9;" 
d="M1 571c-32 0 -61 24 -61 60c0 33 27 59 61 59c33 0 59 -26 59 -59c0 -35 -27 -60 -59 -60z" />
    <glyph glyph-name="dotaccent.l" 
d="M1 441c-32 0 -61 24 -61 60c0 33 27 59 61 59c33 0 59 -26 59 -59c0 -35 -27 -60 -59 -60z" />
    <glyph glyph-name="dotaccent.low" 
d="M1 -190c-32 0 -61 24 -61 60c0 33 27 59 61 59c33 0 59 -26 59 -59c0 -35 -27 -60 -59 -60z" />
    <glyph glyph-name="hungarumlaut" unicode="&#x2dd;" 
d="M-177 549l85 161h101l-123 -161h-63zM-8 549l85 161h101l-123 -161h-63z" />
    <glyph glyph-name="commaaccent" unicode="&#x326;" 
d="M-82 -215l69 165h100l-104 -165h-65z" />
    <glyph glyph-name="ogonek" unicode="&#x2db;" 
d="M22 -192c-55 0 -105 29 -105 86c0 49 44 90 80 106h86c-54 -24 -82 -56 -82 -86c0 -25 17 -41 50 -41c14 0 25 4 33 7v-59c-18 -10 -39 -13 -62 -13z" />
    <glyph glyph-name="ring" unicode="&#x2da;" 
d="M0 566c-55 0 -99 41 -99 94c0 55 45 95 99 95s99 -40 99 -95c0 -53 -44 -94 -99 -94zM0 613c26 0 48 19 48 47c0 29 -22 48 -48 48s-48 -19 -48 -48c0 -28 22 -47 48 -47z" />
    <glyph glyph-name="tilde" unicode="&#x2dc;" 
d="M-172 566l3 19c12 60 57 94 103 94c56 0 93 -44 126 -44c28 0 41 15 48 44h66l-3 -18c-11 -56 -53 -94 -103 -94c-56 0 -94 44 -128 44c-26 0 -39 -15 -46 -45h-66z" />
    <glyph glyph-name="caron.slovak" 
d="M-56 545l25 165h87l-51 -165h-61z" />
    <glyph glyph-name="commaaccent.top" 
d="M82 710l-69 -165h-100l104 165h65z" />
    <glyph glyph-name="dieresis.i" 
d="M-101 571c-33 0 -61 25 -61 60c0 32 27 59 61 59c33 0 60 -27 60 -59c0 -35 -28 -60 -60 -60zM102 571c-33 0 -61 25 -61 60c0 32 27 59 61 59c33 0 60 -27 60 -59c0 -35 -28 -60 -60 -60z" />
    <glyph glyph-name="slash.o" 
d="M-211 -58l-54 45l476 572l54 -45z" />
    <glyph glyph-name="bar.dcroat" 
d="M-163 573v65h327v-65h-327z" />
    <glyph glyph-name="bar.html" 
d="M-163 573v65h327v-65h-327z" />
    <glyph glyph-name="slash.l" 
d="M-123 254l-37 57l284 184l37 -57z" />
    <glyph glyph-name="bar-2.html" 
d="M-160 261v65h320v-65h-320z" />
    <glyph glyph-name="zero.slashed" horiz-adv-x="824" 
d="M412 -8c-203 0 -364 159 -364 363s161 363 364 363s364 -159 364 -363s-161 -363 -364 -363zM136 355c0 -18 1 -35 4 -52l518 186c-45 90 -135 150 -246 150c-160 0 -276 -124 -276 -284zM412 71c160 0 277 124 277 284c0 20 -2 39 -5 58l-520 -186
c43 -94 134 -156 248 -156z" />
    <glyph glyph-name="one.pof" horiz-adv-x="243" 
d="M77 0v468l85 86v-554h-85z" />
    <glyph glyph-name="two.pof" horiz-adv-x="508" 
d="M16 0l225 188c-112 4 -172 98 -172 177c0 102 80 183 193 183s193 -81 193 -183c0 -86 -52 -141 -127 -204l-99 -83h228v-78h-441zM263 258c61 0 108 49 108 107s-47 106 -108 106c-67 0 -111 -48 -111 -106s44 -107 111 -107z" />
    <glyph glyph-name="three.pof" horiz-adv-x="506" 
d="M226 -178c-83 0 -163 43 -204 109l66 51c24 -45 75 -81 137 -81c88 0 154 61 154 154c0 92 -62 158 -159 158h-63l143 247h-249v80h382l-148 -257c122 -27 182 -126 182 -228c0 -130 -97 -233 -241 -233z" />
    <glyph glyph-name="four.pof" horiz-adv-x="626" 
d="M416 -170v196h-401l486 522v-442h93v-80h-93v-196h-85zM190 106h226v243z" />
    <glyph glyph-name="five.pof" horiz-adv-x="511" 
d="M243 -178c-85 0 -167 43 -207 109l67 52c23 -45 76 -82 138 -82c88 0 152 64 152 152c0 89 -61 156 -156 156c-54 0 -90 -30 -111 -55l-59 25v361h358v-80h-272v-192c32 13 62 19 87 19c150 0 240 -105 240 -234c0 -128 -96 -231 -237 -231z" />
    <glyph glyph-name="six.pof" horiz-adv-x="540" 
d="M277 -8c-132 0 -235 103 -235 231c0 49 18 93 41 132l212 355h99l-158 -262c18 5 30 6 46 6c125 0 231 -104 231 -231c0 -128 -104 -231 -236 -231zM277 71c88 0 148 68 148 152s-60 152 -148 152c-87 0 -148 -68 -148 -152s61 -152 148 -152z" />
    <glyph glyph-name="seven.pof" horiz-adv-x="490" 
d="M56 -170l302 630h-336v80h465l-340 -710h-91z" />
    <glyph glyph-name="eight.pof" horiz-adv-x="546" 
d="M273 -8c-126 0 -228 97 -228 228c0 84 42 154 106 194c-33 31 -54 76 -54 128c0 102 79 176 176 176s176 -74 176 -176c0 -52 -21 -97 -54 -128c63 -40 106 -110 106 -194c0 -131 -102 -228 -228 -228zM273 637c-50 0 -91 -40 -91 -95s41 -95 91 -95s91 40 91 95
s-41 95 -91 95zM273 73c78 0 139 64 139 147s-61 147 -139 147s-139 -64 -139 -147s61 -147 139 -147z" />
    <glyph glyph-name="nine.pof" horiz-adv-x="529" 
d="M260 549c132 0 235 -103 235 -231c0 -49 -18 -93 -41 -132l-212 -355h-99l158 262c-18 -5 -30 -6 -46 -6c-125 0 -231 104 -231 231c0 128 104 231 236 231zM260 470c-88 0 -148 -68 -148 -152s60 -152 148 -152c87 0 148 68 148 152s-61 152 -148 152z" />
    <glyph glyph-name="zero.pof" horiz-adv-x="647" 
d="M324 -8c-161 0 -280 125 -280 278s119 278 280 278c160 0 279 -125 279 -278s-119 -278 -279 -278zM324 71c117 0 192 88 192 199s-75 199 -192 199s-193 -88 -193 -199s76 -199 193 -199z" />
    <glyph glyph-name="zero.slashed.pof" horiz-adv-x="647" 
d="M324 -8c-161 0 -280 125 -280 278s119 278 280 278c160 0 279 -125 279 -278s-119 -278 -279 -278zM131 270c0 -18 2 -35 6 -52l346 169c-33 50 -88 82 -159 82c-117 0 -193 -88 -193 -199zM324 71c117 0 192 88 192 199c0 17 -2 34 -5 50l-345 -169
c33 -49 88 -80 158 -80z" />
    <glyph glyph-name="one.tlf" horiz-adv-x="590" 
d="M119 0v80h138v550h-87v80h173v-630h138v-80h-362z" />
    <glyph glyph-name="two.tlf" horiz-adv-x="590" 
d="M47 0l275 299c-18 -3 -25 -3 -33 -3c-121 3 -206 96 -206 209c0 120 94 213 215 213s216 -93 216 -213c0 -84 -37 -150 -123 -243l-164 -182h287v-80h-467zM298 371c76 0 131 57 131 134c0 76 -55 134 -131 134c-77 0 -130 -58 -130 -134c0 -77 53 -134 130 -134z" />
    <glyph glyph-name="three.tlf" horiz-adv-x="590" 
d="M268 -8c-83 0 -163 43 -204 109l66 51c24 -45 75 -81 137 -81c88 0 154 61 154 154c0 92 -62 158 -159 158h-63l143 247h-249v80h382l-148 -257c122 -27 182 -126 182 -228c0 -130 -97 -233 -241 -233z" />
    <glyph glyph-name="four.tlf" horiz-adv-x="590" 
d="M391 0v196h-401l486 522v-442h93v-80h-93v-196h-85zM165 276h226v243z" />
    <glyph glyph-name="five.tlf" horiz-adv-x="590" 
d="M284 -8c-85 0 -167 43 -207 109l67 52c23 -45 76 -82 138 -82c88 0 152 64 152 152c0 89 -61 156 -156 156c-54 0 -90 -30 -111 -55l-59 25v361h358v-80h-272v-192c32 13 62 19 87 19c150 0 240 -105 240 -234c0 -128 -96 -231 -237 -231z" />
    <glyph glyph-name="six.tlf" horiz-adv-x="590" 
d="M302 -8c-132 0 -235 103 -235 231c0 49 18 93 41 132l212 355h99l-158 -262c18 5 30 6 46 6c125 0 231 -104 231 -231c0 -128 -104 -231 -236 -231zM302 71c88 0 148 68 148 152s-60 152 -148 152c-87 0 -148 -68 -148 -152s61 -152 148 -152z" />
    <glyph glyph-name="seven.tlf" horiz-adv-x="590" 
d="M108 0l302 630h-336v80h465l-340 -710h-91z" />
    <glyph glyph-name="eight.tlf" horiz-adv-x="590" 
d="M295 -8c-126 0 -228 97 -228 228c0 84 42 154 106 194c-33 31 -54 76 -54 128c0 102 79 176 176 176s176 -74 176 -176c0 -52 -21 -97 -54 -128c63 -40 106 -110 106 -194c0 -131 -102 -228 -228 -228zM295 637c-50 0 -91 -40 -91 -95s41 -95 91 -95s91 40 91 95
s-41 95 -91 95zM295 73c78 0 139 64 139 147s-61 147 -139 147s-139 -64 -139 -147s61 -147 139 -147z" />
    <glyph glyph-name="nine.tlf" horiz-adv-x="590" 
d="M172 -1l158 262c-18 -5 -30 -6 -46 -6c-125 0 -231 104 -231 231c0 128 104 232 236 232s235 -104 235 -232c0 -49 -19 -93 -42 -132l-212 -355h-98zM289 334c87 0 148 68 148 152s-61 153 -148 153c-88 0 -148 -69 -148 -153s60 -152 148 -152z" />
    <glyph glyph-name="zero.tlf" horiz-adv-x="590" 
d="M296 -8c-161 0 -280 125 -280 278s119 278 280 278c160 0 279 -125 279 -278s-119 -278 -279 -278zM296 71c117 0 192 88 192 199s-75 199 -192 199s-193 -88 -193 -199s76 -199 193 -199z" />
    <glyph glyph-name="zero.slashed.tlf" horiz-adv-x="590" 
d="M296 -8c-161 0 -280 125 -280 278s119 278 280 278c160 0 279 -125 279 -278s-119 -278 -279 -278zM103 270c0 -18 2 -35 6 -52l346 169c-33 50 -88 82 -159 82c-117 0 -193 -88 -193 -199zM296 71c117 0 192 88 192 199c0 17 -2 34 -5 50l-345 -169
c33 -49 88 -80 158 -80z" />
    <glyph glyph-name="uni21B2" unicode="&#x21b2;" horiz-adv-x="818" 
d="M331 -57l-306 306l306 306l48 -50l-220 -220h514v397h72v-469h-586l220 -221z" />
    <glyph glyph-name="uni21B3" unicode="&#x21b3;" horiz-adv-x="818" 
d="M487 -57l-48 49l220 221h-586v469h72v-397h514l-220 220l48 50l306 -306z" />
    <glyph glyph-name="uni21B0" unicode="&#x21b0;" horiz-adv-x="806" 
d="M330 555l48 -49l-220 -221h586v-469h-72v397h-514l220 -220l-48 -50l-306 306z" />
    <glyph glyph-name="uni21B1" unicode="&#x21b1;" horiz-adv-x="806" 
d="M476 555l306 -306l-306 -306l-48 50l220 220h-514v-397h-72v469h586l-220 221z" />
    <glyph glyph-name="uni2190" unicode="&#x2190;" horiz-adv-x="781" 
d="M330 -55l-306 306l306 306l48 -50l-220 -220h586v-72h-586l220 -221z" />
    <glyph glyph-name="uni2191" unicode="&#x2191;" horiz-adv-x="662" 
d="M25 414l306 306l306 -306l-50 -48l-220 220v-586h-72v586l-221 -220z" />
    <glyph glyph-name="uni2192" unicode="&#x2192;" horiz-adv-x="781" 
d="M451 -55l-48 49l220 221h-586v72h586l-220 220l48 50l306 -306z" />
    <glyph glyph-name="uni2193" unicode="&#x2193;" horiz-adv-x="664" 
d="M638 296l-306 -306l-306 306l50 48l220 -220v586h72v-586l221 220z" />
    <glyph glyph-name="uni2196" unicode="&#x2196;" horiz-adv-x="673" 
d="M595 10l-444 443v-314h-69v433h433v-70h-314l443 -442z" />
    <glyph glyph-name="uni2197" unicode="&#x2197;" horiz-adv-x="673" 
d="M78 10l-49 50l443 442h-314v70h433v-433h-69v314z" />
    <glyph glyph-name="uni2198" unicode="&#x2198;" horiz-adv-x="660" 
d="M74 562l444 -443v314h69v-433h-433v70h314l-443 442z" />
    <glyph glyph-name="uni2199" unicode="&#x2199;" horiz-adv-x="660" 
d="M635 513l-443 -444h314v-69h-433v433h70v-314l442 443z" />
    <glyph glyph-name="uni219E" unicode="&#x219e;" horiz-adv-x="783" 
d="M330 -55l-306 306l306 306l48 -50l-220 -220h168l270 270l48 -50l-220 -220h320v-72h-320l220 -221l-48 -49l-270 270h-168l220 -221z" />
    <glyph glyph-name="uni219F" unicode="&#x219f;" horiz-adv-x="680" 
d="M34 148l270 270v168l-221 -220l-49 48l306 306l306 -306l-50 -48l-220 220v-168l270 -270l-50 -48l-220 220v-320h-72v320l-221 -220z" />
    <glyph glyph-name="uni21A0" unicode="&#x21a0;" horiz-adv-x="783" 
d="M187 -55l-48 49l220 221h-320v72h320l-220 220l48 50l270 -270h168l-220 220l48 50l306 -306l-306 -306l-48 49l220 221h-168z" />
    <glyph glyph-name="uni21A1" unicode="&#x21a1;" horiz-adv-x="682" 
d="M647 296l-306 -306l-306 306l50 48l220 -220v168l-270 270l50 48l220 -220v320h72v-320l221 220l49 -48l-270 -270v-168l221 220z" />
    <glyph glyph-name="uni21A2" unicode="&#x21a2;" horiz-adv-x="870" 
d="M329 -56l-306 306l306 306l49 -49l-221 -221h352l270 270l49 -49l-257 -257l257 -256l-49 -50l-270 270h-352l221 -220z" />
    <glyph glyph-name="uni21A3" unicode="&#x21a3;" horiz-adv-x="870" 
d="M91 -56l-49 50l257 256l-257 257l49 49l270 -270h352l-221 221l49 49l306 -306l-306 -306l-49 50l221 220h-352z" />
    <glyph glyph-name="uni21A4" unicode="&#x21a4;" horiz-adv-x="842" 
d="M329 -56l-306 306l306 306l48 -50l-220 -220h516v214h70v-500h-70v214h-516l220 -221z" />
    <glyph glyph-name="uni21A5" unicode="&#x21a5;" horiz-adv-x="670" 
d="M85 0v70h214v516l-221 -220l-49 48l306 306l306 -306l-50 -48l-220 220v-516h214v-70h-500z" />
    <glyph glyph-name="uni21A6" unicode="&#x21a6;" horiz-adv-x="842" 
d="M99 0v500h70v-214h516l-220 221l48 49l306 -306l-306 -306l-48 50l220 220h-516v-214h-70z" />
    <glyph glyph-name="uni21A7" unicode="&#x21a7;" horiz-adv-x="674" 
d="M87 640v70h500v-70h-214v-516l221 220l49 -48l-306 -306l-306 306l50 48l220 -220v516h-214z" />
    <glyph glyph-name="uni25A0" unicode="&#x25a0;" horiz-adv-x="674" 
d="M87 0v500h500v-500h-500z" />
    <glyph glyph-name="uni25A1" unicode="&#x25a1;" horiz-adv-x="709" 
d="M104 0v500h501v-500h-501zM190 83h329v334h-329v-334z" />
    <glyph glyph-name="uni25CF" unicode="&#x25cf;" horiz-adv-x="620" 
d="M310 -10c-146 0 -265 119 -265 265s119 265 265 265s265 -119 265 -265s-119 -265 -265 -265z" />
    <glyph glyph-name="onethird" unicode="&#x2153;" horiz-adv-x="720" 
d="M58 287v364l69 65v-429h-69zM9 0l500 710h80l-500 -710h-80zM543 -5c-52 0 -106 26 -131 71l52 41c18 -32 44 -49 80 -49c43 0 71 38 71 80c0 41 -30 77 -84 77h-42l74 146h-133v63h238l-80 -155c61 -17 98 -60 98 -131c0 -73 -54 -143 -143 -143z" />
    <glyph glyph-name="uni2155" unicode="&#x2155;" horiz-adv-x="726" 
d="M58 287v364l69 65v-429h-69zM9 0l500 710h80l-500 -710h-80zM554 -5c-53 0 -105 22 -132 71l52 41c17 -29 43 -49 81 -49c43 0 71 36 71 77c0 43 -28 80 -74 80c-40 0 -57 -21 -66 -35l-47 18v226h219v-63h-150v-91c19 6 35 8 49 8c90 0 140 -67 140 -143
c0 -74 -57 -140 -143 -140z" />
    <glyph glyph-name="uni2159" unicode="&#x2159;" horiz-adv-x="688" 
d="M58 287v364l69 65v-429h-69zM9 0l500 710h80l-500 -710h-80zM517 -5c-79 0 -144 63 -144 140c0 32 13 58 28 83l121 206h79l-89 -148h10c81 0 140 -58 140 -141c0 -77 -58 -140 -145 -140zM517 58c45 0 74 35 74 77c0 43 -29 78 -74 78c-43 0 -73 -35 -73 -78
c0 -42 30 -77 73 -77z" />
    <glyph glyph-name="uni2150" unicode="&#x2150;" horiz-adv-x="714" 
d="M58 287v364l69 65v-429h-69zM9 0l500 710h80l-500 -710h-80zM444 0l163 361h-178v63h281l-193 -424h-73z" />
    <glyph glyph-name="oneeighth" unicode="&#x215b;" horiz-adv-x="726" 
d="M58 287v364l69 65v-429h-69zM9 0l500 710h80l-500 -710h-80zM547 -5c-75 0 -144 49 -144 138c0 55 28 87 61 109c-18 16 -31 46 -31 75c0 70 53 112 114 112s114 -42 114 -112c0 -29 -13 -59 -31 -75c33 -22 61 -54 61 -109c0 -89 -69 -138 -144 -138zM547 272
c26 0 47 21 47 47s-21 47 -47 47s-47 -21 -47 -47s21 -47 47 -47zM547 58c40 0 73 33 73 73s-33 73 -73 73s-73 -33 -73 -73s33 -73 73 -73z" />
    <glyph glyph-name="uni2151" unicode="&#x2151;" horiz-adv-x="731" 
d="M58 287v364l69 65v-429h-69zM9 0l500 710h80l-500 -710h-80zM559 429c79 0 144 -63 144 -140c0 -32 -13 -58 -28 -83l-121 -206h-79l89 148h-10c-81 0 -140 58 -140 141c0 77 58 140 145 140zM559 366c-45 0 -74 -35 -74 -77c0 -43 29 -78 74 -78c43 0 73 35 73 78
c0 42 -30 77 -73 77z" />
    <glyph glyph-name="uni2152" unicode="&#x2152;" horiz-adv-x="1083" 
d="M58 287v364l69 65v-429h-69zM9 0l500 710h80l-500 -710h-80zM446 0v364l69 65v-429h-69zM829 -5c-121 0 -217 96 -217 217c0 122 96 217 217 217s218 -95 218 -217c0 -121 -97 -217 -218 -217zM829 58c88 0 149 69 149 154c0 86 -61 154 -149 154s-147 -68 -147 -154
c0 -85 59 -154 147 -154z" />
    <glyph glyph-name="twothirds" unicode="&#x2154;" horiz-adv-x="867" 
d="M21 287l147 169c-74 5 -129 55 -129 128c0 74 65 132 141 132s140 -58 140 -132c0 -60 -30 -91 -83 -151l-72 -82h146v-64h-290zM156 0l500 710h80l-500 -710h-80zM180 514c38 0 69 31 69 70c0 38 -31 69 -69 69c-39 0 -70 -31 -70 -69c0 -39 31 -70 70 -70zM690 -5
c-52 0 -106 26 -131 71l52 41c18 -32 44 -49 80 -49c43 0 71 38 71 80c0 41 -30 77 -84 77h-42l74 146h-133v63h238l-80 -155c61 -17 98 -60 98 -131c0 -73 -54 -143 -143 -143z" />
    <glyph glyph-name="uni2156" unicode="&#x2156;" horiz-adv-x="873" 
d="M21 287l147 169c-74 5 -129 55 -129 128c0 74 65 132 141 132s140 -58 140 -132c0 -60 -30 -91 -83 -151l-72 -82h146v-64h-290zM156 0l500 710h80l-500 -710h-80zM180 514c38 0 69 31 69 70c0 38 -31 69 -69 69c-39 0 -70 -31 -70 -69c0 -39 31 -70 70 -70zM701 -5
c-53 0 -105 22 -132 71l52 41c17 -29 43 -49 81 -49c43 0 71 36 71 77c0 43 -28 80 -74 80c-40 0 -57 -21 -66 -35l-47 18v226h219v-63h-150v-91c19 6 35 8 49 8c90 0 140 -67 140 -143c0 -74 -57 -140 -143 -140z" />
    <glyph glyph-name="uni2157" unicode="&#x2157;" horiz-adv-x="850" 
d="M155 281c-52 0 -106 26 -131 71l52 41c18 -32 44 -49 80 -49c43 0 71 38 71 80c0 41 -30 77 -84 77h-42l74 146h-133v63h238l-80 -155c61 -17 98 -60 98 -131c0 -73 -54 -143 -143 -143zM133 0l500 710h80l-500 -710h-80zM678 -5c-53 0 -105 22 -132 71l52 41
c17 -29 43 -49 81 -49c43 0 71 36 71 77c0 43 -28 80 -74 80c-40 0 -57 -21 -66 -35l-47 18v226h219v-63h-150v-91c19 6 35 8 49 8c90 0 140 -67 140 -143c0 -74 -57 -140 -143 -140z" />
    <glyph glyph-name="threeeighths" unicode="&#x215c;" horiz-adv-x="850" 
d="M155 281c-52 0 -106 26 -131 71l52 41c18 -32 44 -49 80 -49c43 0 71 38 71 80c0 41 -30 77 -84 77h-42l74 146h-133v63h238l-80 -155c61 -17 98 -60 98 -131c0 -73 -54 -143 -143 -143zM133 0l500 710h80l-500 -710h-80zM671 -5c-75 0 -144 49 -144 138
c0 55 28 87 61 109c-18 16 -31 46 -31 75c0 70 53 112 114 112s114 -42 114 -112c0 -29 -13 -59 -31 -75c33 -22 61 -54 61 -109c0 -89 -69 -138 -144 -138zM671 272c26 0 47 21 47 47s-21 47 -47 47s-47 -21 -47 -47s21 -47 47 -47zM671 58c40 0 73 33 73 73s-33 73 -73 73
s-73 -33 -73 -73s33 -73 73 -73z" />
    <glyph glyph-name="uni2158" unicode="&#x2158;" horiz-adv-x="912" 
d="M240 287v114h-232l301 315v-252h53v-63h-53v-114h-69zM195 0l500 710h80l-500 -710h-80zM148 464h92v94zM740 -5c-53 0 -105 22 -132 71l52 41c17 -29 43 -49 81 -49c43 0 71 36 71 77c0 43 -28 80 -74 80c-40 0 -57 -21 -66 -35l-47 18v226h219v-63h-150v-91
c19 6 35 8 49 8c90 0 140 -67 140 -143c0 -74 -57 -140 -143 -140z" />
    <glyph glyph-name="uni215A" unicode="&#x215a;" horiz-adv-x="818" 
d="M166 281c-53 0 -105 22 -132 71l52 41c17 -29 43 -49 81 -49c43 0 71 36 71 77c0 43 -28 80 -74 80c-40 0 -57 -21 -66 -35l-47 18v226h219v-63h-150v-91c19 6 35 8 49 8c90 0 140 -67 140 -143c0 -74 -57 -140 -143 -140zM139 0l500 710h80l-500 -710h-80zM647 -5
c-79 0 -144 63 -144 140c0 32 13 58 28 83l121 206h79l-89 -148h10c81 0 140 -58 140 -141c0 -77 -58 -140 -145 -140zM647 58c45 0 74 35 74 77c0 43 -29 78 -74 78c-43 0 -73 -35 -73 -78c0 -42 30 -77 73 -77z" />
    <glyph glyph-name="fiveeighths" unicode="&#x215d;" horiz-adv-x="856" 
d="M166 281c-53 0 -105 22 -132 71l52 41c17 -29 43 -49 81 -49c43 0 71 36 71 77c0 43 -28 80 -74 80c-40 0 -57 -21 -66 -35l-47 18v226h219v-63h-150v-91c19 6 35 8 49 8c90 0 140 -67 140 -143c0 -74 -57 -140 -143 -140zM139 0l500 710h80l-500 -710h-80zM677 -5
c-75 0 -144 49 -144 138c0 55 28 87 61 109c-18 16 -31 46 -31 75c0 70 53 112 114 112s114 -42 114 -112c0 -29 -13 -59 -31 -75c33 -22 61 -54 61 -109c0 -89 -69 -138 -144 -138zM677 272c26 0 47 21 47 47s-21 47 -47 47s-47 -21 -47 -47s21 -47 47 -47zM677 58
c40 0 73 33 73 73s-33 73 -73 73s-73 -33 -73 -73s33 -73 73 -73z" />
    <glyph glyph-name="seveneighths" unicode="&#x215e;" horiz-adv-x="766" 
d="M40 286l163 361h-178v63h281l-193 -424h-73zM49 0l500 710h80l-500 -710h-80zM587 -5c-75 0 -144 49 -144 138c0 55 28 87 61 109c-18 16 -31 46 -31 75c0 70 53 112 114 112s114 -42 114 -112c0 -29 -13 -59 -31 -75c33 -22 61 -54 61 -109c0 -89 -69 -138 -144 -138z
M587 272c26 0 47 21 47 47s-21 47 -47 47s-47 -21 -47 -47s21 -47 47 -47zM587 58c40 0 73 33 73 73s-33 73 -73 73s-73 -33 -73 -73s33 -73 73 -73z" />
    <glyph glyph-name="uni215F" unicode="&#x215f;" horiz-adv-x="388" 
d="M58 287v364l69 65v-429h-69zM9 0l500 710h80l-500 -710h-80z" />
    <glyph glyph-name="fraction" unicode="&#x2044;" horiz-adv-x="180" 
d="M-199 0l500 710h80l-500 -710h-80z" />
    <glyph glyph-name="four.superior" unicode="&#x2074;" horiz-adv-x="394" 
d="M242 410v114h-232l301 315v-252h53v-63h-53v-114h-69zM150 587h92v94z" />
    <glyph glyph-name="five.superior" unicode="&#x2075;" horiz-adv-x="338" 
d="M166 405c-53 0 -105 22 -132 71l52 41c17 -29 43 -49 81 -49c43 0 71 36 71 77c0 43 -28 80 -74 80c-40 0 -57 -21 -66 -35l-47 18v226h219v-63h-150v-91c19 6 35 8 49 8c90 0 140 -67 140 -143c0 -74 -57 -140 -143 -140z" />
    <glyph glyph-name="six.superior" unicode="&#x2076;" horiz-adv-x="343" 
d="M172 405c-79 0 -144 63 -144 140c0 32 13 58 28 83l121 206h79l-89 -148h10c81 0 140 -58 140 -141c0 -77 -58 -140 -145 -140zM172 468c45 0 74 35 74 77c0 43 -29 78 -74 78c-43 0 -73 -35 -73 -78c0 -42 30 -77 73 -77z" />
    <glyph glyph-name="seven.superior" unicode="&#x2077;" horiz-adv-x="310" 
d="M40 410l163 361h-178v63h281l-193 -424h-73z" />
    <glyph glyph-name="eight.superior" unicode="&#x2078;" horiz-adv-x="358" 
d="M179 405c-75 0 -144 49 -144 138c0 55 28 87 61 109c-18 16 -31 46 -31 75c0 70 53 112 114 112s114 -42 114 -112c0 -29 -13 -59 -31 -75c33 -22 61 -54 61 -109c0 -89 -69 -138 -144 -138zM179 682c26 0 47 21 47 47s-21 47 -47 47s-47 -21 -47 -47s21 -47 47 -47z
M179 468c40 0 73 33 73 73s-33 73 -73 73s-73 -33 -73 -73s33 -73 73 -73z" />
    <glyph glyph-name="nine.superior" unicode="&#x2079;" horiz-adv-x="343" 
d="M171 839c79 0 144 -63 144 -140c0 -32 -13 -58 -28 -83l-121 -206h-79l89 148h-10c-81 0 -140 58 -140 141c0 77 58 140 145 140zM171 776c-45 0 -74 -35 -74 -77c0 -43 29 -78 74 -78c43 0 73 35 73 78c0 42 -30 77 -73 77z" />
    <glyph glyph-name="zero.superior" unicode="&#x2070;" horiz-adv-x="507" 
d="M253 405c-121 0 -217 96 -217 217c0 122 96 217 217 217s218 -95 218 -217c0 -121 -97 -217 -218 -217zM253 468c88 0 149 69 149 154c0 86 -61 154 -149 154s-147 -68 -147 -154c0 -85 59 -154 147 -154z" />
    <glyph glyph-name="zero.slashed.superior" horiz-adv-x="507" 
d="M253 405c-121 0 -217 96 -217 217c0 122 96 217 217 217s218 -95 218 -217c0 -121 -97 -217 -218 -217zM106 622c0 -6 0 -12 1 -18l273 102c-26 42 -71 70 -127 70c-88 0 -147 -68 -147 -154zM253 468c88 0 149 69 149 154c0 8 -1 16 -2 23l-275 -101
c24 -45 69 -76 128 -76z" />
    <glyph glyph-name="one.inferior" horiz-adv-x="188" 
d="M58 -115v364l69 65v-429h-69z" />
    <glyph glyph-name="two.inferior" horiz-adv-x="355" 
d="M20 -115l147 169c-74 5 -129 55 -129 128c0 74 65 132 141 132s140 -58 140 -132c0 -60 -30 -91 -83 -151l-72 -82h146v-64h-290zM179 112c38 0 69 31 69 70c0 38 -31 69 -69 69c-39 0 -70 -31 -70 -69c0 -39 31 -70 70 -70z" />
    <glyph glyph-name="three.inferior" horiz-adv-x="332" 
d="M154 -120c-52 0 -106 26 -131 71l52 41c18 -32 44 -49 80 -49c43 0 71 38 71 80c0 41 -30 77 -84 77h-42l74 146h-133v63h238l-80 -155c61 -17 98 -60 98 -131c0 -73 -54 -143 -143 -143z" />
    <glyph glyph-name="four.inferior" horiz-adv-x="394" 
d="M240 -115v114h-232l301 315v-252h53v-63h-53v-114h-69zM148 62h92v94z" />
    <glyph glyph-name="five.inferior" horiz-adv-x="338" 
d="M166 -120c-53 0 -105 22 -132 71l52 41c17 -29 43 -49 81 -49c43 0 71 36 71 77c0 43 -28 80 -74 80c-40 0 -57 -21 -66 -35l-47 18v226h219v-63h-150v-91c19 6 35 8 49 8c90 0 140 -67 140 -143c0 -74 -57 -140 -143 -140z" />
    <glyph glyph-name="six.inferior" horiz-adv-x="343" 
d="M172 -120c-79 0 -144 63 -144 140c0 32 13 58 28 83l121 206h79l-89 -148h10c81 0 140 -58 140 -141c0 -77 -58 -140 -145 -140zM172 -57c45 0 74 35 74 77c0 43 -29 78 -74 78c-43 0 -73 -35 -73 -78c0 -42 30 -77 73 -77z" />
    <glyph glyph-name="seven.inferior" horiz-adv-x="310" 
d="M40 -115l163 361h-178v63h281l-193 -424h-73z" />
    <glyph glyph-name="eight.inferior" horiz-adv-x="358" 
d="M179 -120c-75 0 -144 49 -144 138c0 55 28 87 61 109c-18 16 -31 46 -31 75c0 70 53 112 114 112s114 -42 114 -112c0 -29 -13 -59 -31 -75c33 -22 61 -54 61 -109c0 -89 -69 -138 -144 -138zM179 157c26 0 47 21 47 47s-21 47 -47 47s-47 -21 -47 -47s21 -47 47 -47z
M179 -57c40 0 73 33 73 73s-33 73 -73 73s-73 -33 -73 -73s33 -73 73 -73z" />
    <glyph glyph-name="nine.inferior" horiz-adv-x="343" 
d="M171 314c79 0 144 -63 144 -140c0 -32 -13 -58 -28 -83l-121 -206h-79l89 148h-10c-81 0 -140 58 -140 141c0 77 58 140 145 140zM171 251c-45 0 -74 -35 -74 -77c0 -43 29 -78 74 -78c43 0 73 35 73 78c0 42 -30 77 -73 77z" />
    <glyph glyph-name="zero.inferior" horiz-adv-x="507" 
d="M253 -120c-121 0 -217 96 -217 217c0 122 96 217 217 217s218 -95 218 -217c0 -121 -97 -217 -218 -217zM253 -57c88 0 149 69 149 154c0 86 -61 154 -149 154s-147 -68 -147 -154c0 -85 59 -154 147 -154z" />
    <glyph glyph-name="zero.slashed.inferior" horiz-adv-x="507" 
d="M253 -120c-121 0 -217 96 -217 217c0 122 96 217 217 217s218 -95 218 -217c0 -121 -97 -217 -218 -217zM106 97c0 -6 0 -12 1 -18l273 102c-26 42 -71 70 -127 70c-88 0 -147 -68 -147 -154zM253 -57c88 0 149 69 149 154c0 8 -1 16 -2 23l-275 -101
c24 -45 69 -76 128 -76z" />
    <glyph glyph-name="one.numr" horiz-adv-x="188" 
d="M58 287v364l69 65v-429h-69z" />
    <glyph glyph-name="two.numr" horiz-adv-x="355" 
d="M21 287l147 169c-74 5 -129 55 -129 128c0 74 65 132 141 132s140 -58 140 -132c0 -60 -30 -91 -83 -151l-72 -82h146v-64h-290zM180 514c38 0 69 31 69 70c0 38 -31 69 -69 69c-39 0 -70 -31 -70 -69c0 -39 31 -70 70 -70z" />
    <glyph glyph-name="three.numr" horiz-adv-x="332" 
d="M155 281c-52 0 -106 26 -131 71l52 41c18 -32 44 -49 80 -49c43 0 71 38 71 80c0 41 -30 77 -84 77h-42l74 146h-133v63h238l-80 -155c61 -17 98 -60 98 -131c0 -73 -54 -143 -143 -143z" />
    <glyph glyph-name="four.numr" horiz-adv-x="394" 
d="M240 287v114h-232l301 315v-252h53v-63h-53v-114h-69zM148 464h92v94z" />
    <glyph glyph-name="five.numr" horiz-adv-x="338" 
d="M166 281c-53 0 -105 22 -132 71l52 41c17 -29 43 -49 81 -49c43 0 71 36 71 77c0 43 -28 80 -74 80c-40 0 -57 -21 -66 -35l-47 18v226h219v-63h-150v-91c19 6 35 8 49 8c90 0 140 -67 140 -143c0 -74 -57 -140 -143 -140z" />
    <glyph glyph-name="six.numr" horiz-adv-x="343" 
d="M172 281c-79 0 -144 63 -144 140c0 32 13 58 28 83l121 206h79l-89 -148h10c81 0 140 -58 140 -141c0 -77 -58 -140 -145 -140zM172 344c45 0 74 35 74 77c0 43 -29 78 -74 78c-43 0 -73 -35 -73 -78c0 -42 30 -77 73 -77z" />
    <glyph glyph-name="seven.numr" horiz-adv-x="310" 
d="M40 286l163 361h-178v63h281l-193 -424h-73z" />
    <glyph glyph-name="eight.numr" horiz-adv-x="358" 
d="M179 283c-75 0 -144 49 -144 138c0 55 28 87 61 109c-18 16 -31 46 -31 75c0 70 53 112 114 112s114 -42 114 -112c0 -29 -13 -59 -31 -75c33 -22 61 -54 61 -109c0 -89 -69 -138 -144 -138zM179 560c26 0 47 21 47 47s-21 47 -47 47s-47 -21 -47 -47s21 -47 47 -47z
M179 346c40 0 73 33 73 73s-33 73 -73 73s-73 -33 -73 -73s33 -73 73 -73z" />
    <glyph glyph-name="nine.numr" horiz-adv-x="343" 
d="M171 717c79 0 144 -63 144 -140c0 -32 -13 -58 -28 -83l-121 -206h-79l89 148h-10c-81 0 -140 58 -140 141c0 77 58 140 145 140zM171 654c-45 0 -74 -35 -74 -77c0 -43 29 -78 74 -78c43 0 73 35 73 78c0 42 -30 77 -73 77z" />
    <glyph glyph-name="zero.numr" horiz-adv-x="507" 
d="M253 282c-121 0 -217 96 -217 217c0 122 96 217 217 217s218 -95 218 -217c0 -121 -97 -217 -218 -217zM253 345c88 0 149 69 149 154c0 86 -61 154 -149 154s-147 -68 -147 -154c0 -85 59 -154 147 -154z" />
    <glyph glyph-name="zero.slashed.numr" horiz-adv-x="487" 
d="M243 282c-121 0 -217 96 -217 217c0 122 96 217 217 217s218 -95 218 -217c0 -121 -97 -217 -218 -217zM96 499c0 -6 0 -12 1 -18l273 102c-26 42 -71 70 -127 70c-88 0 -147 -68 -147 -154zM243 345c88 0 149 69 149 154c0 8 -1 16 -2 23l-275 -101
c24 -45 69 -76 128 -76z" />
    <glyph glyph-name="one.dnom" horiz-adv-x="188" 
d="M58 0v364l69 65v-429h-69z" />
    <glyph glyph-name="two.dnom" horiz-adv-x="355" 
d="M20 0l147 169c-74 5 -129 55 -129 128c0 74 65 132 141 132s140 -58 140 -132c0 -60 -30 -91 -83 -151l-72 -82h146v-64h-290zM179 227c38 0 69 31 69 70c0 38 -31 69 -69 69c-39 0 -70 -31 -70 -69c0 -39 31 -70 70 -70z" />
    <glyph glyph-name="three.dnom" horiz-adv-x="332" 
d="M155 -5c-52 0 -106 26 -131 71l52 41c18 -32 44 -49 80 -49c43 0 71 38 71 80c0 41 -30 77 -84 77h-42l74 146h-133v63h238l-80 -155c61 -17 98 -60 98 -131c0 -73 -54 -143 -143 -143z" />
    <glyph glyph-name="four.dnom" horiz-adv-x="394" 
d="M241 0v114h-232l301 315v-252h53v-63h-53v-114h-69zM149 177h92v94z" />
    <glyph glyph-name="five.dnom" horiz-adv-x="338" 
d="M166 -5c-53 0 -105 22 -132 71l52 41c17 -29 43 -49 81 -49c43 0 71 36 71 77c0 43 -28 80 -74 80c-40 0 -57 -21 -66 -35l-47 18v226h219v-63h-150v-91c19 6 35 8 49 8c90 0 140 -67 140 -143c0 -74 -57 -140 -143 -140z" />
    <glyph glyph-name="six.dnom" horiz-adv-x="343" 
d="M172 -5c-79 0 -144 63 -144 140c0 32 13 58 28 83l121 206h79l-89 -148h10c81 0 140 -58 140 -141c0 -77 -58 -140 -145 -140zM172 58c45 0 74 35 74 77c0 43 -29 78 -74 78c-43 0 -73 -35 -73 -78c0 -42 30 -77 73 -77z" />
    <glyph glyph-name="seven.dnom" horiz-adv-x="310" 
d="M40 0l163 361h-178v63h281l-193 -424h-73z" />
    <glyph glyph-name="eight.dnom" horiz-adv-x="358" 
d="M179 -5c-75 0 -144 49 -144 138c0 55 28 87 61 109c-18 16 -31 46 -31 75c0 70 53 112 114 112s114 -42 114 -112c0 -29 -13 -59 -31 -75c33 -22 61 -54 61 -109c0 -89 -69 -138 -144 -138zM179 272c26 0 47 21 47 47s-21 47 -47 47s-47 -21 -47 -47s21 -47 47 -47z
M179 58c40 0 73 33 73 73s-33 73 -73 73s-73 -33 -73 -73s33 -73 73 -73z" />
    <glyph glyph-name="nine.dnom" horiz-adv-x="343" 
d="M171 429c79 0 144 -63 144 -140c0 -32 -13 -58 -28 -83l-121 -206h-79l89 148h-10c-81 0 -140 58 -140 141c0 77 58 140 145 140zM171 366c-45 0 -74 -35 -74 -77c0 -43 29 -78 74 -78c43 0 73 35 73 78c0 42 -30 77 -73 77z" />
    <glyph glyph-name="zero.dnom" horiz-adv-x="507" 
d="M253 -5c-121 0 -217 96 -217 217c0 122 96 217 217 217s218 -95 218 -217c0 -121 -97 -217 -218 -217zM253 58c88 0 149 69 149 154c0 86 -61 154 -149 154s-147 -68 -147 -154c0 -85 59 -154 147 -154z" />
    <glyph glyph-name="zero.slashed.dnom" horiz-adv-x="487" 
d="M243 -5c-121 0 -217 96 -217 217c0 122 96 217 217 217s218 -95 218 -217c0 -121 -97 -217 -218 -217zM96 212c0 -6 0 -12 1 -18l273 102c-26 42 -71 70 -127 70c-88 0 -147 -68 -147 -154zM243 58c88 0 149 69 149 154c0 8 -1 16 -2 23l-275 -101c24 -45 69 -76 128 -76
z" />
    <glyph glyph-name="hyphen.case" horiz-adv-x="379" 
d="M68 310v89h243v-89h-243z" />
    <glyph glyph-name="uni00AD.case" horiz-adv-x="379" 
d="M68 310v89h243v-89h-243z" />
    <glyph glyph-name="endash.case" horiz-adv-x="576" 
d="M71 314v81h434v-81h-434z" />
    <glyph glyph-name="emdash.case" horiz-adv-x="873" 
d="M71 315v81h731v-81h-731z" />
    <glyph glyph-name="questiondown.case" horiz-adv-x="516" 
d="M265 719c40 0 73 -33 73 -74c0 -26 -13 -49 -34 -62h-80c-20 13 -34 36 -34 62c0 41 33 74 75 74zM328 419v-79h-60c-76 0 -131 -58 -131 -134s55 -134 131 -134c77 0 130 58 130 134h85c0 -120 -94 -213 -215 -213s-216 93 -216 213s95 213 216 213h60z" />
    <glyph glyph-name="exclamdown.case" horiz-adv-x="279" 
d="M141 718c40 0 73 -33 73 -74c0 -26 -13 -49 -34 -62h-80c-20 13 -34 36 -34 62c0 41 33 74 75 74zM167 490l16 -197v-293h-87v293l16 197h55z" />
    <glyph glyph-name="guilsinglleft.case" horiz-adv-x="320" 
d="M200 89l-152 221l152 221l62 -42l-123 -179l123 -179z" />
    <glyph glyph-name="guilsinglright.case" horiz-adv-x="320" 
d="M120 89l-62 42l123 179l-123 179l62 42l152 -221z" />
    <glyph glyph-name="guillemotleft.case" horiz-adv-x="522" 
d="M402 89l-152 221l152 221l62 -42l-123 -179l123 -179zM200 89l-152 221l152 221l62 -42l-123 -179l123 -179z" />
    <glyph glyph-name="guillemotright.case" horiz-adv-x="522" 
d="M322 89l-62 42l123 179l-123 179l62 42l152 -221zM120 89l-62 42l123 179l-123 179l62 42l152 -221z" />
    <glyph glyph-name="parenleft.case" horiz-adv-x="268" 
d="M162 -89c-72 146 -108 265 -108 443s36 297 108 443l68 -29c-67 -141 -99 -265 -99 -414s32 -273 99 -414z" />
    <glyph glyph-name="parenright.case" horiz-adv-x="267" 
d="M106 -89l-68 29c67 141 99 265 99 414s-32 273 -99 414l68 29c72 -146 108 -265 108 -443s-36 -297 -108 -443z" />
    <glyph glyph-name="bracketleft.case" horiz-adv-x="319" 
d="M95 -87v882h187v-71h-108v-740h108v-71h-187z" />
    <glyph glyph-name="bracketright.case" horiz-adv-x="319" 
d="M224 -87h-187v71h108v740h-108v71h187v-882z" />
    <glyph glyph-name="braceleft.case" horiz-adv-x="324" 
d="M235 -87c-95 0 -128 50 -128 144v190c0 46 -9 71 -58 71h-16v71h16c49 0 58 25 58 71v191c0 94 31 144 126 144h50v-71h-39c-49 0 -59 -23 -59 -73v-187c0 -61 -12 -91 -53 -110c41 -20 53 -50 53 -111v-186c0 -50 10 -73 59 -73h39v-71h-48z" />
    <glyph glyph-name="braceright.case" horiz-adv-x="324" 
d="M89 -87h-48v71h39c49 0 59 23 59 73v186c0 61 12 91 53 111c-41 19 -53 49 -53 110v187c0 50 -10 73 -59 73h-39v71h50c95 0 126 -50 126 -144v-191c0 -46 9 -71 58 -71h16v-71h-16c-49 0 -58 -25 -58 -71v-190c0 -94 -33 -144 -128 -144z" />
    <glyph glyph-name="bar.case" horiz-adv-x="269" 
d="M95 -92v894h79v-894h-79z" />
    <glyph glyph-name="brokenbar.case" horiz-adv-x="269" 
d="M95 419v383h79v-383h-79zM95 -92v384h79v-384h-79z" />
    <glyph glyph-name="periodcentered.case" horiz-adv-x="282" 
d="M141 281c-40 0 -74 33 -74 74c0 42 35 74 74 74s74 -32 74 -74c0 -41 -34 -74 -74 -74z" />
    <glyph glyph-name="plus.case" horiz-adv-x="590" 
d="M259 138v182h-183v70h183v178h71v-178h183v-70h-183v-182h-71z" />
    <glyph glyph-name="minus.case" horiz-adv-x="590" 
d="M76 320v70h438v-70h-438z" />
    <glyph glyph-name="divide.case" horiz-adv-x="590" 
d="M296 428c-35 0 -68 27 -68 67c0 37 30 66 68 66c37 0 66 -29 66 -66c0 -39 -30 -67 -66 -67zM76 320v70h438v-70h-438zM296 148c-35 0 -68 27 -68 67c0 37 30 66 68 66c37 0 66 -29 66 -66c0 -39 -30 -67 -66 -67z" />
    <glyph glyph-name="multiply.case" horiz-adv-x="590" 
d="M147 163l-50 49l148 148l-150 149l50 49l149 -149l148 147l49 -49l-147 -147l149 -150l-49 -49l-150 149z" />
    <glyph glyph-name="equal.case" horiz-adv-x="590" 
d="M73 434v70h444v-70h-444zM73 215v70h444v-70h-444z" />
    <glyph glyph-name="plusminus.case" horiz-adv-x="590" 
d="M260 234v144h-184v70h184v141h70v-141h184v-70h-184v-144h-70zM76 89v70h438v-70h-438z" />
    <glyph glyph-name="less.case" horiz-adv-x="590" 
d="M409 76l-289 277l289 276l50 -52l-237 -224l237 -226z" />
    <glyph glyph-name="greater.case" horiz-adv-x="590" 
d="M182 75l-51 51l237 226l-237 224l51 52l289 -276z" />
    <glyph glyph-name="lessequal.case" horiz-adv-x="590" 
d="M520 208l-460 209l460 210v-77l-293 -133l293 -131v-78zM60 90v70h460v-70h-460z" />
    <glyph glyph-name="greaterequal.case" horiz-adv-x="590" 
d="M69 202v78l293 131l-293 133v77l461 -210zM69 84v70h461v-70h-461z" />
    <glyph glyph-name="notequal.case" horiz-adv-x="590" 
d="M143 96l-55 40l57 79h-72v70h123l107 149h-230v70h281l86 119l55 -40l-57 -79h79v-70h-130l-107 -149h237v-70h-288z" />
    <glyph glyph-name="acute.case" 
d="M-21 768h-73l77 145h109z" />
    <glyph glyph-name="breve.case" 
d="M-1 772c-93 0 -152 62 -156 137h64c3 -41 36 -79 93 -79s91 38 94 79h64c-5 -75 -64 -137 -159 -137z" />
    <glyph glyph-name="caron.case" 
d="M138 926l35 -60l-173 -100l-173 100l35 60l138 -82z" />
    <glyph glyph-name="cedilla.case" 
d="M-84 -165l93 165h59l-54 -165h-98z" />
    <glyph glyph-name="circumflex.case" 
d="M-138 766l-35 60l173 100l173 -100l-35 -60l-138 82z" />
    <glyph glyph-name="dieresis.case" 
d="M114 785c-33 0 -61 25 -61 60c0 33 27 59 61 59c33 0 60 -26 60 -59c0 -36 -29 -60 -60 -60zM-111 785c-33 0 -61 25 -61 60c0 33 27 59 61 59c33 0 60 -26 60 -59c0 -36 -29 -60 -60 -60z" />
    <glyph glyph-name="dotaccent.case" 
d="M0 785c-32 0 -61 24 -61 60c0 33 27 59 61 59c33 0 59 -26 59 -59c0 -35 -27 -60 -59 -60z" />
    <glyph glyph-name="dotaccent.L.case" 
d="M1 441c-32 0 -61 24 -61 60c0 33 27 59 61 59c33 0 59 -26 59 -59c0 -35 -27 -60 -59 -60z" />
    <glyph glyph-name="dotaccent.low.case" 
d="M1 -190c-32 0 -61 24 -61 60c0 33 27 59 61 59c33 0 59 -26 59 -59c0 -35 -27 -60 -59 -60z" />
    <glyph glyph-name="commaaccent.case" 
d="M-82 -215l69 165h100l-104 -165h-65z" />
    <glyph glyph-name="grave.case" 
d="M19 768l-113 145h109l77 -145h-73z" />
    <glyph glyph-name="hungarumlaut.case" 
d="M-190 768l77 145h104l-113 -145h-68zM10 768l77 145h104l-113 -145h-68z" />
    <glyph glyph-name="macron.case" 
d="M-146 803v65h292v-65h-292z" />
    <glyph glyph-name="ogonek.case" 
d="M24 -192c-55 0 -109 29 -109 86c0 49 43 90 79 106h91c-54 -24 -82 -56 -82 -86c0 -25 17 -41 50 -41c14 0 25 4 33 7v-59c-18 -10 -39 -13 -62 -13z" />
    <glyph glyph-name="ring.case" 
d="M0 751c-55 0 -99 41 -99 94c0 55 45 95 99 95s99 -40 99 -95c0 -53 -44 -94 -99 -94zM0 798c26 0 48 19 48 47c0 29 -22 48 -48 48s-48 -19 -48 -48c0 -28 22 -47 48 -47z" />
    <glyph glyph-name="tilde.case" 
d="M-173 784l3 19c12 60 57 94 103 94c56 0 93 -44 126 -44c28 0 41 15 48 44h66l-3 -18c-11 -56 -53 -94 -103 -94c-56 0 -94 44 -128 44c-26 0 -39 -15 -46 -45h-66z" />
    <glyph glyph-name="bar.Dcroat.case" 
d="M-166 319v74h333v-74h-333z" />
    <glyph glyph-name="slash.O.case" 
d="M-283 -55l-57 46l622 779l58 -46z" />
    <glyph glyph-name="slash.L.case" 
d="M-172 201l-42 63l386 252l42 -63z" />
    <glyph glyph-name="bar.T.case" 
d="M-201 338v74h403v-74h-403z" />
    <glyph glyph-name="bar.H.case" 
d="M-350 522v74h700v-74h-700z" />
    <glyph glyph-name="A.ss01" horiz-adv-x="684" 
d="M497 0v267h-311v-267h-91v710h494v-710h-92zM186 622v-267h311v267h-311z" />
    <glyph glyph-name="B.ss01" horiz-adv-x="746" 
d="M95 0v710h391v-210h183v-500h-574zM394 622h-208v-122h208v122zM578 412h-392v-324h392v324z" />
    <glyph glyph-name="C.ss01" horiz-adv-x="614" 
d="M578 710v-88h-392v-534h392v-88h-483v710h483z" />
    <glyph glyph-name="G.ss01" horiz-adv-x="727" 
d="M382 407h286v-407h-573v710h527v-88h-436v-534h391v231h-195v88z" />
    <glyph glyph-name="J.ss01" horiz-adv-x="411" 
d="M24 88h201v622h91v-710h-292v88z" />
    <glyph glyph-name="O.ss01" horiz-adv-x="900" 
d="M95 0v710h710v-710h-710zM186 88h528v534h-528v-534z" />
    <glyph glyph-name="P.ss01" horiz-adv-x="648" 
d="M589 710v-443h-403v-267h-91v710h494zM498 622h-312v-267h312v267z" />
    <glyph glyph-name="Q.ss01" horiz-adv-x="900" 
d="M95 0v710h710v-710h-310v-184h-90v184h-310zM186 88h219v183h90v-183h219v534h-528v-534z" />
    <glyph glyph-name="S.ss01" horiz-adv-x="569" 
d="M497 622h-343v-122h343v-500h-434v88h343v325h-343v297h434v-88z" />
    <glyph glyph-name="U.ss01" horiz-adv-x="756" 
d="M95 0v710h91v-620h384v620h91v-710h-566z" />
    <glyph glyph-name="Y.ss01" horiz-adv-x="684" 
d="M625 319h-237v-319h-91v319h-238v391h91v-303h384v303h91v-391z" />
    <glyph glyph-name="b.ss01" horiz-adv-x="647" 
d="M161 710v-210h411v-500h-497v710h86zM486 417h-325v-334h325v334z" />
    <glyph glyph-name="c.ss01" horiz-adv-x="461" 
d="M75 0v500h348v-83h-262v-334h262v-83h-348z" />
    <glyph glyph-name="d.ss01" horiz-adv-x="647" 
d="M486 710h86v-710h-497v500h411v210zM161 417v-334h325v334h-325z" />
    <glyph glyph-name="f.ss01" horiz-adv-x="351" 
d="M198 0h-85v422h-87v78h87v210h224v-78h-139v-132h139v-78h-139v-422z" />
    <glyph glyph-name="h.ss01" horiz-adv-x="584" 
d="M75 0v710h86v-210h348v-500h-86v417h-262v-417h-86z" />
    <glyph glyph-name="i.ss01" horiz-adv-x="236" 
d="M75 609v101h86v-101h-86zM75 0v500h86v-500h-86z" />
    <glyph glyph-name="j.ss01" horiz-adv-x="244" 
d="M83 609v101h86v-101h-86zM169 500v-684h-190v78h104v606h86z" />
    <glyph glyph-name="k.ss01" horiz-adv-x="553" 
d="M415 0v221h-254v-221h-86v710h86v-407h178v197h85v-197h76v-303h-85z" />
    <glyph glyph-name="m.ss01" horiz-adv-x="881" 
d="M161 0h-86v500h731v-500h-86v417h-236v-417h-86v417h-237v-417z" />
    <glyph glyph-name="n.ss01" horiz-adv-x="584" 
d="M423 0v417h-262v-417h-86v500h434v-500h-86z" />
    <glyph glyph-name="o.ss01" horiz-adv-x="650" 
d="M75 0v500h500v-500h-500zM161 83h328v334h-328v-334z" />
    <glyph glyph-name="p.ss01" horiz-adv-x="647" 
d="M161 -184h-86v684h497v-500h-411v-184zM486 83v334h-325v-334h325z" />
    <glyph glyph-name="q.ss01" horiz-adv-x="647" 
d="M486 -184v184h-411v500h497v-684h-86zM161 83h325v334h-325v-334z" />
    <glyph glyph-name="r.ss01" horiz-adv-x="350" 
d="M75 0v500h259v-83h-173v-417h-86z" />
    <glyph glyph-name="s.ss01" horiz-adv-x="503" 
d="M59 0v83h300v126h-300v291h385v-83h-300v-125h300v-292h-385z" />
    <glyph glyph-name="t.ss01" horiz-adv-x="371" 
d="M341 0h-227v422h-89v78h89v129h86v-129h142v-78h-142v-344h141v-78z" />
    <glyph glyph-name="u.ss01" horiz-adv-x="583" 
d="M75 0v500h85v-417h263v417h85v-500h-433z" />
    <glyph glyph-name="y.ss01" horiz-adv-x="577" 
d="M48 209v291h85v-208h284v208h85v-684h-85v393h-369z" />
    <glyph glyph-name="A.ss02" horiz-adv-x="706" 
d="M-7 0l342 710h276v-710h-91v186h-342l-88 -186h-97zM385 622l-167 -352h302v352h-135z" />
    <glyph glyph-name="E.ss02" horiz-adv-x="516" 
d="M264 0c-111 0 -203 91 -203 203c0 55 24 116 75 157c-52 40 -75 101 -75 155c0 107 88 195 196 195h214v-88h-211c-60 0 -108 -48 -108 -108c0 -59 48 -107 108 -107h151v-88h-143c-64 0 -116 -52 -116 -116c0 -63 52 -115 116 -115h203v-88h-207z" />
    <glyph glyph-name="K.ss02" horiz-adv-x="651" 
d="M186 0h-91v710h91v-356l324 356h112l-324 -356h162l189 -354h-99l-142 266h-222v-266z" />
    <glyph glyph-name="N.ss02" horiz-adv-x="787" 
d="M186 0h-91v718l506 -457v449h91v-710h-91v143l-415 375v-518z" />
    <glyph glyph-name="Q.ss02" horiz-adv-x="818" 
d="M365 -184v179c-182 20 -319 169 -319 360c0 206 160 363 363 363s363 -157 363 -363c0 -191 -137 -339 -318 -360v-179h-89zM454 400v-318c132 21 225 133 225 273c0 156 -115 276 -270 276c-140 0 -247 -98 -267 -231h312zM365 312h-223c17 -120 105 -211 223 -230v230z
" />
    <glyph glyph-name="W.ss02" horiz-adv-x="924" 
d="M326 -8l-328 718h100l232 -518l88 196l-147 322h92l99 -222l99 222h92l-147 -322l88 -196l232 518h100l-328 -718l-136 299z" />
    <glyph glyph-name="X.ss02" horiz-adv-x="653" 
d="M16 0l220 415l-211 295h108l228 -320l171 320h98l-212 -399l222 -311h-107l-241 336l-179 -336h-97z" />
    <glyph glyph-name="Y.ss02" horiz-adv-x="660" 
d="M296 0v319h-238v391h92v-303h201l190 303h106l-259 -409v-301h-92z" />
    <glyph glyph-name="a.ss02" horiz-adv-x="546" 
d="M225 -8c-128 0 -194 75 -194 168c0 96 79 165 204 165c68 0 116 -15 151 -33v130h-295v78h380v-500h-85v54c-42 -42 -97 -62 -161 -62zM232 70c74 0 127 32 154 76v66c-34 24 -78 41 -143 41c-70 0 -125 -34 -125 -92c0 -60 54 -91 114 -91z" />
    <glyph glyph-name="g.ss02" horiz-adv-x="607" 
d="M103 -184v82h344v175c-40 -38 -94 -58 -157 -58c-148 0 -247 107 -247 246c0 140 99 247 247 247c63 0 115 -21 156 -59v51h86v-684h-429zM292 95c71 0 127 35 154 82v169c-27 47 -83 81 -154 81c-95 0 -160 -71 -160 -166c0 -94 65 -166 160 -166z" />
    <glyph glyph-name="k.ss02" horiz-adv-x="540" 
d="M442 0l-187 193h-94v-193h-86v710h86v-210h258v-83h-258v-142h125l267 -275h-111z" />
    <glyph glyph-name="m.ss02" horiz-adv-x="875" 
d="M302 500c69 0 119 -31 149 -79c46 69 116 87 169 87c114 0 186 -79 186 -203v-305h-86v300c0 73 -42 127 -114 127c-44 0 -97 -19 -123 -104c1 -9 1 -17 1 -26v-297h-86v292c0 73 -43 127 -115 127h-122v-419h-86v500h227z" />
    <glyph glyph-name="w.ss02" horiz-adv-x="827" 
d="M238 0l-190 288v212h85v-188l151 -229h87v417h85v-417h87l151 229v188h85v-212l-191 -288h-350z" />
    <glyph glyph-name="b.ss03" horiz-adv-x="511" 
d="M75 0v500h192c113 0 169 -51 169 -135c0 -35 -12 -77 -48 -100c54 -20 81 -68 81 -121c0 -82 -43 -144 -179 -144h-215zM351 357c0 48 -38 67 -74 67h-116v-133h116c36 0 74 18 74 66zM297 224h-136v-148h136c48 0 86 25 86 74s-38 74 -86 74z" />
    <glyph glyph-name="d.ss03" horiz-adv-x="546" 
d="M75 0v500h170c164 0 259 -112 259 -250s-95 -250 -259 -250h-170zM247 419h-86v-338h86c107 0 170 74 170 169s-63 169 -170 169z" />
    <glyph glyph-name="f.ss03" horiz-adv-x="429" 
d="M75 0v500h321v-78h-235v-134h213v-78h-213v-210h-86z" />
    <glyph glyph-name="g.ss03" horiz-adv-x="561" 
d="M297 -8c-146 0 -256 116 -256 258s109 258 258 258c92 0 162 -40 201 -81l-60 -54c-34 34 -83 56 -141 56c-101 0 -171 -80 -171 -179s71 -179 169 -179c57 0 96 15 128 37v112h-125l33 78h177v-229c-46 -45 -126 -77 -213 -77z" />
    <glyph glyph-name="h.ss03" horiz-adv-x="584" 
d="M75 0v500h88v-202h258v202h88v-500h-88v220h-258v-220h-88z" />
    <glyph glyph-name="i.ss03" horiz-adv-x="236" 
d="M75 0v500h86v-500h-86z" />
    <glyph glyph-name="j.ss03" horiz-adv-x="421" 
d="M187 -8c-101 0 -165 58 -165 149v17h85v-7c0 -54 33 -80 79 -80s79 26 79 80v349h85v-359c0 -91 -62 -149 -163 -149z" />
    <glyph glyph-name="k.ss03" horiz-adv-x="504" 
d="M75 0v500h86v-247l225 247h101l-230 -251l254 -249h-108l-242 240v-240h-86z" />
    <glyph glyph-name="l.ss03" horiz-adv-x="413" 
d="M75 0v500h86v-422h235v-78h-321z" />
    <glyph glyph-name="p.ss03" horiz-adv-x="468" 
d="M75 0v500h174c137 0 191 -74 191 -158s-54 -158 -191 -158h-88v-184h-86zM251 424h-90v-164h90c65 0 102 27 102 82c0 54 -37 82 -102 82z" />
    <glyph glyph-name="q.ss03" horiz-adv-x="609" 
d="M301 -8c-151 0 -260 114 -260 258s109 258 260 258c150 0 259 -114 259 -258c0 -60 -19 -116 -53 -159l53 -49l-47 -50l-55 50c-42 -31 -96 -50 -157 -50zM301 73c37 0 69 10 95 27l-72 67l47 50l73 -67c17 28 27 63 27 100c0 99 -68 177 -170 177s-171 -78 -171 -177
s69 -177 171 -177z" />
    <glyph glyph-name="t.ss03" horiz-adv-x="442" 
d="M17 422v78h408v-78h-160v-422h-88v422h-160z" />
    <glyph glyph-name="y.ss03" horiz-adv-x="472" 
d="M193 0v206l-190 294h98l135 -216l135 216h98l-190 -294v-206h-86z" />
    <glyph glyph-name="A.ss04" horiz-adv-x="678" 
d="M-7 0l346 718l346 -718h-98l-248 524l-248 -524h-98zM340 -8c-39 0 -76 31 -76 76c0 42 34 77 76 77s76 -35 76 -77c0 -44 -36 -76 -76 -76z" />
    <glyph glyph-name="E.ss04" horiz-adv-x="551" 
d="M95 0v710h410v-88h-319v-534h319v-88h-410zM347 287c-39 0 -76 31 -76 76c0 42 34 77 76 77s76 -35 76 -77c0 -44 -36 -76 -76 -76z" />
    <glyph glyph-name="F.ss04" horiz-adv-x="512" 
d="M95 0v710h398v-88h-307v-622h-91zM340 287c-39 0 -76 31 -76 76c0 42 34 77 76 77s76 -35 76 -77c0 -44 -36 -76 -76 -76z" />
    <glyph glyph-name="G.ss04" horiz-adv-x="724" 
d="M409 -8c-203 0 -363 157 -363 363s160 363 363 363c96 0 183 -31 247 -90l-56 -68c-47 44 -116 71 -191 71c-155 0 -270 -120 -270 -276s115 -276 270 -276c57 0 117 13 161 39v289h91v-335c-66 -50 -159 -80 -252 -80zM409 287c-39 0 -76 31 -76 76c0 42 34 77 76 77
s76 -35 76 -77c0 -44 -36 -76 -76 -76z" />
    <glyph glyph-name="H.ss04" horiz-adv-x="764" 
d="M95 0v710h91v-710h-91zM578 0v710h91v-710h-91zM382 287c-39 0 -76 31 -76 76c0 42 34 77 76 77s76 -35 76 -77c0 -44 -36 -76 -76 -76z" />
    <glyph glyph-name="K.ss04" horiz-adv-x="636" 
d="M503 566c-39 0 -76 31 -76 76c0 42 34 77 76 77s76 -35 76 -77c0 -44 -36 -76 -76 -76zM95 0v710h91v-356h103l360 -354h-121l-342 337v-337h-91z" />
    <glyph glyph-name="O.ss04" horiz-adv-x="818" 
d="M409 -8c-203 0 -363 157 -363 363s160 363 363 363s363 -157 363 -363s-160 -363 -363 -363zM409 79c155 0 270 120 270 276s-115 276 -270 276s-270 -120 -270 -276s115 -276 270 -276zM408 279c-39 0 -76 31 -76 76c0 42 34 77 76 77s76 -35 76 -77
c0 -44 -36 -76 -76 -76z" />
    <glyph glyph-name="Q.ss04" horiz-adv-x="835" 
d="M409 -8c-203 0 -363 157 -363 363s160 363 363 363s363 -157 363 -363c0 -83 -26 -158 -70 -218l90 -83l-58 -62l-91 83c-63 -52 -144 -83 -234 -83zM409 79c155 0 270 120 270 276s-115 276 -270 276s-270 -120 -270 -276s115 -276 270 -276zM408 279
c-39 0 -76 31 -76 76c0 42 34 77 76 77s76 -35 76 -77c0 -44 -36 -76 -76 -76z" />
    <glyph glyph-name="Y.ss04" horiz-adv-x="628" 
d="M268 301l-260 409h106l200 -319l200 319h106l-260 -409h-92zM315 -8c-39 0 -76 31 -76 76c0 42 34 77 76 77s76 -35 76 -77c0 -44 -36 -76 -76 -76z" />
    <glyph glyph-name="A.ss05" horiz-adv-x="678" 
d="M339 0v89h206l-206 435l-248 -524h-98l346 718l346 -718h-346z" />
    <glyph glyph-name="E.ss05" horiz-adv-x="516" 
d="M17 0l237 355l-237 355h457v-88h-296l179 -267l-179 -267h296v-88h-457z" />
    <glyph glyph-name="F.ss05" horiz-adv-x="536" 
d="M87 407h170l-203 303h457v-88h-296l203 -303h-240v-319h-91v407z" />
    <glyph glyph-name="R.ss05" horiz-adv-x="617" 
d="M95 0v710h511l-243 -364l239 -346h-104l-238 346l185 276h-259v-622h-91z" />
    <glyph glyph-name="S.ss05" horiz-adv-x="526" 
d="M146 0l213 319h-356l261 391h106l-203 -303h358l-273 -407h-106z" />
    <glyph glyph-name="T.ss05" horiz-adv-x="601" 
d="M289 0v350l-281 360h574v-88h-395l193 -247v-375h-91z" />
    <glyph glyph-name="X.ss05" horiz-adv-x="710" 
d="M1 0l291 356l-279 354h683l-279 -353l292 -357h-110l-244 298l-245 -298h-109zM355 415l163 207h-327z" />
    <glyph glyph-name="h.ss05" horiz-adv-x="584" 
d="M75 0v710h86v-567l263 357h85v-500h-86v356l-262 -356h-86z" />
    <glyph glyph-name="m.ss05" horiz-adv-x="882" 
d="M75 500h86v-351l237 351h86v-351l237 351h86v-500h-86v351l-237 -351h-86v351l-237 -351h-86v500z" />
    <glyph glyph-name="n.ss05" horiz-adv-x="584" 
d="M75 0v500h86v-357l263 357h85v-500h-86v356l-262 -356h-86z" />
    <glyph glyph-name="r.ss05" horiz-adv-x="307" 
d="M155 0h-85v397l181 111l42 -72l-138 -85v-351z" />
    <glyph glyph-name="s.ss05" horiz-adv-x="503" 
d="M165 0l172 212h-336l237 288h103l-174 -211h336l-235 -289h-103z" />
    <glyph glyph-name="b.ss06" horiz-adv-x="650" 
d="M75 0v710h86v-627h329v334h-329l83 83h331v-500h-500z" />
    <glyph glyph-name="d.ss06" horiz-adv-x="650" 
d="M489 417h-329v-334h329l-83 -83h-331v500h414v210h86v-710h-86v417z" />
    <glyph glyph-name="f.ss06" horiz-adv-x="330" 
d="M177 0h-85v422h-78l78 78v210h224v-78h-139v-132h139v-78h-139v-422z" />
    <glyph glyph-name="h.ss06" horiz-adv-x="585" 
d="M75 0v710h86v-710h-86zM424 0v417h-263l83 83h266v-500h-86z" />
    <glyph glyph-name="j.ss06" horiz-adv-x="244" 
d="M83 609v101h86v-101h-86zM169 -184h-164l78 78v606h86v-684z" />
    <glyph glyph-name="l.ss06" horiz-adv-x="236" 
d="M75 0v632l86 86v-718h-86z" />
    <glyph glyph-name="m.ss06" horiz-adv-x="881" 
d="M161 500v-500h-86v500h86zM398 0v417h-237l83 83h240v-500h-86zM720 0v417h-236l83 83h239v-500h-86z" />
    <glyph glyph-name="n.ss06" horiz-adv-x="584" 
d="M75 0v500h86v-500h-86zM423 0v417h-262l83 83h265v-500h-86z" />
    <glyph glyph-name="p.ss06" horiz-adv-x="650" 
d="M161 -184h-86v684h86v-417h329v334h-329l83 83h331v-500h-414v-184z" />
    <glyph glyph-name="q.ss06" horiz-adv-x="650" 
d="M75 500h500v-684h-86v601h-329v-334h329l-83 -83h-331v500z" />
    <glyph glyph-name="r.ss06" horiz-adv-x="349" 
d="M75 0v500h86v-500h-86zM161 417l83 83h89v-83h-172z" />
    <glyph glyph-name="t.ss06" horiz-adv-x="394" 
d="M137 0v422h-140l226 228v-150h141v-78h-141v-344h141v-78h-227z" />
    <glyph glyph-name="u.ss06" horiz-adv-x="583" 
d="M75 0v500h85v-417h262l-83 -83h-264zM422 0v500h86v-500h-86z" />
    <glyph glyph-name="B.ss07" horiz-adv-x="587" 
d="M95 0v84h214c96 0 142 51 142 120s-46 122 -142 122h-214v78h190c75 0 120 48 120 111c0 60 -45 111 -120 111h-190v84h192c137 0 209 -85 209 -185c0 -72 -28 -117 -74 -148c70 -27 121 -81 121 -177c0 -129 -99 -200 -245 -200h-203z" />
    <glyph glyph-name="D.ss07" horiz-adv-x="685" 
d="M95 0v85h166c171 0 285 115 285 270s-114 270 -285 270h-166v85h166c219 0 378 -152 378 -355s-159 -355 -378 -355h-166z" />
    <glyph glyph-name="E.ss07" horiz-adv-x="555" 
d="M95 622v88h410v-88h-410zM95 319v88h350v-88h-350zM95 0v88h410v-88h-410z" />
    <glyph glyph-name="F.ss07" horiz-adv-x="522" 
d="M95 622v88h398v-88h-398zM95 319v88h331v-88h-331z" />
    <glyph glyph-name="H.ss07" horiz-adv-x="718" 
d="M532 0v319h-437v88h437v303h91v-710h-91z" />
    <glyph glyph-name="K.ss07" horiz-adv-x="558" 
d="M445 0l-350 345l332 365h112l-328 -361l355 -349h-121z" />
    <glyph glyph-name="P.ss07" horiz-adv-x="534" 
d="M95 276v84h153c102 0 156 49 156 133c0 83 -54 133 -156 133h-153v84h156c149 0 246 -83 246 -217c0 -132 -97 -217 -246 -217h-156z" />
    <glyph glyph-name="R.ss07" horiz-adv-x="574" 
d="M95 310v81h160c93 0 140 44 140 117c0 74 -47 118 -140 118h-160v84h166c139 0 228 -79 228 -200c0 -83 -47 -170 -168 -194l245 -316h-110l-237 310h-124z" />
    <glyph glyph-name="T.ss07" horiz-adv-x="530" 
d="M18 622v88h494v-88h-494z" />
    <glyph glyph-name="Y.ss07" horiz-adv-x="632" 
d="M270 301l-260 409h106l200 -319l200 319h106l-260 -409h-92z" />
    <glyph glyph-name="A.ss08" horiz-adv-x="678" 
d="M-7 0l346 718l346 -718h-98l-88 186h-60v-157c0 -9 -5 -12 -9 -12c-5 0 -10 3 -10 12v157h-45v-1140c0 -9 -5 -12 -9 -12c-5 0 -10 3 -10 12v1140h-177l-88 -186h-98zM219 270h240l-120 254z" />
    <glyph glyph-name="C.ss08" horiz-adv-x="722" 
d="M409 -8h-13v-305c0 -9 -5 -12 -9 -12c-5 0 -10 3 -10 12v306c-188 16 -331 167 -331 362c0 206 160 363 363 363c125 0 230 -61 284 -135l-65 -57c-47 63 -125 105 -219 105h-13v-552h13c94 0 172 42 219 105l65 -57c-37 -51 -97 -95 -172 -118v-125c0 -9 -5 -12 -9 -12
c-5 0 -10 3 -10 12v120c-29 -8 -60 -12 -93 -12zM331 469v151c-114 -33 -192 -137 -192 -265c0 -145 99 -259 238 -274v548c-9 -1 -18 -2 -27 -4v-156c0 -9 -5 -12 -9 -12c-5 0 -10 3 -10 12z" />
    <glyph glyph-name="D.ss08" horiz-adv-x="731" 
d="M95 0v710h211c219 0 379 -152 379 -355s-160 -355 -379 -355h-163v-97c0 -9 -5 -12 -9 -12c-5 0 -10 3 -10 12v97h-29zM186 85h120c172 0 286 115 286 270s-114 270 -286 270h-120v-540z" />
    <glyph glyph-name="E.ss08" horiz-adv-x="555" 
d="M95 0v710h410v-88h-319v-215h259v-88h-68v-231h128v-88h-128v-107c0 -9 -5 -12 -9 -12c-5 0 -10 3 -10 12v107h-83v-447c0 -9 -5 -12 -9 -12c-5 0 -10 3 -10 12v447h-16v-248c0 -9 -5 -12 -9 -12c-5 0 -10 3 -10 12v248h-16v-39c0 -9 -5 -12 -9 -12c-5 0 -10 3 -10 12v39
h-91zM327 258v61h-141v-231h172v231h-12v-61c0 -9 -5 -12 -9 -12c-5 0 -10 3 -10 12z" />
    <glyph glyph-name="G.ss08" horiz-adv-x="742" 
d="M409 -8c-203 0 -363 157 -363 363s160 363 363 363c110 0 212 -49 268 -115l-65 -58c-48 52 -117 86 -203 86c-155 0 -270 -120 -270 -276s115 -276 270 -276c24 0 46 2 67 6v234h-11v-50c0 -9 -5 -12 -9 -12c-5 0 -10 3 -10 12v50h-23v-88c0 -9 -5 -12 -9 -12
c-5 0 -10 3 -10 12v88h-32l39 88h270v-317c-33 -38 -101 -75 -186 -90v-573c0 -9 -5 -12 -9 -12c-5 0 -10 3 -10 12v570c-22 -3 -44 -5 -67 -5zM590 319h-95v-230c40 10 73 25 95 43v187z" />
    <glyph glyph-name="H.ss08" horiz-adv-x="764" 
d="M95 0v710h91v-303h392v303h91v-710h-91v319h-82v-959c0 -9 -5 -12 -9 -12c-5 0 -10 3 -10 12v959h-19v-59c0 -9 -5 -12 -9 -12c-5 0 -10 3 -10 12v59h-253v-319h-91z" />
    <glyph glyph-name="M.ss08" horiz-adv-x="882" 
d="M95 0v718l346 -381l346 381v-718h-91v494l-250 -279v-572c0 -9 -5 -12 -9 -12c-5 0 -10 3 -10 12v582l-16 18v-219c0 -9 -5 -12 -9 -12c-5 0 -10 3 -10 12v240l-206 230v-494h-91z" />
    <glyph glyph-name="N.ss08" horiz-adv-x="787" 
d="M468 -59v278l-282 286v-505h-91v718l506 -513v505h91v-718l-168 170v-652c0 -9 -5 -12 -9 -12c-5 0 -10 3 -10 12v672l-18 18v-259c0 -9 -5 -12 -9 -12c-5 0 -10 3 -10 12z" />
    <glyph glyph-name="O.ss08" horiz-adv-x="818" 
d="M409 -8c-53 0 -103 11 -148 30v-339c0 -9 -5 -12 -9 -12c-5 0 -10 3 -10 12v348c-117 59 -196 179 -196 324c0 206 160 363 363 363s363 -157 363 -363c0 -131 -64 -241 -163 -305v-87c0 -9 -5 -12 -9 -12c-5 0 -10 3 -10 12v75c-9 -5 -19 -10 -29 -14v-1021
c0 -9 -5 -12 -9 -12c-5 0 -10 3 -10 12v1013c-41 -16 -86 -24 -133 -24zM409 79c155 0 270 120 270 276s-115 276 -270 276s-270 -120 -270 -276s115 -276 270 -276z" />
    <glyph glyph-name="Q.ss08" horiz-adv-x="836" 
d="M409 -8c-203 0 -363 157 -363 363s160 363 363 363s363 -157 363 -363c0 -82 -26 -157 -69 -217l91 -84l-18 -19v-106c0 -9 -5 -12 -9 -12c-5 0 -10 3 -10 12v85l-21 -22l-22 20v-883c0 -9 -5 -12 -9 -12c-5 0 -10 3 -10 12v901l-50 46c-63 -53 -145 -84 -236 -84z
M409 79c66 0 124 22 170 58l-93 86l58 62l91 -84c28 43 44 96 44 154c0 156 -115 276 -270 276s-270 -120 -270 -276s115 -276 270 -276z" />
    <glyph glyph-name="R.ss08" horiz-adv-x="619" 
d="M95 0v710h211c139 0 228 -79 228 -200c0 -83 -45 -170 -169 -194l246 -316h-110l-181 236v-151c0 -9 -5 -12 -9 -12c-5 0 -10 3 -10 12v176l-18 24v-140c0 -9 -5 -12 -9 -12c-5 0 -10 3 -10 12v165h-11v-760c0 -9 -5 -12 -9 -12c-5 0 -10 3 -10 12v760h-48v-310h-91z
M186 391h114c93 0 140 44 140 117c0 74 -47 118 -140 118h-114v-235z" />
    <glyph glyph-name="S.ss08" horiz-adv-x="528" 
d="M263 -8c-48 0 -93 11 -131 29v-600c0 -9 -5 -12 -9 -12c-5 0 -10 3 -10 12v610c-34 19 -62 44 -81 71l69 60c34 -44 92 -83 161 -83c82 0 134 38 134 100c0 65 -40 99 -116 132l-65 28c-108 46 -155 112 -155 201c0 108 102 178 207 178c83 0 151 -33 199 -91l-64 -64
c-37 44 -76 68 -138 68c-60 0 -113 -34 -113 -93c0 -52 30 -87 105 -120l65 -28c96 -42 167 -101 167 -201c0 -60 -23 -111 -65 -146v-84c0 -9 -5 -12 -9 -12c-5 0 -10 3 -10 12v70c-8 -5 -16 -9 -24 -13v-234c0 -9 -5 -12 -9 -12c-5 0 -10 3 -10 12v226
c-29 -10 -61 -16 -98 -16z" />
    <glyph glyph-name="U.ss08" horiz-adv-x="738" 
d="M369 -8c-165 0 -283 104 -283 278v440h91v-444c0 -123 78 -187 192 -187s192 64 192 187v444h91v-440c0 -105 -42 -184 -112 -230v-1795c0 -9 -5 -12 -9 -12c-5 0 -10 3 -10 12v1783c-7 -4 -14 -7 -21 -10v-133c0 -9 -5 -12 -9 -12c-5 0 -10 3 -10 12v125
c-34 -12 -71 -18 -112 -18z" />
    <glyph glyph-name="a.ss08" horiz-adv-x="617" 
d="M298 -187v179h-1c-147 0 -255 113 -255 258s108 258 255 258c61 0 117 -20 159 -58v50h86v-500h-86v50c-37 -34 -86 -53 -139 -57v-180c0 -9 -5 -12 -9 -12c-5 0 -10 3 -10 12zM258 223v199c-76 -18 -127 -87 -127 -172c0 -99 70 -177 167 -177v354c-7 0 -14 0 -21 -1
v-203c0 -9 -5 -12 -9 -12c-5 0 -10 3 -10 12zM456 346c-27 43 -76 75 -139 80v-352c63 5 112 37 139 80v192z" />
    <glyph glyph-name="b.ss08" horiz-adv-x="617" 
d="M75 0v710h86v-260c41 38 97 58 159 58c147 0 255 -113 255 -258c0 -140 -100 -250 -239 -258v-280c0 -9 -5 -12 -9 -12c-5 0 -10 3 -10 12v280h-9v-80c0 -9 -5 -12 -9 -12c-5 0 -10 3 -10 12v82c-50 5 -94 24 -128 56v-50h-86zM318 427c-72 0 -129 -34 -157 -81v-192
c28 -47 85 -81 157 -81c98 0 168 78 168 177s-70 177 -168 177z" />
    <glyph glyph-name="c.ss08" horiz-adv-x="517" 
d="M298 -8h-5v-310c0 -9 -5 -12 -9 -12c-5 0 -10 3 -10 12v311c-136 12 -233 121 -233 257c0 144 109 258 257 258c83 0 147 -34 191 -79l-55 -60c-27 27 -64 50 -111 56v-350c47 6 84 29 111 56l55 -60c-34 -34 -79 -63 -136 -74v-115c0 -9 -5 -12 -9 -12
c-5 0 -10 3 -10 12v112c-4 0 -7 -1 -11 -1v-52c0 -9 -5 -12 -9 -12c-5 0 -10 3 -10 12v51h-6zM130 250c0 -99 70 -177 168 -177h6v354h-6c-98 0 -168 -78 -168 -177z" />
    <glyph glyph-name="e.ss08" horiz-adv-x="569" 
d="M206 -129c0 -9 -5 -12 -9 -12c-5 0 -10 3 -10 12v145c-88 40 -146 129 -146 234c0 145 111 258 251 258c150 0 244 -115 244 -279h-57v-134l20 -22c-6 -6 -13 -13 -20 -19v-850c0 -9 -5 -12 -9 -12c-5 0 -10 3 -10 12v836c-42 -28 -98 -48 -162 -48c-17 0 -33 1 -48 4
v-188c0 -9 -5 -12 -9 -12c-5 0 -10 3 -10 12v192c-9 2 -17 5 -25 8v-137zM287 429c-62 0 -132 -37 -152 -125h172v124c-7 1 -13 1 -20 1zM439 304c-10 67 -55 109 -113 121v-121h113zM307 180v49h-177c9 -96 83 -156 168 -156c63 0 114 28 146 60l16 -17v113h-134v-49
c0 -9 -5 -12 -9 -12c-5 0 -10 3 -10 12z" />
    <glyph glyph-name="f.ss08" horiz-adv-x="352" 
d="M113 0v422h-86v78h84c-23 22 -37 54 -37 88c0 70 58 122 146 122h118v-78h-17v-74c0 -9 -5 -12 -9 -12c-5 0 -10 3 -10 12v74h-21v-132h57v-78h-57v-962c0 -9 -5 -12 -9 -12c-5 0 -10 3 -10 12v962h-63v-422h-86zM227 500h35v132h-28c-43 0 -76 -20 -76 -63
c0 -44 36 -67 69 -69z" />
    <glyph glyph-name="g.ss08" horiz-adv-x="611" 
d="M197 -2v33c-95 34 -154 123 -154 230c0 140 99 247 247 247c63 0 115 -21 156 -59v51h86v-398c13 -34 19 -69 19 -98c0 -144 -132 -198 -260 -198h-4v-273c0 -9 -5 -12 -9 -12c-5 0 -10 3 -10 12v274c-66 3 -136 23 -190 58l45 73c36 -27 89 -46 145 -51v129
c-18 1 -36 4 -52 9v-27c0 -9 -5 -12 -9 -12c-5 0 -10 3 -10 12zM292 95c71 0 127 35 154 82v169c-27 47 -83 81 -154 81c-95 0 -160 -71 -160 -166c0 -94 65 -166 160 -166zM290 15h-3v-129h7c87 0 168 32 168 126c0 17 -4 45 -13 63c-40 -39 -95 -60 -159 -60z" />
    <glyph glyph-name="i.ss08" horiz-adv-x="236" 
d="M75 609c-12 11 -19 27 -19 46c0 35 27 63 62 63s62 -28 62 -63c0 -19 -7 -35 -19 -46h-11v-54c0 -23 -19 -23 -19 0v54h-25v-80c0 -23 -19 -23 -19 0v80h-12zM75 0v500h86v-500h-9v-266c0 -23 -19 -23 -19 0v266h-31v-466c0 -23 -19 -23 -19 0v466h-8z" />
    <glyph glyph-name="k.ss08" horiz-adv-x="512" 
d="M75 0v710h86v-436l221 226h113l-123 -124v-225l146 -151h-116l-30 31v-377c0 -9 -5 -12 -9 -12c-5 0 -10 3 -10 12v397l-47 48v-157c0 -9 -5 -12 -9 -12c-5 0 -10 3 -10 12v177l-126 131v-250h-86zM263 265l90 -94v185z" />
    <glyph glyph-name="n.ss08" horiz-adv-x="578" 
d="M75 0v500h86v-57c38 48 97 65 155 65c113 0 193 -79 193 -203v-305h-86v300c0 59 -32 106 -85 121v-640c0 -9 -5 -12 -9 -12c-5 0 -10 3 -10 12v644c-7 1 -14 2 -21 2v-136c0 -9 -5 -12 -9 -12c-5 0 -10 3 -10 12v135c-60 -6 -102 -44 -118 -103v-323h-86z" />
    <glyph glyph-name="o.ss08" horiz-adv-x="602" 
d="M313 -75c0 -9 -5 -12 -9 -12c-5 0 -10 3 -10 12v67c-147 4 -253 116 -253 258c0 144 109 258 260 258c150 0 259 -114 259 -258c0 -119 -75 -218 -186 -248v-567c0 -9 -5 -12 -9 -12c-5 0 -10 3 -10 12v562c-14 -3 -28 -4 -42 -5v-67zM301 73c19 0 37 3 54 8v338
c-13 4 -27 7 -42 8v-262c0 -9 -5 -12 -9 -12c-5 0 -10 3 -10 12v262c-98 -4 -164 -80 -164 -177c0 -99 69 -177 171 -177zM471 250c0 73 -37 134 -97 162v-324c60 28 97 89 97 162z" />
    <glyph glyph-name="s.ss08" horiz-adv-x="420" 
d="M179 -195c0 -9 -5 -12 -9 -12c-5 0 -10 3 -10 12v192c-7 1 -14 3 -21 5v-397c0 -9 -5 -12 -9 -12c-5 0 -10 3 -10 12v405c-36 16 -67 43 -90 82l68 46c17 -28 36 -49 62 -60v155c-77 33 -105 85 -105 142c0 75 65 133 156 133c64 0 119 -29 150 -90l-67 -39
c-16 33 -44 52 -83 52c-38 0 -71 -20 -71 -55c0 -31 15 -55 73 -76l41 -15c85 -31 130 -76 130 -150c0 -80 -68 -143 -175 -143v-597c0 -9 -5 -12 -9 -12c-5 0 -10 3 -10 12v598c-4 0 -7 0 -11 1v-189zM213 212l-34 13v-153c9 -2 19 -3 30 -3c49 0 89 25 89 63
s-26 59 -85 80z" />
    <glyph glyph-name="t.ss08" horiz-adv-x="364" 
d="M258 0c-96 0 -151 50 -151 145v277h-80l-19 78h99v107l86 43v-150h151l-19 -78v-237c0 -9 -5 -12 -9 -12c-5 0 -10 3 -10 12v237h-21v-107c0 -9 -5 -12 -9 -12c-5 0 -10 3 -10 12v107h-73v-264c0 -51 19 -80 74 -80h67v-78h-76z" />
    <glyph glyph-name="w.ss08" horiz-adv-x="700" 
d="M169 0l-67 212v-627c0 -9 -5 -12 -9 -12c-5 0 -10 3 -10 12v687l-72 228h89l112 -364l138 372l138 -372l112 364h89l-158 -500h-69l-10 27v-292c0 -9 -5 -12 -9 -12c-5 0 -10 3 -10 12v344l-19 51v-245c0 -9 -5 -12 -9 -12c-5 0 -10 3 -10 12v297l-45 122l-111 -304h-70z
" />
    <glyph glyph-name="z.ss08" horiz-adv-x="486" 
d="M16 0l292 422h-260v78h411l-291 -422h281v-78h-69v-65c0 -9 -5 -12 -9 -12c-5 0 -10 3 -10 12v65h-209v-245c0 -9 -5 -12 -9 -12c-5 0 -10 3 -10 12v245h-20v-545c0 -9 -5 -12 -9 -12c-5 0 -10 3 -10 12v545h-78z" />
    <glyph glyph-name="A.ss09" horiz-adv-x="678" 
d="M664 0l-112 233h-426l-112 -233h-21l346 718l346 -718h-21zM167 317h344l-172 357z" />
    <glyph glyph-name="D.ss09" horiz-adv-x="731" 
d="M95 0v710h211c219 0 379 -152 379 -355s-160 -355 -379 -355h-211zM306 625h-192v-540h192c172 0 286 115 286 270s-114 270 -286 270z" />
    <glyph glyph-name="F.ss09" horiz-adv-x="517" 
d="M114 0h-19v710h398v-88h-379v-215h312v-88h-312v-319z" />
    <glyph glyph-name="H.ss09" horiz-adv-x="734" 
d="M95 0v710h19v-303h506v303h19v-710h-19v319h-506v-319h-19z" />
    <glyph glyph-name="K.ss09" horiz-adv-x="624" 
d="M95 0v710h19v-710h-19zM501 0l-385 345l456 365h30l-405 -324l432 -386h-128z" />
    <glyph glyph-name="M.ss09" horiz-adv-x="882" 
d="M95 0v718l346 -381l346 381v-718h-91v494l-255 -285v102l-327 360v-671h-19z" />
    <glyph glyph-name="N.ss09" horiz-adv-x="787" 
d="M601 710h91v-718l-578 675v-667h-19v718l506 -591v583z" />
    <glyph glyph-name="Q.ss09" horiz-adv-x="820" 
d="M409 -8c-203 0 -363 157 -363 363s160 363 363 363s363 -157 363 -363c0 -102 -39 -192 -103 -257l114 -93l-12 -15l-116 95c-64 -58 -150 -93 -246 -93zM409 79c69 0 130 24 176 63l-118 97l12 14l120 -98c50 50 80 120 80 200c0 156 -115 276 -270 276
s-270 -120 -270 -276s115 -276 270 -276z" />
    <glyph glyph-name="R.ss09" horiz-adv-x="606" 
d="M492 0l-378 391h186c93 0 140 44 140 117c0 74 -47 118 -140 118h-186v-626h-19v710h211c139 0 228 -79 228 -200c0 -118 -86 -200 -223 -200l300 -310h-119z" />
    <glyph glyph-name="T.ss09" horiz-adv-x="579" 
d="M3 691v19h573v-19h-277v-691h-19v691h-277z" />
    <glyph glyph-name="V.ss09" horiz-adv-x="627" 
d="M313 -8l-312 718h21l291 -670l291 670h21z" />
    <glyph glyph-name="W.ss09" horiz-adv-x="888" 
d="M252 -8l-244 718h21l194 -569l221 577l221 -577l194 569h21l-244 -718l-192 500z" />
    <glyph glyph-name="X.ss09" horiz-adv-x="633" 
d="M5 0l278 341l-265 369h105l215 -300l245 300h25l-258 -317l282 -393h-103l-234 325l-265 -325h-25z" />
    <glyph glyph-name="Y.ss09" horiz-adv-x="618" 
d="M303 0v271l-300 439h106l245 -358l239 358h22l-293 -439v-271h-19z" />
    <glyph glyph-name="Z.ss09" horiz-adv-x="591" 
d="M8 0l461 622h-418v88h508l-461 -622h463v-88h-553z" />
    <glyph glyph-name="H.ss10" horiz-adv-x="778" 
d="M52 0l96 159l-96 196l96 196l-96 159h98l96 -159l-71 -144h385l71 144l-96 159h98l96 -159l-96 -196l95 -196l-96 -159h-97l96 159l-79 160h-385l78 -160l-96 -159h-97z" />
    <glyph glyph-name="I.ss10" horiz-adv-x="295" 
d="M52 0l96 159l-96 196l96 196l-96 159h98l96 -159l-96 -196l95 -196l-96 -159h-97z" />
    <glyph glyph-name="i.ss10" horiz-adv-x="270" 
d="M120 609c-12 11 -19 27 -19 46c0 35 27 63 62 63s62 -28 62 -63c0 -19 -7 -35 -19 -46h-86zM40 0l101 159l-100 196l74 145h96l-74 -145l100 -196l-101 -159h-96z" />
    <glyph glyph-name="l.ss10" horiz-adv-x="270" 
d="M40 0l101 159l-100 196l100 196l-101 159h96l101 -159l-100 -196l100 -196l-101 -159h-96z" />
    <glyph glyph-name="A.ss11" horiz-adv-x="740" 
d="M24 0l90 186h-99v84h139l216 448l216 -448h139v-84h-99l90 -186h-98l-88 186h-320l-88 -186h-98zM250 270h240l-120 254z" />
    <glyph glyph-name="C.ss11" horiz-adv-x="747" 
d="M409 -8c-203 0 -363 157 -363 363s160 363 363 363c125 0 230 -61 284 -135v-178h-91v151c-47 46 -115 75 -193 75c-155 0 -270 -120 -270 -276s115 -276 270 -276c94 0 172 42 219 105l65 -57c-54 -74 -159 -135 -284 -135z" />
    <glyph glyph-name="F.ss11" horiz-adv-x="575" 
d="M95 0v710h443v-229h-91v141h-261v-215h240v-88h-240v-319h-91z" />
    <glyph glyph-name="G.ss11" horiz-adv-x="742" 
d="M409 -8c-203 0 -363 157 -363 363s160 363 363 363c110 0 212 -49 268 -115l-65 -58c-48 52 -117 86 -203 86c-155 0 -270 -120 -270 -276s115 -276 270 -276c79 0 144 24 181 53v187h-128v-70h-91v229h91v-71h219v-317c-43 -50 -149 -98 -272 -98z" />
    <glyph glyph-name="I.ss11" horiz-adv-x="487" 
d="M42 0v89h156v532h-156v89h403v-89h-156v-532h156v-89h-403z" />
    <glyph glyph-name="J.ss11" horiz-adv-x="523" 
d="M228 -8c-114 0 -207 73 -207 206h91c0 -81 52 -119 115 -119c67 0 117 38 117 119v423h-217v89h308v-518c0 -133 -96 -200 -207 -200z" />
    <glyph glyph-name="K.ss11" horiz-adv-x="830" 
d="M253 0v89c-141 21 -218 137 -218 255s77 234 218 255v111h91v-108h344v108h91v-189h-435v-350c77 19 119 91 121 165h2l340 -336h-121l-185 183c-36 -49 -93 -84 -157 -95v-88h-91zM124 344c0 -73 39 -152 129 -173v345c-91 -21 -129 -102 -129 -172z" />
    <glyph glyph-name="L.ss11" horiz-adv-x="578" 
d="M95 0v710h91v-621h265v140h91v-229h-447z" />
    <glyph glyph-name="Q.ss11" horiz-adv-x="779" 
d="M361 -8c-125 0 -230 61 -284 135v456c54 74 159 135 284 135c203 0 363 -157 363 -363c0 -86 -28 -164 -76 -225l91 -73l-53 -67l-99 79c-61 -49 -140 -77 -226 -77zM146 532l432 -346c33 46 53 105 53 169c0 156 -115 276 -270 276c-91 0 -167 -39 -215 -99zM168 402
v-248c47 -46 115 -75 193 -75c58 0 111 17 154 47z" />
    <glyph glyph-name="T.ss11" horiz-adv-x="656" 
d="M282 0v622h-155v-141h-91v229h584v-229h-91v141h-156v-622h-91z" />
    <glyph glyph-name="W.ss11" horiz-adv-x="889" 
d="M252 -8l-244 718h94l175 -515l121 210l-176 305h93l130 -225l129 225h93l-176 -305l121 -210l175 515h94l-244 -718l-192 333z" />
    <glyph glyph-name="X.ss11" horiz-adv-x="699" 
d="M36 0l217 308c-130 37 -186 152 -186 265v137h91v-141c0 -123 78 -187 192 -187s192 64 192 187v141h91v-137c0 -113 -56 -228 -187 -266l217 -307h-103l-210 295h-1l-207 -295h-106z" />
    <glyph glyph-name="Y.ss11" horiz-adv-x="664" 
d="M286 0v216c-153 19 -237 132 -237 276v218h91v-222c0 -120 73 -187 192 -187s192 67 192 187v222h91v-218c0 -144 -84 -257 -237 -276v-216h-92z" />
    <glyph glyph-name="Z.ss11" horiz-adv-x="631" 
d="M29 0l203 319h-114v88h170l136 215h-261v-141h-91v229h508l-192 -303h103v-88h-159l-147 -231h306v141h91v-229h-553z" />
    <glyph glyph-name="c.ss11" horiz-adv-x="537" 
d="M298 -8c-148 0 -257 114 -257 258s109 258 257 258c83 0 147 -34 191 -79v-133h-85v98c-28 20 -64 33 -106 33c-98 0 -168 -78 -168 -177s70 -177 168 -177c59 0 104 26 136 58l55 -60c-44 -45 -108 -79 -191 -79z" />
    <glyph glyph-name="f.ss11" horiz-adv-x="445" 
d="M19 0v78h139v344h-99v78h99v65c0 95 55 145 151 145h129v-78h-120c-55 0 -74 -29 -74 -80v-52h134v-78h-134v-344h184v-78h-409z" />
    <glyph glyph-name="g.ss11" horiz-adv-x="629" 
d="M61 -184v78h357c34 0 62 28 62 62s-28 61 -62 61h-357v78h60c-38 42 -60 100 -60 166c0 140 99 247 249 247c24 0 47 -3 68 -8h201v-78h-75c35 -43 55 -99 55 -161c0 -73 -26 -135 -73 -178c48 -22 83 -71 83 -127c0 -77 -62 -140 -139 -140h-369zM310 95
c95 0 160 71 160 166s-65 166 -160 166s-160 -71 -160 -166s65 -166 160 -166z" />
    <glyph glyph-name="i.ss11" horiz-adv-x="389" 
d="M158 609c-12 11 -19 27 -19 46c0 35 27 63 62 63s62 -28 62 -63c0 -19 -7 -35 -19 -46h-86zM19 78h139v344h-99v78h185v-422h139v-78h-364v78z" />
    <glyph glyph-name="j.ss11" horiz-adv-x="282" 
d="M121 609c-12 11 -19 27 -19 46c0 35 27 63 62 63s62 -28 62 -63c0 -19 -7 -35 -19 -46h-86zM207 500v-539c0 -95 -55 -145 -151 -145h-39v78h30c55 0 74 29 74 80v448h-104v78h190z" />
    <glyph glyph-name="k.ss11" horiz-adv-x="608" 
d="M177 0v112c-75 0 -147 54 -147 143s72 143 147 143v312h86v-312h104l117 102h108l-206 -180h-123v-130h139l213 -190h-111l-125 112h-116v-112h-86zM116 255c0 -41 33 -65 61 -65v130c-28 0 -61 -24 -61 -65z" />
    <glyph glyph-name="l.ss11" horiz-adv-x="384" 
d="M14 0v78h139v554h-99v78h185v-632h139v-78h-364z" />
    <glyph glyph-name="r.ss11" horiz-adv-x="458" 
d="M19 0v78h139v344h-99v78h185v-59c34 43 82 64 138 64c12 0 24 -1 35 -3v-89c-14 4 -30 6 -48 6c-54 0 -103 -27 -125 -79v-262h184v-78h-409z" />
    <glyph glyph-name="w.ss11" horiz-adv-x="700" 
d="M169 0l-158 500h89l120 -391l91 166l-124 225h79l84 -154l84 154h79l-124 -225l91 -166l120 391h89l-158 -500h-69l-112 204l-112 -204h-69z" />
    <glyph glyph-name="x.ss11" horiz-adv-x="552" 
d="M29 0l159 208c-92 30 -123 110 -123 189v103h85v-98c0 -73 49 -127 126 -127s126 54 126 127v98h85v-103c0 -78 -31 -158 -122 -189l158 -208h-100l-147 194l-147 -194h-100z" />
    <glyph glyph-name="y.ss11" horiz-adv-x="507" 
d="M16 -184v78h77c36 0 56 12 66 35l50 113l-203 458h93l154 -358l159 358h93l-272 -606c-21 -47 -69 -78 -139 -78h-78z" />
    <glyph glyph-name="z.ss11" horiz-adv-x="490" 
d="M17 0l292 422h-175v-50h-85v128h411l-291 -422h196v50h85v-128h-433z" />
    <glyph glyph-name="zero.slashed.superior.ss12" horiz-adv-x="395" 
d="M198 405c-92 0 -158 65 -158 218s66 218 158 218s158 -65 158 -218s-66 -218 -158 -218zM198 777c-52 0 -88 -38 -88 -147l172 54c-12 69 -43 93 -84 93zM198 469c52 0 88 38 88 148l-172 -54c11 -70 43 -94 84 -94z" />
    <glyph glyph-name="zero.superior.ss12" horiz-adv-x="395" 
d="M198 405c-92 0 -158 65 -158 218s66 218 158 218s158 -65 158 -218s-66 -218 -158 -218zM198 469c52 0 88 38 88 154s-37 154 -88 154c-52 0 -88 -38 -88 -154s37 -154 88 -154z" />
    <glyph glyph-name="onesuperior.ss12" horiz-adv-x="225" 
d="M95 410v359h-85l55 65h99v-424h-69z" />
    <glyph glyph-name="twosuperior.ss12" horiz-adv-x="348" 
d="M14 410l149 171c52 59 78 93 78 128c0 38 -26 68 -67 68s-67 -30 -67 -68v-4h-69v4c0 74 58 132 136 132c77 0 136 -58 136 -132c0 -43 -19 -78 -55 -120l-98 -114h152v-65h-295z" />
    <glyph glyph-name="zero.slashed.inferior.ss12" horiz-adv-x="374" 
d="M187 -120c-92 0 -158 65 -158 218s66 218 158 218s158 -65 158 -218s-66 -218 -158 -218zM187 252c-52 0 -88 -38 -88 -147l172 54c-12 69 -43 93 -84 93zM187 -56c52 0 88 38 88 148l-172 -54c11 -70 43 -94 84 -94z" />
    <glyph glyph-name="zero.inferior.ss12" horiz-adv-x="374" 
d="M187 -120c-92 0 -158 65 -158 218s66 218 158 218s158 -65 158 -218s-66 -218 -158 -218zM187 -56c52 0 88 38 88 154s-37 154 -88 154c-52 0 -88 -38 -88 -154s37 -154 88 -154z" />
    <glyph glyph-name="one.inferior.ss12" horiz-adv-x="207" 
d="M87 -115v359h-85l55 65h99v-424h-69z" />
    <glyph glyph-name="two.inferior.ss12" horiz-adv-x="329" 
d="M4 -115l149 171c52 59 78 93 78 128c0 38 -26 68 -67 68s-67 -30 -67 -68v-4h-69v4c0 74 58 132 136 132c77 0 136 -58 136 -132c0 -43 -19 -78 -55 -120l-98 -114h152v-65h-295z" />
    <glyph glyph-name="zero.slashed.dnom.ss12" horiz-adv-x="375" 
d="M188 -6c-92 0 -158 65 -158 218s66 218 158 218s158 -65 158 -218s-66 -218 -158 -218zM188 366c-52 0 -88 -38 -88 -147l172 54c-12 69 -43 93 -84 93zM188 58c52 0 88 38 88 148l-172 -54c11 -70 43 -94 84 -94z" />
    <glyph glyph-name="zero.dnom.ss12" horiz-adv-x="375" 
d="M188 -6c-92 0 -158 65 -158 218s66 218 158 218s158 -65 158 -218s-66 -218 -158 -218zM188 58c52 0 88 38 88 154s-37 154 -88 154c-52 0 -88 -38 -88 -154s37 -154 88 -154z" />
    <glyph glyph-name="one.dnom.ss12" horiz-adv-x="203" 
d="M83 0v359h-85l55 65h99v-424h-69z" />
    <glyph glyph-name="two.dnom.ss12" horiz-adv-x="329" 
d="M4 0l149 171c52 59 78 93 78 128c0 38 -26 68 -67 68s-67 -30 -67 -68v-4h-69v4c0 74 58 132 136 132c77 0 136 -58 136 -132c0 -43 -19 -78 -55 -120l-98 -114h152v-65h-295z" />
    <glyph glyph-name="zero.slashed.numr.ss12" horiz-adv-x="375" 
d="M188 282c-92 0 -158 65 -158 218s66 218 158 218s158 -65 158 -218s-66 -218 -158 -218zM188 654c-52 0 -88 -38 -88 -147l172 54c-12 69 -43 93 -84 93zM188 346c52 0 88 38 88 148l-172 -54c11 -70 43 -94 84 -94z" />
    <glyph glyph-name="zero.numr.ss12" horiz-adv-x="375" 
d="M188 282c-92 0 -158 65 -158 218s66 218 158 218s158 -65 158 -218s-66 -218 -158 -218zM188 346c52 0 88 38 88 154s-37 154 -88 154c-52 0 -88 -38 -88 -154s37 -154 88 -154z" />
    <glyph glyph-name="one.numr.ss12" horiz-adv-x="205" 
d="M85 286v359h-85l55 65h99v-424h-69z" />
    <glyph glyph-name="two.numr.ss12" horiz-adv-x="329" 
d="M4 286l149 171c52 59 78 93 78 128c0 38 -26 68 -67 68s-67 -30 -67 -68v-4h-69v4c0 74 58 132 136 132c77 0 136 -58 136 -132c0 -43 -19 -78 -55 -120l-98 -114h152v-65h-295z" />
    <glyph glyph-name="zero.slashed.pof.ss12" horiz-adv-x="522" 
d="M474 270c1 -192 -88 -278 -213 -278c-127 0 -213 86 -213 278s86 278 213 278c125 0 212 -86 213 -278zM135 270v-22l242 117c-19 74 -62 104 -117 104c-74 0 -125 -54 -125 -199zM261 71c72 0 126 54 126 199v19l-241 -117c19 -72 61 -101 115 -101z" />
    <glyph glyph-name="zero.pof.ss12" horiz-adv-x="522" 
d="M474 270c1 -192 -88 -278 -213 -278c-127 0 -213 86 -213 278s86 278 213 278c125 0 212 -86 213 -278zM261 71c72 0 126 54 126 199s-53 199 -127 199s-125 -54 -125 -199s52 -199 126 -199z" />
    </font>
</defs>
</svg>
